<svg width="440" height="92" viewBox="0 0 440 92" fill="none" xmlns="http://www.w3.org/2000/svg">
<g filter="url(#filter0_d_177_1552)">
<rect x="20" y="20" width="400" height="52" rx="26" fill="#7C3AED"/>
<path d="M183.932 52V40.3636H188.193C189.019 40.3636 189.702 40.5 190.244 40.7727C190.786 41.0417 191.191 41.4072 191.46 41.8693C191.729 42.3277 191.863 42.8447 191.863 43.4205C191.863 43.9053 191.774 44.3144 191.596 44.6477C191.418 44.9773 191.18 45.2424 190.88 45.4432C190.585 45.6402 190.259 45.7841 189.903 45.875V45.9886C190.29 46.0076 190.666 46.1326 191.034 46.3636C191.405 46.5909 191.712 46.9148 191.954 47.3352C192.197 47.7557 192.318 48.267 192.318 48.8693C192.318 49.464 192.178 49.9981 191.897 50.4716C191.621 50.9413 191.193 51.3144 190.613 51.5909C190.034 51.8636 189.293 52 188.392 52H183.932ZM185.687 50.4943H188.221C189.062 50.4943 189.665 50.3314 190.028 50.0057C190.392 49.6799 190.574 49.2727 190.574 48.7841C190.574 48.4167 190.481 48.0795 190.295 47.7727C190.11 47.4659 189.844 47.2216 189.5 47.0398C189.159 46.858 188.754 46.767 188.284 46.767H185.687V50.4943ZM185.687 45.3977H188.04C188.433 45.3977 188.788 45.322 189.102 45.1705C189.42 45.0189 189.672 44.8068 189.858 44.5341C190.047 44.2576 190.142 43.9318 190.142 43.5568C190.142 43.0758 189.973 42.6723 189.636 42.3466C189.299 42.0208 188.782 41.858 188.085 41.858H185.687V45.3977ZM199.792 48.3807V43.2727H201.497V52H199.826V50.4886H199.736C199.535 50.9545 199.213 51.3428 198.77 51.6534C198.33 51.9602 197.783 52.1136 197.128 52.1136C196.567 52.1136 196.071 51.9905 195.639 51.7443C195.211 51.4943 194.874 51.125 194.628 50.6364C194.385 50.1477 194.264 49.5436 194.264 48.8239V43.2727H195.963V48.6193C195.963 49.214 196.128 49.6875 196.457 50.0398C196.787 50.392 197.215 50.5682 197.741 50.5682C198.059 50.5682 198.376 50.4886 198.69 50.3295C199.008 50.1705 199.272 49.9299 199.48 49.608C199.692 49.286 199.796 48.8769 199.792 48.3807ZM207.853 43.2727V44.6364H203.086V43.2727H207.853ZM204.365 41.1818H206.064V49.4375C206.064 49.767 206.113 50.0152 206.211 50.1818C206.31 50.3447 206.437 50.4564 206.592 50.517C206.751 50.5739 206.924 50.6023 207.109 50.6023C207.246 50.6023 207.365 50.5928 207.467 50.5739C207.569 50.5549 207.649 50.5398 207.706 50.5284L208.013 51.9318C207.914 51.9697 207.774 52.0076 207.592 52.0455C207.41 52.0871 207.183 52.1098 206.91 52.1136C206.463 52.1212 206.047 52.0417 205.66 51.875C205.274 51.7083 204.961 51.4508 204.723 51.1023C204.484 50.7538 204.365 50.3163 204.365 49.7898V41.1818ZM213.807 43.2727V44.6364H209.04V43.2727H213.807ZM210.318 41.1818H212.017V49.4375C212.017 49.767 212.066 50.0152 212.165 50.1818C212.263 50.3447 212.39 50.4564 212.545 50.517C212.704 50.5739 212.877 50.6023 213.062 50.6023C213.199 50.6023 213.318 50.5928 213.42 50.5739C213.522 50.5549 213.602 50.5398 213.659 50.5284L213.966 51.9318C213.867 51.9697 213.727 52.0076 213.545 52.0455C213.363 52.0871 213.136 52.1098 212.863 52.1136C212.416 52.1212 212 52.0417 211.613 51.875C211.227 51.7083 210.915 51.4508 210.676 51.1023C210.437 50.7538 210.318 50.3163 210.318 49.7898V41.1818ZM219.268 52.1761C218.45 52.1761 217.736 51.9886 217.126 51.6136C216.516 51.2386 216.043 50.714 215.706 50.0398C215.369 49.3655 215.2 48.5777 215.2 47.6761C215.2 46.7708 215.369 45.9792 215.706 45.3011C216.043 44.6231 216.516 44.0966 217.126 43.7216C217.736 43.3466 218.45 43.1591 219.268 43.1591C220.086 43.1591 220.8 43.3466 221.41 43.7216C222.02 44.0966 222.494 44.6231 222.831 45.3011C223.168 45.9792 223.336 46.7708 223.336 47.6761C223.336 48.5777 223.168 49.3655 222.831 50.0398C222.494 50.714 222.02 51.2386 221.41 51.6136C220.8 51.9886 220.086 52.1761 219.268 52.1761ZM219.274 50.75C219.804 50.75 220.244 50.6098 220.592 50.3295C220.941 50.0492 221.198 49.6761 221.365 49.2102C221.535 48.7443 221.621 48.2311 221.621 47.6705C221.621 47.1136 221.535 46.6023 221.365 46.1364C221.198 45.6667 220.941 45.2898 220.592 45.0057C220.244 44.7216 219.804 44.5795 219.274 44.5795C218.74 44.5795 218.297 44.7216 217.944 45.0057C217.596 45.2898 217.336 45.6667 217.166 46.1364C216.999 46.6023 216.916 47.1136 216.916 47.6705C216.916 48.2311 216.999 48.7443 217.166 49.2102C217.336 49.6761 217.596 50.0492 217.944 50.3295C218.297 50.6098 218.74 50.75 219.274 50.75ZM226.932 46.8182V52H225.233V43.2727H226.863V44.6932H226.971C227.172 44.2311 227.487 43.8598 227.915 43.5795C228.346 43.2992 228.89 43.1591 229.545 43.1591C230.14 43.1591 230.661 43.2841 231.108 43.5341C231.555 43.7803 231.901 44.1477 232.147 44.6364C232.394 45.125 232.517 45.7292 232.517 46.4489V52H230.818V46.6534C230.818 46.0208 230.653 45.5265 230.324 45.1705C229.994 44.8106 229.541 44.6307 228.966 44.6307C228.572 44.6307 228.221 44.7159 227.915 44.8864C227.612 45.0568 227.371 45.3068 227.193 45.6364C227.019 45.9621 226.932 46.3561 226.932 46.8182Z" fill="#FAFAFA"/>
<g opacity="0.7">
<path d="M259.913 41.332L264.58 45.9987M264.58 45.9987L259.913 50.6654M264.58 45.9987H252.58" stroke="#FAFAFA" stroke-width="1.33333" stroke-linecap="round" stroke-linejoin="round"/>
</g>
</g>
<defs>
<filter id="filter0_d_177_1552" x="0" y="0" width="440" height="92" filterUnits="userSpaceOnUse" color-interpolation-filters="sRGB">
<feFlood flood-opacity="0" result="BackgroundImageFix"/>
<feColorMatrix in="SourceAlpha" type="matrix" values="0 0 0 0 0 0 0 0 0 0 0 0 0 0 0 0 0 0 127 0" result="hardAlpha"/>
<feMorphology radius="5" operator="erode" in="SourceAlpha" result="effect1_dropShadow_177_1552"/>
<feOffset/>
<feGaussianBlur stdDeviation="12.5"/>
<feComposite in2="hardAlpha" operator="out"/>
<feColorMatrix type="matrix" values="0 0 0 0 0.486275 0 0 0 0 0.227451 0 0 0 0 0.929412 0 0 0 0.4 0"/>
<feBlend mode="normal" in2="BackgroundImageFix" result="effect1_dropShadow_177_1552"/>
<feBlend mode="normal" in="SourceGraphic" in2="effect1_dropShadow_177_1552" result="shape"/>
</filter>
</defs>
</svg>
