<svg width="539" height="71" viewBox="0 0 539 71" fill="none" xmlns="http://www.w3.org/2000/svg">
<rect x="1.5" y="1.5" width="536" height="68" rx="34" fill="black" stroke="url(#paint0_linear_177_1568)" stroke-width="3"/>
<path d="M29.448 41L33.656 29.32H36.312L40.648 41H39.032L35.112 30.344L35.88 30.728H33.992L34.808 30.344L31.016 41H29.448ZM31.96 37.512L32.488 36.104H37.528L38.056 37.512H31.96ZM45.3345 41.256C44.2145 41.256 43.3452 41.016 42.7265 40.536C42.1185 40.056 41.8038 39.4 41.7825 38.568H43.2225C43.2438 38.8987 43.4092 39.2133 43.7185 39.512C44.0385 39.8 44.5772 39.944 45.3345 39.944C46.0172 39.944 46.5398 39.8107 46.9025 39.544C47.2652 39.2667 47.4465 38.9307 47.4465 38.536C47.4465 38.184 47.3132 37.912 47.0465 37.72C46.7798 37.5173 46.3478 37.384 45.7505 37.32L44.8225 37.224C44.0118 37.1387 43.3505 36.8987 42.8385 36.504C42.3265 36.0987 42.0705 35.5333 42.0705 34.808C42.0705 34.264 42.2092 33.8 42.4865 33.416C42.7638 33.0213 43.1478 32.7227 43.6385 32.52C44.1292 32.3067 44.6945 32.2 45.3345 32.2C46.2945 32.2 47.0732 32.4133 47.6705 32.84C48.2678 33.2667 48.5772 33.9013 48.5985 34.744H47.1585C47.1478 34.4027 46.9878 34.1147 46.6785 33.88C46.3798 33.6347 45.9318 33.512 45.3345 33.512C44.7372 33.512 44.2838 33.6347 43.9745 33.88C43.6652 34.1253 43.5105 34.4347 43.5105 34.808C43.5105 35.128 43.6172 35.384 43.8305 35.576C44.0545 35.768 44.4172 35.8907 44.9185 35.944L45.8465 36.04C46.7638 36.136 47.4998 36.392 48.0545 36.808C48.6092 37.2133 48.8865 37.7893 48.8865 38.536C48.8865 39.0693 48.7318 39.544 48.4225 39.96C48.1238 40.3653 47.7078 40.6853 47.1745 40.92C46.6412 41.144 46.0278 41.256 45.3345 41.256ZM57.0006 41L53.7846 37.016H52.3766L56.2966 32.456H57.9126L54.3606 36.568L54.4726 35.752L58.7766 41H57.0006ZM51.1126 41V29.32H52.6486V41H51.1126ZM69.2211 41.288C68.1545 41.288 67.2425 41.1013 66.4851 40.728C65.7385 40.3547 65.1358 39.8693 64.6771 39.272C64.2185 38.6747 63.8825 38.0293 63.6691 37.336C63.4558 36.632 63.3491 35.9547 63.3491 35.304V34.952C63.3491 34.248 63.4558 33.544 63.6691 32.84C63.8931 32.136 64.2345 31.496 64.6931 30.92C65.1518 30.344 65.7491 29.88 66.4851 29.528C67.2211 29.176 68.1011 29 69.1251 29C70.1705 29 71.0665 29.1813 71.8131 29.544C72.5598 29.9067 73.1518 30.4133 73.5891 31.064C74.0265 31.7147 74.2931 32.4827 74.3891 33.368H72.7891C72.7038 32.7067 72.4905 32.1627 72.1491 31.736C71.8078 31.2987 71.3758 30.9733 70.8531 30.76C70.3411 30.5467 69.7651 30.44 69.1251 30.44C68.4318 30.44 67.8238 30.5627 67.3011 30.808C66.7785 31.0427 66.3411 31.3787 65.9891 31.816C65.6478 32.2427 65.3865 32.7387 65.2051 33.304C65.0345 33.8693 64.9491 34.4827 64.9491 35.144C64.9491 35.7733 65.0345 36.3707 65.2051 36.936C65.3865 37.5013 65.6531 38.0027 66.0051 38.44C66.3678 38.8773 66.8158 39.224 67.3491 39.48C67.8825 39.7253 68.5065 39.848 69.2211 39.848C70.2238 39.848 71.0665 39.5973 71.7491 39.096C72.4318 38.5947 72.8478 37.8693 72.9971 36.92H74.5971C74.4905 37.72 74.2185 38.4507 73.7811 39.112C73.3545 39.7733 72.7571 40.3013 71.9891 40.696C71.2318 41.0907 70.3091 41.288 69.2211 41.288ZM76.8679 41V29.256H78.4359V41H76.8679ZM84.0839 41L80.2119 35.8H82.0519L85.9879 41H84.0839ZM77.8439 36.776V35.384H80.9799C81.4705 35.384 81.8919 35.2827 82.2439 35.08C82.5959 34.8773 82.8679 34.6 83.0599 34.248C83.2519 33.8853 83.3479 33.4747 83.3479 33.016C83.3479 32.5573 83.2519 32.152 83.0599 31.8C82.8679 31.4373 82.5959 31.1547 82.2439 30.952C81.8919 30.7387 81.4705 30.632 80.9799 30.632H77.8439V29.256H80.6919C81.5452 29.256 82.2919 29.384 82.9319 29.64C83.5719 29.896 84.0679 30.2907 84.4199 30.824C84.7719 31.3573 84.9479 32.0453 84.9479 32.888V33.144C84.9479 33.9867 84.7665 34.6747 84.4039 35.208C84.0519 35.7413 83.5559 36.136 82.9159 36.392C82.2865 36.648 81.5452 36.776 80.6919 36.776H77.8439ZM93.1155 41.288C92.0702 41.288 91.1688 41.1013 90.4115 40.728C89.6542 40.3547 89.0302 39.864 88.5395 39.256C88.0488 38.648 87.6808 37.9973 87.4355 37.304C87.2008 36.6107 87.0835 35.944 87.0835 35.304V34.952C87.0835 34.2587 87.2062 33.56 87.4515 32.856C87.6968 32.152 88.0702 31.512 88.5715 30.936C89.0728 30.3493 89.6968 29.88 90.4435 29.528C91.2008 29.176 92.0915 29 93.1155 29C94.1395 29 95.0248 29.176 95.7715 29.528C96.5288 29.88 97.1582 30.3493 97.6595 30.936C98.1608 31.512 98.5342 32.152 98.7795 32.856C99.0248 33.56 99.1475 34.2587 99.1475 34.952V35.304C99.1475 35.944 99.0248 36.6107 98.7795 37.304C98.5448 37.9973 98.1822 38.648 97.6915 39.256C97.2008 39.864 96.5768 40.3547 95.8195 40.728C95.0622 41.1013 94.1608 41.288 93.1155 41.288ZM93.1155 39.848C93.7982 39.848 94.4115 39.72 94.9555 39.464C95.5102 39.208 95.9795 38.8613 96.3635 38.424C96.7475 37.976 97.0408 37.4747 97.2435 36.92C97.4462 36.3547 97.5475 35.7627 97.5475 35.144C97.5475 34.4933 97.4462 33.8853 97.2435 33.32C97.0408 32.7547 96.7475 32.2587 96.3635 31.832C95.9795 31.3947 95.5102 31.0533 94.9555 30.808C94.4115 30.5627 93.7982 30.44 93.1155 30.44C92.4328 30.44 91.8142 30.5627 91.2595 30.808C90.7155 31.0533 90.2515 31.3947 89.8675 31.832C89.4835 32.2587 89.1902 32.7547 88.9875 33.32C88.7848 33.8853 88.6835 34.4933 88.6835 35.144C88.6835 35.7627 88.7848 36.3547 88.9875 36.92C89.1902 37.4747 89.4835 37.976 89.8675 38.424C90.2515 38.8613 90.7155 39.208 91.2595 39.464C91.8142 39.72 92.4328 39.848 93.1155 39.848ZM103.476 41L100.324 29.32H101.94L104.676 39.976L103.924 39.592H105.828L104.996 39.976L107.22 29.8H108.692L106.148 41H103.476ZM110.5 41L107.7 29.8H109.22L111.732 39.976L110.932 39.592H112.852L112.036 39.976L114.484 29.32H116.052L113.188 41H110.5ZM120.62 41L124.828 29.32H127.484L131.82 41H130.204L126.284 30.344L127.052 30.728H125.164L125.98 30.344L122.188 41H120.62ZM123.132 37.512L123.66 36.104H128.7L129.228 37.512H123.132ZM133.738 41V32.456H134.954V36.12H134.762C134.762 35.2773 134.874 34.568 135.098 33.992C135.332 33.4053 135.684 32.9627 136.154 32.664C136.623 32.3547 137.215 32.2 137.93 32.2H137.994C139.071 32.2 139.866 32.536 140.378 33.208C140.9 33.88 141.162 34.8507 141.162 36.12V41H139.626V35.8C139.626 35.1387 139.439 34.6107 139.066 34.216C138.692 33.8107 138.18 33.608 137.53 33.608C136.858 33.608 136.314 33.816 135.898 34.232C135.482 34.648 135.274 35.2027 135.274 35.896V41H133.738ZM143.334 44.328V42.952H144.566C144.928 42.952 145.232 42.904 145.478 42.808C145.734 42.7227 145.942 42.5733 146.102 42.36C146.272 42.1467 146.411 41.864 146.518 41.512L149.206 32.456H150.71L147.862 41.912C147.691 42.4773 147.451 42.936 147.141 43.288C146.832 43.6507 146.454 43.912 146.006 44.072C145.568 44.2427 145.056 44.328 144.47 44.328H143.334ZM145.942 40.808V39.528H147.798V40.808H145.942ZM145.782 40.808L142.726 32.456H144.294L147.222 40.808H145.782ZM156.144 41.096C155.504 41.096 154.949 41.0053 154.48 40.824C154.021 40.6427 153.664 40.3333 153.408 39.896C153.162 39.448 153.04 38.8453 153.04 38.088V29.864H154.512V38.28C154.512 38.7387 154.634 39.096 154.88 39.352C155.136 39.5973 155.493 39.72 155.952 39.72H157.456V41.096H156.144ZM151.568 33.608V32.456H157.456V33.608H151.568ZM159.628 41V29.32H161.164V36.296H160.78C160.78 35.4533 160.887 34.728 161.1 34.12C161.324 33.5013 161.666 33.0267 162.124 32.696C162.583 32.3653 163.17 32.2 163.884 32.2H163.948C164.972 32.2 165.746 32.5413 166.268 33.224C166.791 33.896 167.052 34.8613 167.052 36.12V41H165.516V35.8C165.516 35.1067 165.319 34.568 164.924 34.184C164.54 33.8 164.039 33.608 163.42 33.608C162.738 33.608 162.188 33.8373 161.772 34.296C161.367 34.744 161.164 35.336 161.164 36.072V41H159.628ZM170.279 41V32.456H171.815V41H170.279ZM168.967 33.672V32.456H171.815V33.672H168.967ZM170.711 31.08C170.369 31.08 170.113 30.9893 169.943 30.808C169.783 30.6267 169.703 30.3973 169.703 30.12C169.703 29.8427 169.783 29.6133 169.943 29.432C170.113 29.2507 170.369 29.16 170.711 29.16C171.052 29.16 171.303 29.2507 171.463 29.432C171.633 29.6133 171.719 29.8427 171.719 30.12C171.719 30.3973 171.633 30.6267 171.463 30.808C171.303 30.9893 171.052 31.08 170.711 31.08ZM174.785 41V32.456H176.001V36.12H175.809C175.809 35.2773 175.921 34.568 176.145 33.992C176.379 33.4053 176.731 32.9627 177.201 32.664C177.67 32.3547 178.262 32.2 178.977 32.2H179.041C180.118 32.2 180.913 32.536 181.425 33.208C181.947 33.88 182.209 34.8507 182.209 36.12V41H180.673V35.8C180.673 35.1387 180.486 34.6107 180.113 34.216C179.739 33.8107 179.227 33.608 178.577 33.608C177.905 33.608 177.361 33.816 176.945 34.232C176.529 34.648 176.321 35.2027 176.321 35.896V41H174.785ZM188.251 44.328C187.856 44.328 187.456 44.312 187.051 44.28C186.656 44.248 186.278 44.2053 185.915 44.152V42.856C186.299 42.9093 186.699 42.952 187.115 42.984C187.542 43.0267 187.942 43.048 188.315 43.048C189.094 43.048 189.712 42.9413 190.171 42.728C190.64 42.5253 190.976 42.2 191.179 41.752C191.392 41.3147 191.499 40.7493 191.499 40.056V38.424L192.011 37.208C191.979 38.072 191.798 38.792 191.467 39.368C191.136 39.9333 190.704 40.36 190.171 40.648C189.648 40.9253 189.067 41.064 188.427 41.064C187.83 41.064 187.28 40.952 186.779 40.728C186.288 40.4933 185.862 40.1733 185.499 39.768C185.147 39.3627 184.87 38.8987 184.667 38.376C184.475 37.8427 184.379 37.2827 184.379 36.696V36.408C184.379 35.8107 184.48 35.256 184.683 34.744C184.886 34.2213 185.168 33.768 185.531 33.384C185.894 33 186.326 32.7013 186.827 32.488C187.339 32.2747 187.899 32.168 188.507 32.168C189.222 32.168 189.851 32.3227 190.395 32.632C190.939 32.9307 191.366 33.3733 191.675 33.96C191.995 34.536 192.171 35.2453 192.203 36.088L191.755 36.104V32.456H192.971V39.992C192.971 41.016 192.811 41.8427 192.491 42.472C192.182 43.112 191.68 43.5813 190.987 43.88C190.304 44.1787 189.392 44.328 188.251 44.328ZM188.715 39.656C189.227 39.656 189.691 39.544 190.107 39.32C190.534 39.096 190.87 38.776 191.115 38.36C191.371 37.9333 191.499 37.4267 191.499 36.84V36.104C191.499 35.528 191.366 35.0427 191.099 34.648C190.843 34.2533 190.507 33.9547 190.091 33.752C189.675 33.5493 189.222 33.448 188.731 33.448C188.176 33.448 187.686 33.576 187.259 33.832C186.832 34.088 186.502 34.4507 186.267 34.92C186.032 35.3787 185.915 35.9227 185.915 36.552C185.915 37.1813 186.032 37.7307 186.267 38.2C186.512 38.6693 186.843 39.032 187.259 39.288C187.686 39.5333 188.171 39.656 188.715 39.656ZM195.512 41V39.048H197.368V41H195.512ZM199.699 41V39.048H201.555V41H199.699ZM203.887 41V39.048H205.743V41H203.887Z" fill="#FAFAFA"/>
<circle cx="503" cy="36" r="25" fill="#640FDA"/>
<path d="M496.75 42.25L509.25 29.75" stroke="#FAFAFA" stroke-width="2.66667" stroke-linecap="round" stroke-linejoin="round"/>
<path d="M496.75 29.75H509.25V42.25" stroke="#FAFAFA" stroke-width="2.66667" stroke-linecap="round" stroke-linejoin="round"/>
<defs>
<linearGradient id="paint0_linear_177_1568" x1="0" y1="35.5" x2="539" y2="35.5" gradientUnits="userSpaceOnUse">
<stop offset="0.192308" stop-color="#26006C" stop-opacity="0.91"/>
<stop offset="0.5625" stop-color="#9F6DE6" stop-opacity="0.823317"/>
<stop offset="0.908654" stop-color="#6E0AD7"/>
</linearGradient>
</defs>
</svg>
