<svg width="192" height="89" viewBox="0 0 192 89" fill="none" xmlns="http://www.w3.org/2000/svg">
<path d="M71.4285 12V3.27273H74.6246C75.2439 3.27273 75.7567 3.375 76.1629 3.57955C76.5692 3.78125 76.8731 4.0554 77.0748 4.40199C77.2765 4.74574 77.3774 5.13352 77.3774 5.56534C77.3774 5.92898 77.3106 6.2358 77.1771 6.4858C77.0436 6.73295 76.8646 6.93182 76.6402 7.08239C76.4186 7.23011 76.1743 7.33807 75.9072 7.40625V7.49148C76.197 7.50568 76.4797 7.59943 76.7552 7.77273C77.0336 7.94318 77.2638 8.18608 77.4456 8.50142C77.6274 8.81676 77.7183 9.20028 77.7183 9.65199C77.7183 10.098 77.6132 10.4986 77.403 10.8537C77.1956 11.206 76.8746 11.4858 76.4399 11.6932C76.0052 11.8977 75.4498 12 74.7737 12H71.4285ZM72.7453 10.8707H74.6459C75.2765 10.8707 75.7282 10.7486 76.001 10.5043C76.2737 10.2599 76.4101 9.95455 76.4101 9.58807C76.4101 9.3125 76.3405 9.05966 76.2013 8.82955C76.0621 8.59943 75.8632 8.41619 75.6047 8.27983C75.349 8.14347 75.045 8.07528 74.6927 8.07528H72.7453V10.8707ZM72.7453 7.0483H74.5095C74.805 7.0483 75.0706 6.99148 75.3064 6.87784C75.545 6.7642 75.7339 6.60511 75.8731 6.40057C76.0152 6.19318 76.0862 5.94886 76.0862 5.66761C76.0862 5.30682 75.9598 5.00426 75.7069 4.75994C75.4541 4.51562 75.0663 4.39347 74.5436 4.39347H72.7453V7.0483ZM81.1969 3.27273V12H79.8801V3.27273H81.1969ZM83.7145 12V3.27273H85.0312V10.8665H88.9858V12H83.7145ZM91.0879 12V3.27273H92.4047V10.8665H96.3592V12H91.0879ZM99.7781 3.27273V12H98.4613V3.27273H99.7781ZM109.34 3.27273V12H108.13L103.693 5.59943H103.612V12H102.296V3.27273H103.514L107.955 9.68182H108.036V3.27273H109.34ZM117.767 6.02983C117.684 5.77131 117.574 5.53977 117.434 5.33523C117.298 5.12784 117.135 4.9517 116.944 4.80682C116.754 4.65909 116.537 4.54687 116.292 4.47017C116.051 4.39347 115.785 4.35511 115.496 4.35511C115.004 4.35511 114.561 4.48153 114.166 4.73438C113.771 4.98722 113.459 5.35795 113.228 5.84659C113.001 6.33239 112.888 6.92756 112.888 7.6321C112.888 8.33949 113.003 8.9375 113.233 9.42614C113.463 9.91477 113.778 10.2855 114.179 10.5384C114.579 10.7912 115.035 10.9176 115.547 10.9176C116.021 10.9176 116.434 10.821 116.787 10.6278C117.142 10.4347 117.416 10.1619 117.609 9.80966C117.805 9.45455 117.903 9.03693 117.903 8.55682L118.244 8.62074H115.747V7.53409H119.177V8.52699C119.177 9.25994 119.021 9.89631 118.709 10.4361C118.399 10.973 117.97 11.3878 117.422 11.6804C116.876 11.973 116.251 12.1193 115.547 12.1193C114.757 12.1193 114.064 11.9375 113.467 11.5739C112.873 11.2102 112.41 10.6946 112.078 10.027C111.746 9.35653 111.579 8.56108 111.579 7.64062C111.579 6.9446 111.676 6.3196 111.869 5.76562C112.062 5.21165 112.334 4.74148 112.683 4.35511C113.035 3.96591 113.449 3.66903 113.923 3.46449C114.4 3.2571 114.922 3.15341 115.487 3.15341C115.959 3.15341 116.397 3.22301 116.804 3.36222C117.213 3.50142 117.576 3.69886 117.895 3.95455C118.216 4.21023 118.481 4.5142 118.692 4.86648C118.902 5.21591 119.044 5.60369 119.118 6.02983H117.767Z" fill="black"/>
<path d="M31.8489 85H30.9256L33.5961 77.7273H34.5051L37.1756 85H36.2523L34.079 78.8778H34.0222L31.8489 85ZM32.1898 82.1591H35.9114V82.9403H32.1898V82.1591ZM39.0328 81.7188V85H38.1948V79.5455H39.0044V80.3977H39.0755C39.2033 80.1207 39.3974 79.8982 39.6578 79.7301C39.9183 79.5597 40.2544 79.4744 40.6664 79.4744C41.0357 79.4744 41.3588 79.5502 41.6358 79.7017C41.9128 79.8509 42.1283 80.0781 42.2821 80.3835C42.436 80.6866 42.513 81.0701 42.513 81.5341V85H41.6749V81.5909C41.6749 81.1624 41.5636 80.8286 41.3411 80.5895C41.1185 80.348 40.8132 80.2273 40.4249 80.2273C40.1574 80.2273 39.9183 80.2853 39.7076 80.4013C39.4992 80.5173 39.3347 80.6866 39.214 80.9091C39.0932 81.1316 39.0328 81.4015 39.0328 81.7188ZM44.8825 81.7188V85H44.0444V79.5455H44.854V80.3977H44.9251C45.0529 80.1207 45.247 79.8982 45.5075 79.7301C45.7679 79.5597 46.104 79.4744 46.516 79.4744C46.8853 79.4744 47.2085 79.5502 47.4854 79.7017C47.7624 79.8509 47.9779 80.0781 48.1317 80.3835C48.2856 80.6866 48.3626 81.0701 48.3626 81.5341V85H47.5245V81.5909C47.5245 81.1624 47.4132 80.8286 47.1907 80.5895C46.9682 80.348 46.6628 80.2273 46.2745 80.2273C46.007 80.2273 45.7679 80.2853 45.5572 80.4013C45.3488 80.5173 45.1843 80.6866 45.0636 80.9091C44.9428 81.1316 44.8825 81.4015 44.8825 81.7188ZM53.3315 82.7699V79.5455H54.1696V85H53.3315V84.0767H53.2747C53.1468 84.3537 52.948 84.5893 52.6781 84.7834C52.4082 84.9751 52.0673 85.071 51.6554 85.071C51.3145 85.071 51.0114 84.9964 50.7463 84.8473C50.4811 84.6958 50.2728 84.4685 50.1213 84.1655C49.9698 83.8601 49.894 83.4754 49.894 83.0114V79.5455H50.7321V82.9545C50.7321 83.3523 50.8433 83.6695 51.0659 83.9062C51.2908 84.143 51.5772 84.2614 51.9252 84.2614C52.1336 84.2614 52.3455 84.2081 52.5609 84.1016C52.7787 83.995 52.961 83.8317 53.1078 83.6115C53.2569 83.3913 53.3315 83.1108 53.3315 82.7699ZM57.3097 85.1278C56.964 85.1278 56.6503 85.0627 56.3686 84.9325C56.0869 84.8 55.8632 84.6094 55.6974 84.3608C55.5317 84.1098 55.4489 83.8068 55.4489 83.4517C55.4489 83.1392 55.5104 82.8859 55.6335 82.6918C55.7566 82.4953 55.9212 82.3414 56.1271 82.2301C56.3331 82.1188 56.5604 82.036 56.8089 81.9815C57.0599 81.9247 57.312 81.8797 57.5653 81.8466C57.8968 81.804 58.1655 81.772 58.3714 81.7507C58.5798 81.727 58.7313 81.688 58.826 81.6335C58.9231 81.5791 58.9716 81.4844 58.9716 81.3494V81.321C58.9716 80.9706 58.8757 80.6984 58.6839 80.5043C58.4946 80.3101 58.2069 80.2131 57.821 80.2131C57.4209 80.2131 57.1072 80.3007 56.88 80.4759C56.6527 80.651 56.4929 80.8381 56.4006 81.0369L55.6051 80.7528C55.7472 80.4214 55.9366 80.1634 56.1733 79.9787C56.4124 79.7917 56.6728 79.6615 56.9545 79.5881C57.2386 79.5123 57.518 79.4744 57.7926 79.4744C57.9678 79.4744 58.169 79.4957 58.3963 79.5384C58.6259 79.5786 58.8473 79.6626 59.0604 79.7905C59.2758 79.9183 59.4545 80.1113 59.5966 80.3693C59.7386 80.6274 59.8097 80.973 59.8097 81.4062V85H58.9716V84.2614H58.929C58.8722 84.3797 58.7775 84.5064 58.6449 84.6413C58.5123 84.7763 58.3359 84.8911 58.1158 84.9858C57.8956 85.0805 57.6269 85.1278 57.3097 85.1278ZM57.4375 84.375C57.7689 84.375 58.0483 84.3099 58.2756 84.1797C58.5052 84.0495 58.678 83.8814 58.794 83.6754C58.9124 83.4695 58.9716 83.2528 58.9716 83.0256V82.2585C58.9361 82.3011 58.858 82.3402 58.7372 82.3757C58.6188 82.4089 58.4815 82.4384 58.3253 82.4645C58.1714 82.4882 58.0211 82.5095 57.8743 82.5284C57.7299 82.545 57.6127 82.5592 57.5227 82.571C57.3049 82.5994 57.1013 82.6456 56.9119 82.7095C56.7249 82.7711 56.5734 82.8646 56.4574 82.9901C56.3438 83.1132 56.2869 83.2812 56.2869 83.4943C56.2869 83.7855 56.3946 84.0057 56.6101 84.1548C56.8279 84.3016 57.1037 84.375 57.4375 84.375ZM62.1774 77.7273V85H61.3393V77.7273H62.1774ZM66.5249 85V79.5455H67.3629V85H66.5249ZM66.951 78.6364C66.7876 78.6364 66.6468 78.5807 66.5284 78.4695C66.4124 78.3582 66.3544 78.2244 66.3544 78.0682C66.3544 77.9119 66.4124 77.7782 66.5284 77.6669C66.6468 77.5556 66.7876 77.5 66.951 77.5C67.1143 77.5 67.254 77.5556 67.37 77.6669C67.4884 77.7782 67.5476 77.9119 67.5476 78.0682C67.5476 78.2244 67.4884 78.3582 67.37 78.4695C67.254 78.5807 67.1143 78.6364 66.951 78.6364ZM69.736 81.7188V85H68.8979V79.5455H69.7076V80.3977H69.7786C69.9064 80.1207 70.1006 79.8982 70.361 79.7301C70.6214 79.5597 70.9576 79.4744 71.3695 79.4744C71.7388 79.4744 72.062 79.5502 72.339 79.7017C72.6159 79.8509 72.8314 80.0781 72.9853 80.3835C73.1391 80.6866 73.2161 81.0701 73.2161 81.5341V85H72.378V81.5909C72.378 81.1624 72.2667 80.8286 72.0442 80.5895C71.8217 80.348 71.5163 80.2273 71.128 80.2273C70.8605 80.2273 70.6214 80.2853 70.4107 80.4013C70.2024 80.5173 70.0378 80.6866 69.9171 80.9091C69.7963 81.1316 69.736 81.4015 69.736 81.7188ZM76.9634 85.1136C76.4521 85.1136 76.0117 84.9929 75.6424 84.7514C75.2731 84.5099 74.989 84.1773 74.7901 83.7536C74.5913 83.3298 74.4918 82.8456 74.4918 82.3011C74.4918 81.7472 74.5936 81.2583 74.7972 80.8345C75.0032 80.4084 75.2897 80.0758 75.6566 79.8366C76.0259 79.5952 76.4568 79.4744 76.9492 79.4744C77.3327 79.4744 77.6784 79.5455 77.9862 79.6875C78.2939 79.8295 78.546 80.0284 78.7425 80.2841C78.939 80.5398 79.061 80.8381 79.1083 81.179H78.2702C78.2063 80.9304 78.0643 80.7102 77.8441 80.5185C77.6263 80.3243 77.3327 80.2273 76.9634 80.2273C76.6367 80.2273 76.3503 80.3125 76.104 80.483C75.8602 80.651 75.6696 80.889 75.5323 81.1967C75.3974 81.5021 75.3299 81.8608 75.3299 82.2727C75.3299 82.6941 75.3962 83.0611 75.5288 83.3736C75.6637 83.6861 75.8531 83.9287 76.0969 84.1016C76.3432 84.2744 76.632 84.3608 76.9634 84.3608C77.1812 84.3608 77.3789 84.3229 77.5565 84.2472C77.734 84.1714 77.8844 84.0625 78.0075 83.9205C78.1306 83.7784 78.2182 83.608 78.2702 83.4091H79.1083C79.061 83.7311 78.9438 84.0211 78.7567 84.2791C78.5721 84.5348 78.3271 84.7384 78.0217 84.8899C77.7186 85.0391 77.3659 85.1136 76.9634 85.1136ZM81.1715 77.7273V85H80.3335V77.7273H81.1715ZM86.144 82.7699V79.5455H86.9821V85H86.144V84.0767H86.0872C85.9593 84.3537 85.7605 84.5893 85.4906 84.7834C85.2207 84.9751 84.8798 85.071 84.4679 85.071C84.127 85.071 83.8239 84.9964 83.5588 84.8473C83.2936 84.6958 83.0853 84.4685 82.9338 84.1655C82.7823 83.8601 82.7065 83.4754 82.7065 83.0114V79.5455H83.5446V82.9545C83.5446 83.3523 83.6558 83.6695 83.8784 83.9062C84.1033 84.143 84.3897 84.2614 84.7377 84.2614C84.9461 84.2614 85.158 84.2081 85.3734 84.1016C85.5912 83.995 85.7735 83.8317 85.9203 83.6115C86.0694 83.3913 86.144 83.1108 86.144 82.7699ZM90.5767 85.1136C90.1222 85.1136 89.7209 84.9988 89.3729 84.7692C89.0249 84.5372 88.7526 84.2105 88.5561 83.7891C88.3596 83.3653 88.2614 82.8646 88.2614 82.2869C88.2614 81.714 88.3596 81.2169 88.5561 80.7955C88.7526 80.3741 89.026 80.0485 89.3764 79.8189C89.7268 79.5893 90.1316 79.4744 90.5909 79.4744C90.946 79.4744 91.2266 79.5336 91.4325 79.652C91.6409 79.768 91.7995 79.9006 91.9084 80.0497C92.0196 80.1965 92.1061 80.3172 92.1676 80.4119H92.2386V77.7273H93.0767V85H92.267V84.1619H92.1676C92.1061 84.2614 92.0185 84.3868 91.9048 84.5384C91.7912 84.6875 91.629 84.8213 91.4183 84.9396C91.2076 85.0556 90.9271 85.1136 90.5767 85.1136ZM90.6903 84.3608C91.0265 84.3608 91.3106 84.2732 91.5426 84.098C91.7746 83.9205 91.951 83.6754 92.0717 83.3629C92.1925 83.0481 92.2528 82.6847 92.2528 82.2727C92.2528 81.8655 92.1937 81.5092 92.0753 81.2038C91.9569 80.8961 91.7817 80.657 91.5497 80.4865C91.3177 80.3137 91.0313 80.2273 90.6903 80.2273C90.3352 80.2273 90.0393 80.3184 89.8026 80.5007C89.5682 80.6806 89.3918 80.9257 89.2734 81.2358C89.1574 81.5436 89.0994 81.8892 89.0994 82.2727C89.0994 82.661 89.1586 83.0137 89.277 83.331C89.3977 83.6458 89.5753 83.8968 89.8097 84.0838C90.0464 84.2685 90.34 84.3608 90.6903 84.3608ZM97.0149 85.1136C96.4893 85.1136 96.036 84.9976 95.6548 84.7656C95.276 84.5312 94.9837 84.2045 94.7777 83.7855C94.5741 83.3641 94.4723 82.8741 94.4723 82.3153C94.4723 81.7566 94.5741 81.2642 94.7777 80.8381C94.9837 80.4096 95.2701 80.0758 95.6371 79.8366C96.0064 79.5952 96.4373 79.4744 96.9297 79.4744C97.2138 79.4744 97.4943 79.5218 97.7713 79.6165C98.0483 79.7112 98.3004 79.8651 98.5277 80.0781C98.755 80.2888 98.9361 80.5682 99.071 80.9162C99.206 81.2642 99.2734 81.6927 99.2734 82.2017V82.5568H95.0689V81.8324H98.4212C98.4212 81.5246 98.3596 81.25 98.2365 81.0085C98.1158 80.767 97.9429 80.5765 97.718 80.4368C97.4955 80.2971 97.2327 80.2273 96.9297 80.2273C96.5959 80.2273 96.3071 80.3101 96.0632 80.4759C95.8217 80.6392 95.6359 80.8523 95.5057 81.1151C95.3755 81.3778 95.3104 81.6596 95.3104 81.9602V82.4432C95.3104 82.8551 95.3814 83.2043 95.5234 83.4908C95.6679 83.7749 95.8679 83.9915 96.1236 84.1406C96.3793 84.2874 96.6764 84.3608 97.0149 84.3608C97.2351 84.3608 97.4339 84.33 97.6115 84.2685C97.7914 84.2045 97.9465 84.1098 98.0767 83.9844C98.2069 83.8565 98.3075 83.6979 98.3786 83.5085L99.1882 83.7358C99.103 84.0104 98.9598 84.2519 98.7585 84.4602C98.5573 84.6662 98.3087 84.8272 98.0128 84.9432C97.7169 85.0568 97.3842 85.1136 97.0149 85.1136ZM104.412 80.767L103.659 80.9801C103.612 80.8546 103.542 80.7327 103.45 80.6143C103.36 80.4936 103.237 80.3942 103.08 80.3161C102.924 80.2379 102.724 80.1989 102.48 80.1989C102.146 80.1989 101.868 80.2758 101.646 80.4297C101.425 80.5812 101.315 80.7741 101.315 81.0085C101.315 81.2169 101.391 81.3814 101.543 81.5021C101.694 81.6229 101.931 81.7235 102.253 81.804L103.062 82.0028C103.55 82.1212 103.914 82.3023 104.153 82.5462C104.392 82.7876 104.511 83.099 104.511 83.4801C104.511 83.7926 104.421 84.072 104.241 84.3182C104.064 84.5644 103.815 84.7585 103.496 84.9006C103.176 85.0426 102.804 85.1136 102.381 85.1136C101.824 85.1136 101.364 84.9929 100.999 84.7514C100.635 84.5099 100.404 84.1572 100.307 83.6932L101.102 83.4943C101.178 83.7879 101.321 84.008 101.532 84.1548C101.745 84.3016 102.023 84.375 102.366 84.375C102.757 84.375 103.067 84.2921 103.297 84.1264C103.529 83.9583 103.645 83.7571 103.645 83.5227C103.645 83.3333 103.579 83.1747 103.446 83.0469C103.313 82.9167 103.11 82.8196 102.835 82.7557L101.926 82.5426C101.427 82.4242 101.06 82.2408 100.825 81.9922C100.593 81.7412 100.477 81.4276 100.477 81.0511C100.477 80.7434 100.564 80.4711 100.737 80.2344C100.912 79.9976 101.15 79.8118 101.45 79.6768C101.753 79.5419 102.097 79.4744 102.48 79.4744C103.02 79.4744 103.444 79.5928 103.751 79.8295C104.062 80.0663 104.282 80.3788 104.412 80.767ZM110.191 85.1278C109.845 85.1278 109.531 85.0627 109.249 84.9325C108.968 84.8 108.744 84.6094 108.578 84.3608C108.413 84.1098 108.33 83.8068 108.33 83.4517C108.33 83.1392 108.391 82.8859 108.514 82.6918C108.637 82.4953 108.802 82.3414 109.008 82.2301C109.214 82.1188 109.441 82.036 109.69 81.9815C109.941 81.9247 110.193 81.8797 110.446 81.8466C110.778 81.804 111.046 81.772 111.252 81.7507C111.461 81.727 111.612 81.688 111.707 81.6335C111.804 81.5791 111.852 81.4844 111.852 81.3494V81.321C111.852 80.9706 111.757 80.6984 111.565 80.5043C111.375 80.3101 111.088 80.2131 110.702 80.2131C110.302 80.2131 109.988 80.3007 109.761 80.4759C109.534 80.651 109.374 80.8381 109.281 81.0369L108.486 80.7528C108.628 80.4214 108.817 80.1634 109.054 79.9787C109.293 79.7917 109.554 79.6615 109.835 79.5881C110.119 79.5123 110.399 79.4744 110.673 79.4744C110.849 79.4744 111.05 79.4957 111.277 79.5384C111.507 79.5786 111.728 79.6626 111.941 79.7905C112.157 79.9183 112.335 80.1113 112.477 80.3693C112.619 80.6274 112.691 80.973 112.691 81.4062V85H111.852V84.2614H111.81C111.753 84.3797 111.658 84.5064 111.526 84.6413C111.393 84.7763 111.217 84.8911 110.997 84.9858C110.776 85.0805 110.508 85.1278 110.191 85.1278ZM110.318 84.375C110.65 84.375 110.929 84.3099 111.156 84.1797C111.386 84.0495 111.559 83.8814 111.675 83.6754C111.793 83.4695 111.852 83.2528 111.852 83.0256V82.2585C111.817 82.3011 111.739 82.3402 111.618 82.3757C111.5 82.4089 111.362 82.4384 111.206 82.4645C111.052 82.4882 110.902 82.5095 110.755 82.5284C110.611 82.545 110.494 82.5592 110.404 82.571C110.186 82.5994 109.982 82.6456 109.793 82.7095C109.606 82.7711 109.454 82.8646 109.338 82.9901C109.225 83.1132 109.168 83.2812 109.168 83.4943C109.168 83.7855 109.276 84.0057 109.491 84.1548C109.709 84.3016 109.985 84.375 110.318 84.375ZM119.092 85.1136C118.638 85.1136 118.237 84.9988 117.888 84.7692C117.54 84.5372 117.268 84.2105 117.072 83.7891C116.875 83.3653 116.777 82.8646 116.777 82.2869C116.777 81.714 116.875 81.2169 117.072 80.7955C117.268 80.3741 117.542 80.0485 117.892 79.8189C118.242 79.5893 118.647 79.4744 119.107 79.4744C119.462 79.4744 119.742 79.5336 119.948 79.652C120.156 79.768 120.315 79.9006 120.424 80.0497C120.535 80.1965 120.622 80.3172 120.683 80.4119H120.754V77.7273H121.592V85H120.783V84.1619H120.683C120.622 84.2614 120.534 84.3868 120.42 84.5384C120.307 84.6875 120.145 84.8213 119.934 84.9396C119.723 85.0556 119.443 85.1136 119.092 85.1136ZM119.206 84.3608C119.542 84.3608 119.826 84.2732 120.058 84.098C120.29 83.9205 120.467 83.6754 120.587 83.3629C120.708 83.0481 120.768 82.6847 120.768 82.2727C120.768 81.8655 120.709 81.5092 120.591 81.2038C120.473 80.8961 120.297 80.657 120.065 80.4865C119.833 80.3137 119.547 80.2273 119.206 80.2273C118.851 80.2273 118.555 80.3184 118.318 80.5007C118.084 80.6806 117.907 80.9257 117.789 81.2358C117.673 81.5436 117.615 81.8892 117.615 82.2727C117.615 82.661 117.674 83.0137 117.793 83.331C117.913 83.6458 118.091 83.8968 118.325 84.0838C118.562 84.2685 118.856 84.3608 119.206 84.3608ZM123.244 85V79.5455H124.082V85H123.244ZM123.67 78.6364C123.506 78.6364 123.366 78.5807 123.247 78.4695C123.131 78.3582 123.073 78.2244 123.073 78.0682C123.073 77.9119 123.131 77.7782 123.247 77.6669C123.366 77.5556 123.506 77.5 123.67 77.5C123.833 77.5 123.973 77.5556 124.089 77.6669C124.207 77.7782 124.266 77.9119 124.266 78.0682C124.266 78.2244 124.207 78.3582 124.089 78.4695C123.973 78.5807 123.833 78.6364 123.67 78.6364ZM129.48 80.767L128.727 80.9801C128.68 80.8546 128.61 80.7327 128.518 80.6143C128.428 80.4936 128.305 80.3942 128.149 80.3161C127.992 80.2379 127.792 80.1989 127.548 80.1989C127.215 80.1989 126.936 80.2758 126.714 80.4297C126.494 80.5812 126.384 80.7741 126.384 81.0085C126.384 81.2169 126.459 81.3814 126.611 81.5021C126.762 81.6229 126.999 81.7235 127.321 81.804L128.131 82.0028C128.619 82.1212 128.982 82.3023 129.221 82.5462C129.46 82.7876 129.58 83.099 129.58 83.4801C129.58 83.7926 129.49 84.072 129.31 84.3182C129.132 84.5644 128.884 84.7585 128.564 84.9006C128.244 85.0426 127.873 85.1136 127.449 85.1136C126.893 85.1136 126.432 84.9929 126.068 84.7514C125.703 84.5099 125.472 84.1572 125.375 83.6932L126.171 83.4943C126.246 83.7879 126.39 84.008 126.6 84.1548C126.813 84.3016 127.092 84.375 127.435 84.375C127.825 84.375 128.136 84.2921 128.365 84.1264C128.597 83.9583 128.713 83.7571 128.713 83.5227C128.713 83.3333 128.647 83.1747 128.514 83.0469C128.382 82.9167 128.178 82.8196 127.904 82.7557L126.994 82.5426C126.495 82.4242 126.128 82.2408 125.894 81.9922C125.662 81.7412 125.546 81.4276 125.546 81.0511C125.546 80.7434 125.632 80.4711 125.805 80.2344C125.98 79.9976 126.218 79.8118 126.519 79.6768C126.822 79.5419 127.165 79.4744 127.548 79.4744C128.088 79.4744 128.512 79.5928 128.82 79.8295C129.13 80.0663 129.35 80.3788 129.48 80.767ZM133.057 85.1136C132.546 85.1136 132.105 84.9929 131.736 84.7514C131.367 84.5099 131.083 84.1773 130.884 83.7536C130.685 83.3298 130.586 82.8456 130.586 82.3011C130.586 81.7472 130.687 81.2583 130.891 80.8345C131.097 80.4084 131.383 80.0758 131.75 79.8366C132.12 79.5952 132.551 79.4744 133.043 79.4744C133.426 79.4744 133.772 79.5455 134.08 79.6875C134.388 79.8295 134.64 80.0284 134.836 80.2841C135.033 80.5398 135.155 80.8381 135.202 81.179H134.364C134.3 80.9304 134.158 80.7102 133.938 80.5185C133.72 80.3243 133.426 80.2273 133.057 80.2273C132.73 80.2273 132.444 80.3125 132.198 80.483C131.954 80.651 131.763 80.889 131.626 81.1967C131.491 81.5021 131.424 81.8608 131.424 82.2727C131.424 82.6941 131.49 83.0611 131.623 83.3736C131.757 83.6861 131.947 83.9287 132.191 84.1016C132.437 84.2744 132.726 84.3608 133.057 84.3608C133.275 84.3608 133.473 84.3229 133.65 84.2472C133.828 84.1714 133.978 84.0625 134.101 83.9205C134.224 83.7784 134.312 83.608 134.364 83.4091H135.202C135.155 83.7311 135.038 84.0211 134.85 84.2791C134.666 84.5348 134.421 84.7384 134.115 84.8899C133.812 85.0391 133.46 85.1136 133.057 85.1136ZM138.643 85.1136C138.151 85.1136 137.719 84.9964 137.347 84.7621C136.978 84.5277 136.689 84.1998 136.48 83.7784C136.275 83.357 136.172 82.8646 136.172 82.3011C136.172 81.733 136.275 81.237 136.48 80.8132C136.689 80.3894 136.978 80.0604 137.347 79.826C137.719 79.5916 138.151 79.4744 138.643 79.4744C139.136 79.4744 139.566 79.5916 139.936 79.826C140.307 80.0604 140.596 80.3894 140.802 80.8132C141.011 81.237 141.115 81.733 141.115 82.3011C141.115 82.8646 141.011 83.357 140.802 83.7784C140.596 84.1998 140.307 84.5277 139.936 84.7621C139.566 84.9964 139.136 85.1136 138.643 85.1136ZM138.643 84.3608C139.017 84.3608 139.325 84.2649 139.566 84.0732C139.808 83.8814 139.987 83.6293 140.103 83.3168C140.219 83.0043 140.277 82.6657 140.277 82.3011C140.277 81.9366 140.219 81.5968 140.103 81.282C139.987 80.9671 139.808 80.7126 139.566 80.5185C139.325 80.3243 139.017 80.2273 138.643 80.2273C138.269 80.2273 137.961 80.3243 137.72 80.5185C137.478 80.7126 137.3 80.9671 137.184 81.282C137.068 81.5968 137.01 81.9366 137.01 82.3011C137.01 82.6657 137.068 83.0043 137.184 83.3168C137.3 83.6293 137.478 83.8814 137.72 84.0732C137.961 84.2649 138.269 84.3608 138.643 84.3608ZM145.831 82.7699V79.5455H146.67V85H145.831V84.0767H145.775C145.647 84.3537 145.448 84.5893 145.178 84.7834C144.908 84.9751 144.567 85.071 144.155 85.071C143.814 85.071 143.511 84.9964 143.246 84.8473C142.981 84.6958 142.773 84.4685 142.621 84.1655C142.47 83.8601 142.394 83.4754 142.394 83.0114V79.5455H143.232V82.9545C143.232 83.3523 143.343 83.6695 143.566 83.9062C143.791 84.143 144.077 84.2614 144.425 84.2614C144.634 84.2614 144.845 84.2081 145.061 84.1016C145.279 83.995 145.461 83.8317 145.608 83.6115C145.757 83.3913 145.831 83.1108 145.831 82.7699ZM149.043 81.7188V85H148.205V79.5455H149.014V80.3977H149.085C149.213 80.1207 149.407 79.8982 149.668 79.7301C149.928 79.5597 150.264 79.4744 150.676 79.4744C151.045 79.4744 151.369 79.5502 151.646 79.7017C151.923 79.8509 152.138 80.0781 152.292 80.3835C152.446 80.6866 152.523 81.0701 152.523 81.5341V85H151.685V81.5909C151.685 81.1624 151.573 80.8286 151.351 80.5895C151.128 80.348 150.823 80.2273 150.435 80.2273C150.167 80.2273 149.928 80.2853 149.717 80.4013C149.509 80.5173 149.344 80.6866 149.224 80.9091C149.103 81.1316 149.043 81.4015 149.043 81.7188ZM156.426 79.5455V80.2557H153.6V79.5455H156.426ZM154.423 78.2386H155.262V83.4375C155.262 83.6742 155.296 83.8518 155.365 83.9702C155.436 84.0862 155.526 84.1643 155.634 84.2045C155.746 84.2424 155.863 84.2614 155.986 84.2614C156.078 84.2614 156.154 84.2566 156.213 84.2472C156.272 84.2353 156.32 84.2259 156.355 84.2188L156.526 84.9716C156.469 84.9929 156.39 85.0142 156.288 85.0355C156.186 85.0592 156.057 85.071 155.901 85.071C155.664 85.071 155.432 85.0201 155.205 84.9183C154.98 84.8165 154.793 84.6615 154.644 84.4531C154.497 84.2448 154.423 83.982 154.423 83.6648V78.2386ZM158.298 85.0568C158.123 85.0568 157.972 84.9941 157.847 84.8686C157.721 84.7431 157.659 84.5928 157.659 84.4176C157.659 84.2424 157.721 84.0921 157.847 83.9666C157.972 83.8411 158.123 83.7784 158.298 83.7784C158.473 83.7784 158.623 83.8411 158.749 83.9666C158.874 84.0921 158.937 84.2424 158.937 84.4176C158.937 84.5336 158.907 84.6402 158.848 84.7372C158.791 84.8343 158.714 84.9124 158.617 84.9716C158.523 85.0284 158.416 85.0568 158.298 85.0568Z" fill="#A78BFA" fill-opacity="0.8"/>
<rect y="24" width="191.2" height="42" rx="21" fill="black"/>
<rect x="0.5" y="24.5" width="190.2" height="41" rx="20.5" stroke="white" stroke-opacity="0.1"/>
<path d="M26.2782 39.8182H28.1425L31.384 47.733H31.5033L34.7448 39.8182H36.6092V50H35.1475V42.6321H35.053L32.0502 49.9851H30.8371L27.8343 42.6271H27.7398V50H26.2782V39.8182ZM41.9399 50.1541C41.224 50.1541 40.5993 49.9901 40.0657 49.6619C39.532 49.3338 39.1177 48.8748 38.8228 48.2848C38.5278 47.6948 38.3803 47.0054 38.3803 46.2166C38.3803 45.4245 38.5278 44.7318 38.8228 44.1385C39.1177 43.5452 39.532 43.0845 40.0657 42.7564C40.5993 42.4283 41.224 42.2642 41.9399 42.2642C42.6558 42.2642 43.2806 42.4283 43.8142 42.7564C44.3478 43.0845 44.7621 43.5452 45.0571 44.1385C45.3521 44.7318 45.4996 45.4245 45.4996 46.2166C45.4996 47.0054 45.3521 47.6948 45.0571 48.2848C44.7621 48.8748 44.3478 49.3338 43.8142 49.6619C43.2806 49.9901 42.6558 50.1541 41.9399 50.1541ZM41.9449 48.9062C42.4089 48.9062 42.7934 48.7836 43.0983 48.5384C43.4032 48.2931 43.6286 47.9666 43.7745 47.5589C43.9236 47.1513 43.9982 46.7022 43.9982 46.2116C43.9982 45.7244 43.9236 45.277 43.7745 44.8693C43.6286 44.4583 43.4032 44.1286 43.0983 43.88C42.7934 43.6314 42.4089 43.5071 41.9449 43.5071C41.4776 43.5071 41.0898 43.6314 40.7816 43.88C40.4766 44.1286 40.2496 44.4583 40.1005 44.8693C39.9546 45.277 39.8817 45.7244 39.8817 46.2116C39.8817 46.7022 39.9546 47.1513 40.1005 47.5589C40.2496 47.9666 40.4766 48.2931 40.7816 48.5384C41.0898 48.7836 41.4776 48.9062 41.9449 48.9062ZM48.6454 45.4659V50H47.1589V42.3636H48.5857V43.6065H48.6802C48.8558 43.2022 49.1309 42.8774 49.5055 42.6321C49.8833 42.3868 50.3589 42.2642 50.9323 42.2642C51.4527 42.2642 51.9084 42.3736 52.2995 42.5923C52.6906 42.8078 52.9939 43.1293 53.2093 43.5568C53.4247 43.9844 53.5324 44.513 53.5324 45.1428V50H52.0459V45.3217C52.0459 44.7682 51.9018 44.3357 51.6134 44.0241C51.3251 43.7093 50.929 43.5518 50.4252 43.5518C50.0805 43.5518 49.7739 43.6264 49.5055 43.7756C49.2403 43.9247 49.0298 44.1435 48.8741 44.4318C48.7216 44.7169 48.6454 45.0616 48.6454 45.4659ZM59.0907 42.3636V43.5568H54.9195V42.3636H59.0907ZM56.0381 40.5341H57.5246V47.7578C57.5246 48.0462 57.5677 48.2633 57.6539 48.4091C57.7401 48.5516 57.8511 48.6494 57.987 48.7024C58.1262 48.7521 58.277 48.777 58.4394 48.777C58.5587 48.777 58.6631 48.7687 58.7526 48.7521C58.8421 48.7356 58.9117 48.7223 58.9614 48.7124L59.2299 49.9403C59.1437 49.9735 59.0211 50.0066 58.862 50.0398C58.7029 50.0762 58.504 50.0961 58.2654 50.0994C57.8743 50.1061 57.5097 50.0365 57.1717 49.8906C56.8336 49.7448 56.5601 49.5194 56.3513 49.2145C56.1425 48.9096 56.0381 48.5268 56.0381 48.0661V40.5341ZM62.3856 45.4659V50H60.8991V39.8182H62.3657V43.6065H62.4602C62.6392 43.1955 62.9126 42.8691 63.2805 42.6271C63.6484 42.3852 64.129 42.2642 64.7223 42.2642C65.2459 42.2642 65.7033 42.3719 66.0944 42.5874C66.4888 42.8028 66.7938 43.1243 67.0092 43.5518C67.2279 43.9761 67.3373 44.5064 67.3373 45.1428V50H65.8508V45.3217C65.8508 44.7616 65.7066 44.3274 65.4183 44.0192C65.1299 43.7076 64.7289 43.5518 64.2152 43.5518C63.8638 43.5518 63.549 43.6264 63.2705 43.7756C62.9955 43.9247 62.7784 44.1435 62.6193 44.4318C62.4635 44.7169 62.3856 45.0616 62.3856 45.4659ZM70.8075 39.8182V50H69.321V39.8182H70.8075ZM73.7469 52.8636C73.5249 52.8636 73.3227 52.8454 73.1404 52.8089C72.9581 52.7758 72.8222 52.7393 72.7327 52.6996L73.0907 51.4815C73.3625 51.5545 73.6044 51.5859 73.8165 51.576C74.0287 51.5661 74.2159 51.4865 74.3783 51.3374C74.544 51.1882 74.6899 50.9446 74.8158 50.6065L74.9998 50.0994L72.2057 42.3636H73.7967L75.7306 48.2898H75.8101L77.7441 42.3636H79.34L76.193 51.0192C76.0471 51.4169 75.8615 51.7533 75.6361 52.0284C75.4108 52.3068 75.1423 52.5156 74.8307 52.6548C74.5192 52.794 74.1579 52.8636 73.7469 52.8636Z" fill="#9CA3AF"/>
<g filter="url(#filter0_d_177_1558)">
<rect x="99.5303" y="29" width="86.67" height="32" rx="16" fill="white" fill-opacity="0.1" shape-rendering="crispEdges"/>
<path d="M121.855 50H120.224L123.889 39.8182H125.663L129.327 50H127.697L124.818 41.6676H124.739L121.855 50ZM122.129 46.0128H127.418V47.3054H122.129V46.0128ZM132.165 45.4659V50H130.679V42.3636H132.105V43.6065H132.2C132.375 43.2022 132.651 42.8774 133.025 42.6321C133.403 42.3868 133.879 42.2642 134.452 42.2642C134.972 42.2642 135.428 42.3736 135.819 42.5923C136.21 42.8078 136.513 43.1293 136.729 43.5568C136.944 43.9844 137.052 44.513 137.052 45.1428V50H135.566V45.3217C135.566 44.7682 135.421 44.3357 135.133 44.0241C134.845 43.7093 134.449 43.5518 133.945 43.5518C133.6 43.5518 133.294 43.6264 133.025 43.7756C132.76 43.9247 132.549 44.1435 132.394 44.4318C132.241 44.7169 132.165 45.0616 132.165 45.4659ZM140.532 45.4659V50H139.046V42.3636H140.473V43.6065H140.567C140.743 43.2022 141.018 42.8774 141.392 42.6321C141.77 42.3868 142.246 42.2642 142.819 42.2642C143.339 42.2642 143.795 42.3736 144.186 42.5923C144.577 42.8078 144.881 43.1293 145.096 43.5568C145.312 43.9844 145.419 44.513 145.419 45.1428V50H143.933V45.3217C143.933 44.7682 143.789 44.3357 143.5 44.0241C143.212 43.7093 142.816 43.5518 142.312 43.5518C141.967 43.5518 141.661 43.6264 141.392 43.7756C141.127 43.9247 140.917 44.1435 140.761 44.4318C140.608 44.7169 140.532 45.0616 140.532 45.4659ZM152.25 46.8331V42.3636H153.742V50H152.28V48.6776H152.201C152.025 49.0852 151.743 49.425 151.355 49.6967C150.971 49.9652 150.492 50.0994 149.919 50.0994C149.428 50.0994 148.994 49.9917 148.616 49.7763C148.241 49.5575 147.946 49.2344 147.731 48.8068C147.519 48.3793 147.413 47.8506 147.413 47.2209V42.3636H148.899V47.0419C148.899 47.5623 149.044 47.9766 149.332 48.2848C149.62 48.593 149.995 48.7472 150.455 48.7472C150.734 48.7472 151.011 48.6776 151.286 48.5384C151.564 48.3991 151.795 48.1887 151.977 47.907C152.162 47.6252 152.254 47.2673 152.25 46.8331ZM157.961 50.169C157.477 50.169 157.04 50.0795 156.649 49.9006C156.258 49.7183 155.948 49.4548 155.719 49.1101C155.494 48.7654 155.381 48.3428 155.381 47.8423C155.381 47.4115 155.464 47.0568 155.63 46.7784C155.795 46.5 156.019 46.2796 156.301 46.1172C156.583 45.9548 156.897 45.8321 157.245 45.7493C157.593 45.6664 157.948 45.6035 158.309 45.5604C158.767 45.5073 159.138 45.4643 159.423 45.4311C159.708 45.3946 159.915 45.3366 160.044 45.2571C160.174 45.1776 160.238 45.0483 160.238 44.8693V44.8345C160.238 44.4003 160.116 44.0639 159.87 43.8253C159.628 43.5866 159.267 43.4673 158.787 43.4673C158.286 43.4673 157.892 43.5784 157.603 43.8004C157.318 44.0192 157.121 44.2628 157.012 44.5312L155.615 44.2131C155.78 43.7491 156.022 43.3745 156.341 43.0895C156.662 42.8011 157.032 42.5923 157.449 42.4631C157.867 42.3305 158.306 42.2642 158.767 42.2642C159.072 42.2642 159.395 42.3007 159.736 42.3736C160.081 42.4432 160.402 42.5724 160.701 42.7614C161.002 42.9503 161.249 43.2204 161.441 43.5717C161.634 43.9197 161.73 44.3722 161.73 44.929V50H160.278V48.956H160.218C160.122 49.1482 159.978 49.3371 159.786 49.5227C159.594 49.7083 159.347 49.8625 159.045 49.9851C158.744 50.1077 158.382 50.169 157.961 50.169ZM158.285 48.9759C158.695 48.9759 159.047 48.8946 159.338 48.7322C159.633 48.5698 159.857 48.3577 160.01 48.0959C160.165 47.8307 160.243 47.5473 160.243 47.2457V46.2614C160.19 46.3144 160.088 46.3641 159.935 46.4105C159.786 46.4536 159.615 46.4917 159.423 46.5249C159.231 46.5547 159.043 46.5829 158.861 46.6094C158.679 46.6326 158.526 46.6525 158.404 46.669C158.115 46.7055 157.852 46.7668 157.613 46.853C157.378 46.9392 157.189 47.0634 157.047 47.2259C156.907 47.3849 156.838 47.5971 156.838 47.8622C156.838 48.2301 156.974 48.5085 157.245 48.6974C157.517 48.883 157.864 48.9759 158.285 48.9759ZM165.196 39.8182V50H163.71V39.8182H165.196Z" fill="#FAFAFA"/>
</g>
<defs>
<filter id="filter0_d_177_1558" x="97.5303" y="28" width="90.6699" height="36" filterUnits="userSpaceOnUse" color-interpolation-filters="sRGB">
<feFlood flood-opacity="0" result="BackgroundImageFix"/>
<feColorMatrix in="SourceAlpha" type="matrix" values="0 0 0 0 0 0 0 0 0 0 0 0 0 0 0 0 0 0 127 0" result="hardAlpha"/>
<feOffset dy="1"/>
<feGaussianBlur stdDeviation="1"/>
<feComposite in2="hardAlpha" operator="out"/>
<feColorMatrix type="matrix" values="0 0 0 0 0 0 0 0 0 0 0 0 0 0 0 0 0 0 0.05 0"/>
<feBlend mode="normal" in2="BackgroundImageFix" result="effect1_dropShadow_177_1558"/>
<feBlend mode="normal" in="SourceGraphic" in2="effect1_dropShadow_177_1558" result="shape"/>
</filter>
</defs>
</svg>
