<svg width="43" height="28" viewBox="0 0 43 28" fill="none" xmlns="http://www.w3.org/2000/svg">
<g clip-path="url(#clip0_30_166)">
<path d="M12.2789 -3.05139e-05C13.4301 -3.05139e-05 14.5813 0.109773 15.6776 0.32938C16.6095 0.548988 17.4865 0.933301 18.3088 1.48232C19.0214 2.03134 19.6244 2.74507 20.0081 3.5686C20.4466 4.61173 20.6659 5.70977 20.6111 6.80781C20.6659 8.01566 20.337 9.2235 19.734 10.2666C19.0762 11.2549 18.1443 12.0235 17.1028 12.5176C18.5829 12.9019 19.8437 13.8353 20.6659 15.0431C21.4882 16.3608 21.8719 17.898 21.8719 19.4353C21.8719 20.698 21.6526 21.9058 21.1044 23.0039C20.6111 23.9921 19.8985 24.8157 19.0762 25.5294C18.1992 26.1882 17.1576 26.6823 16.1161 26.9568C15.0198 27.2862 13.8686 27.396 12.7175 27.396H0V-0.0549316H12.2789V-3.05139e-05ZM11.5115 11.0902C12.3886 11.1451 13.3205 10.8706 14.0331 10.3215C14.7457 9.71762 15.1294 8.78428 15.0198 7.79605C15.0198 7.24703 14.9102 6.69801 14.6909 6.20389C14.4716 5.81958 14.1975 5.49017 13.8138 5.27056C13.4301 5.05095 12.9916 4.83134 12.553 4.77644C12.0597 4.66663 11.5663 4.66664 11.073 4.66664H5.70094V11.0902H11.5115ZM11.8404 22.8392C12.3886 22.8392 12.9367 22.7843 13.4301 22.6745C13.9235 22.5647 14.362 22.3451 14.8005 22.0706C15.1842 21.796 15.5131 21.4117 15.7324 20.9725C16.0065 20.4235 16.1161 19.8196 16.0613 19.2157C16.1709 18.0627 15.7324 16.9647 14.9102 16.196C14.0331 15.5372 12.9916 15.2627 11.8952 15.3176H5.70094V22.8941H11.8404V22.8392Z" fill="#191919"/>
<path d="M29.9848 22.7294C30.9167 23.5529 32.1226 23.9921 33.3286 23.9372C34.3153 23.9372 35.2472 23.6627 36.0146 23.1137C36.6724 22.6745 37.111 22.0705 37.385 21.3568H41.9348C41.4415 23.3882 40.2355 25.1999 38.591 26.4627C37.0013 27.5607 35.0827 28.0549 33.1093 28C31.7389 28 30.3685 27.7803 29.0529 27.2313C27.9017 26.7372 26.8602 26.0235 26.038 25.0901C25.2157 24.1019 24.5579 23.0039 24.1194 21.796C23.626 20.4235 23.4068 18.996 23.4616 17.5686C23.4616 16.1411 23.6809 14.7686 24.1742 13.396C25.4898 9.55289 29.1077 6.9725 33.1642 7.0274C34.6442 6.9725 36.0694 7.35681 37.385 8.01564C38.5362 8.67446 39.5777 9.55289 40.3451 10.6509C41.1126 11.8039 41.7156 13.0666 41.9896 14.4392C42.3185 15.8666 42.4282 17.4039 42.3734 18.8862H28.7788C28.6144 20.2588 29.0529 21.6313 29.9848 22.7294ZM35.905 12.2431C35.1376 11.4745 34.096 11.0901 32.9997 11.1451C32.2871 11.1451 31.5745 11.2549 30.9715 11.5843C30.4781 11.8588 30.0396 12.2431 29.6559 12.6823C29.327 13.1215 29.1077 13.5607 28.9433 14.1098C28.8336 14.549 28.724 14.9882 28.724 15.4274H37.1658C37.0561 14.2745 36.6176 13.1764 35.905 12.2431Z" fill="#191919"/>
<path d="M38.1525 1.81171H27.6277V4.5019H38.1525V1.81171Z" fill="#191919"/>
</g>
<defs>
<clipPath id="clip0_30_166">
<rect width="42.3733" height="28" fill="white"/>
</clipPath>
</defs>
</svg>
