<svg width="28" height="28" viewBox="0 0 28 28" fill="none" xmlns="http://www.w3.org/2000/svg">
<g clip-path="url(#clip0_30_181)">
<path fill-rule="evenodd" clip-rule="evenodd" d="M0 13.9975C0 6.27073 6.26618 0 14 0C21.7344 0 28 6.27637 28 14.0025C28 21.7293 21.7338 28 14 28H12.8644V27.9495C5.66646 27.371 0 21.3423 0 13.9975ZM14.3482 25.7241C20.6659 25.5399 25.7288 20.3594 25.7288 14.0025C25.7288 7.52872 20.4783 2.2708 14 2.2708C7.52115 2.2708 2.27121 7.52426 2.27121 13.9975C2.27121 20.4704 7.52592 25.7241 14 25.7241H14.3482Z" fill="#060318"/>
<path fill-rule="evenodd" clip-rule="evenodd" d="M8.33195 3.74082C8.17625 3.69182 8.01485 3.64103 7.84668 3.58399L8.57643 1.43359C8.64346 1.45634 8.76416 1.49483 8.90508 1.53976C9.15826 1.62049 9.47667 1.72202 9.66633 1.79041L9.67652 1.79408L9.68663 1.79795C9.73852 1.81779 9.79412 1.83882 9.85244 1.86088C10.1462 1.97199 10.5087 2.10907 10.8114 2.25064L10.8249 2.25693L10.8849 2.28692C11.0273 2.35334 11.2412 2.4553 11.4194 2.54022C11.5194 2.5879 11.6082 2.63021 11.6668 2.65784L11.6938 2.67063L11.7202 2.68484C11.7263 2.68814 11.7336 2.69199 11.7417 2.69635C11.8031 2.72922 11.9176 2.79048 12.0274 2.8576L12.0576 2.87602L12.0661 2.88199C12.0785 2.8892 12.0955 2.89883 12.1165 2.91051C12.1348 2.92072 12.1524 2.93043 12.1701 2.94013C12.1735 2.94203 12.177 2.94394 12.1804 2.94585C12.1901 2.95119 12.2012 2.95728 12.2111 2.96281L12.2118 2.9632C12.2168 2.966 12.2297 2.97316 12.2445 2.98183C12.2579 2.98954 12.2786 3.00131 12.3044 3.01605C12.3833 3.06112 12.511 3.13394 12.6294 3.20332C12.7515 3.2748 12.9378 3.38489 13.0756 3.48153C13.2233 3.57222 13.3857 3.68469 13.4938 3.75957C13.5133 3.77306 13.531 3.78533 13.5465 3.79604C13.6296 3.84665 13.711 3.90404 13.7676 3.94462C13.8487 4.00267 13.9369 4.06844 14.0173 4.12891C14.0545 4.15684 14.0884 4.18247 14.1205 4.2067C14.1632 4.23891 14.2025 4.26864 14.2418 4.298C14.2742 4.32225 14.3012 4.34223 14.3229 4.35806C14.3337 4.36588 14.3421 4.37189 14.3484 4.37634C14.3538 4.38014 14.3563 4.38185 14.3565 4.38194L14.386 4.40167L14.4146 4.42337C15.6679 5.37812 16.7841 6.49983 17.7367 7.75003L17.7376 7.75117L17.7385 7.75235C18.7917 9.14181 19.6232 10.6842 20.1998 12.3256C21.9179 17.1246 21.4127 22.6687 18.7123 27.0452L16.7793 25.8529C19.1065 22.0813 19.5545 17.2584 18.0605 13.0881L18.0592 13.0846L18.0581 13.0812C17.5603 11.6635 16.8415 10.3289 15.9292 9.12492C15.1037 8.04197 14.1397 7.07212 13.061 6.24713C13.0013 6.20574 12.9352 6.15661 12.8811 6.11614C12.8401 6.08552 12.792 6.04921 12.7445 6.01337C12.7126 5.98931 12.6811 5.96551 12.6522 5.94381C12.5743 5.88519 12.5034 5.83247 12.4448 5.79047C12.3925 5.75302 12.3707 5.73919 12.3709 5.73897C12.3707 5.73889 12.3709 5.73897 12.3709 5.73897L12.3374 5.72007L12.2979 5.69334C12.2399 5.65397 12.1883 5.61822 12.1409 5.58546C12.037 5.51353 11.9537 5.45591 11.8692 5.40577L11.8139 5.37292L11.7627 5.33407C11.7658 5.33647 11.7656 5.33634 11.7611 5.33332C11.7527 5.32772 11.7293 5.31219 11.6856 5.28502C11.6279 5.24928 11.5572 5.20706 11.4816 5.16279C11.3745 5.10005 11.2769 5.04436 11.1996 5.0003C11.1636 4.97974 11.132 4.96171 11.106 4.94671L11.1036 4.94535C11.0997 4.94316 11.0938 4.93988 11.085 4.93502C11.0823 4.93354 11.0793 4.93192 11.0761 4.93017C11.0586 4.92054 11.0352 4.90764 11.0113 4.89438C10.9834 4.87885 10.9496 4.85977 10.9166 4.84048C10.8986 4.82994 10.865 4.81016 10.8274 4.78575C10.7811 4.75819 10.7315 4.73154 10.6724 4.69982C10.6716 4.69934 10.6707 4.69886 10.6698 4.69838C10.5992 4.66496 10.5112 4.62304 10.4179 4.57851C10.2423 4.49477 10.0474 4.40189 9.91221 4.33899L9.89764 4.33222L9.83652 4.30167C9.6221 4.20226 9.36537 4.10494 9.07785 3.99593C9.01533 3.97223 8.95137 3.94798 8.88605 3.92303C8.70882 3.85942 8.52476 3.8015 8.33195 3.74082ZM11.106 4.94671C11.1072 4.94741 11.108 4.9478 11.108 4.9478L11.106 4.94671ZM11.106 4.94671C11.1072 4.94741 11.108 4.9478 11.108 4.9478L11.106 4.94671Z" fill="#060318"/>
<path fill-rule="evenodd" clip-rule="evenodd" d="M13.1142 9.14509C16.5417 8.52625 19.7046 6.60378 21.8678 3.86731L23.6497 5.2754C21.1498 8.43778 17.5004 10.6607 13.5175 11.3798C11.5344 11.7374 9.49652 11.7495 7.50756 11.3848C5.52402 11.0313 3.61001 10.3192 1.87891 9.27962L3.04833 7.33301C4.54004 8.22879 6.19331 8.84431 7.90883 9.14973L7.91181 9.15025L7.91478 9.15082C9.62501 9.46468 11.3881 9.45628 13.1142 9.14509Z" fill="#060318"/>
<path fill-rule="evenodd" clip-rule="evenodd" d="M7.04639 25.5111C8.98539 15.617 19.0686 10.1527 27.3151 12.4003L26.7177 14.5912C19.7175 12.6833 10.9553 17.3749 9.27523 25.9477L7.04639 25.5111Z" fill="#060318"/>
</g>
<defs>
<clipPath id="clip0_30_181">
<rect width="28" height="28" fill="white"/>
</clipPath>
</defs>
</svg>
