<svg width="56" height="56" viewBox="0 0 56 56" fill="none" xmlns="http://www.w3.org/2000/svg">
<circle cx="28" cy="28" r="28" fill="#E6E7EB" style="mix-blend-mode:luminosity"/>
<circle cx="28" cy="28" r="28" fill="#E6E7EB" fill-opacity="0.68"/>
<circle cx="28" cy="28" r="24.5" fill="#E6E7EB" style="mix-blend-mode:luminosity"/>
<circle cx="28" cy="28" r="24.5" fill="#EEEEEE"/>
<circle cx="28" cy="28" r="24.5" stroke="#2C2C2E" stroke-width="3"/>
<circle cx="28" cy="28" r="24.5" stroke="black" stroke-width="3"/>
<path d="M25.8834 19.9628L23.7833 35.4456L31.5249 35.104" stroke="black" stroke-width="3" stroke-linecap="round"/>
<mask id="path-4-inside-1_265_1699" fill="white">
<ellipse cx="20.7311" cy="15.7305" rx="2.96154" ry="3.5"/>
</mask>
<ellipse cx="20.7311" cy="15.7305" rx="2.96154" ry="3.5" fill="black"/>
<path d="M23.6926 15.7305L20.6926 15.7305C20.6926 16.0194 20.5924 16.1998 20.535 16.2675C20.5088 16.2985 20.5056 16.2905 20.5425 16.272C20.5842 16.2512 20.652 16.2305 20.7311 16.2305V19.2305V22.2305C24.4738 22.2305 26.6926 18.831 26.6926 15.7305L23.6926 15.7305ZM20.7311 19.2305V16.2305C20.8102 16.2305 20.878 16.2512 20.9197 16.272C20.9566 16.2905 20.9534 16.2985 20.9271 16.2675C20.8698 16.1998 20.7695 16.0194 20.7695 15.7305L17.7695 15.7305L14.7695 15.7305C14.7695 18.831 16.9884 22.2305 20.7311 22.2305V19.2305ZM17.7695 15.7305L20.7695 15.7305C20.7695 15.4415 20.8698 15.2612 20.9271 15.1934C20.9534 15.1624 20.9566 15.1705 20.9197 15.1889C20.878 15.2098 20.8102 15.2305 20.7311 15.2305V12.2305V9.23047C16.9884 9.23047 14.7695 12.6299 14.7695 15.7305L17.7695 15.7305ZM20.7311 12.2305V15.2305C20.652 15.2305 20.5842 15.2098 20.5425 15.1889C20.5056 15.1705 20.5088 15.1624 20.535 15.1934C20.5924 15.2612 20.6926 15.4415 20.6926 15.7305L23.6926 15.7305L26.6926 15.7305C26.6926 12.6299 24.4738 9.23047 20.7311 9.23047V12.2305Z" fill="black" mask="url(#path-4-inside-1_265_1699)"/>
<mask id="path-6-inside-2_265_1699" fill="white">
<ellipse cx="39.0397" cy="15.1914" rx="2.96154" ry="3.5"/>
</mask>
<ellipse cx="39.0397" cy="15.1914" rx="2.96154" ry="3.5" fill="black"/>
<path d="M42.0012 15.1914L39.0012 15.1914C39.0012 15.4804 38.901 15.6607 38.8436 15.7285C38.8174 15.7595 38.8142 15.7514 38.8511 15.7329C38.8928 15.7121 38.9606 15.6914 39.0397 15.6914V18.6914V21.6914C42.7824 21.6914 45.0012 18.2919 45.0012 15.1914L42.0012 15.1914ZM39.0397 18.6914V15.6914C39.1188 15.6914 39.1866 15.7121 39.2283 15.7329C39.2652 15.7514 39.262 15.7595 39.2357 15.7285C39.1784 15.6607 39.0781 15.4804 39.0781 15.1914L36.0781 15.1914L33.0781 15.1914C33.0781 18.2919 35.297 21.6914 39.0397 21.6914V18.6914ZM36.0781 15.1914L39.0781 15.1914C39.0781 14.9025 39.1784 14.7221 39.2357 14.6544C39.262 14.6233 39.2652 14.6314 39.2283 14.6499C39.1866 14.6707 39.1188 14.6914 39.0397 14.6914V11.6914V8.69141C35.297 8.69141 33.0781 12.0909 33.0781 15.1914L36.0781 15.1914ZM39.0397 11.6914V14.6914C38.9606 14.6914 38.8928 14.6707 38.8511 14.6499C38.8142 14.6314 38.8174 14.6233 38.8436 14.6544C38.901 14.7221 39.0012 14.9025 39.0012 15.1914L42.0012 15.1914L45.0012 15.1914C45.0012 12.0909 42.7824 8.69141 39.0397 8.69141V11.6914Z" fill="black" mask="url(#path-6-inside-2_265_1699)"/>
</svg>
