<svg width="56" height="56" viewBox="0 0 56 56" fill="none" xmlns="http://www.w3.org/2000/svg">
<circle cx="28" cy="28" r="28" fill="#E6E7EB" style="mix-blend-mode:luminosity"/>
<circle cx="28" cy="28" r="28" fill="#E6E7EB" fill-opacity="0.68"/>
<circle cx="28" cy="28" r="24.5" fill="#E6E7EB" style="mix-blend-mode:luminosity"/>
<circle cx="28" cy="28" r="24.5" fill="#EEEEEE"/>
<circle cx="28" cy="28" r="24.5" stroke="#2C2C2E" stroke-width="3"/>
<circle cx="28" cy="28" r="24.5" stroke="black" stroke-width="3"/>
<path d="M25.8834 19.9628L23.7833 35.4456L31.5249 35.104" stroke="black" stroke-width="3" stroke-linecap="round"/>
<mask id="path-4-inside-1_265_1713" fill="white">
<ellipse cx="17.7311" cy="21.7305" rx="2.96154" ry="3.5"/>
</mask>
<ellipse cx="17.7311" cy="21.7305" rx="2.96154" ry="3.5" fill="black"/>
<path d="M20.6926 21.7305L17.6926 21.7305C17.6926 22.0194 17.5924 22.1998 17.535 22.2675C17.5088 22.2985 17.5056 22.2905 17.5425 22.272C17.5842 22.2512 17.652 22.2305 17.7311 22.2305V25.2305V28.2305C21.4738 28.2305 23.6926 24.831 23.6926 21.7305L20.6926 21.7305ZM17.7311 25.2305V22.2305C17.8102 22.2305 17.878 22.2512 17.9197 22.272C17.9566 22.2905 17.9534 22.2985 17.9271 22.2675C17.8698 22.1998 17.7695 22.0194 17.7695 21.7305L14.7695 21.7305L11.7695 21.7305C11.7695 24.831 13.9884 28.2305 17.7311 28.2305V25.2305ZM14.7695 21.7305L17.7695 21.7305C17.7695 21.4415 17.8698 21.2612 17.9271 21.1934C17.9534 21.1624 17.9566 21.1705 17.9197 21.1889C17.878 21.2098 17.8102 21.2305 17.7311 21.2305V18.2305V15.2305C13.9884 15.2305 11.7695 18.6299 11.7695 21.7305L14.7695 21.7305ZM17.7311 18.2305V21.2305C17.652 21.2305 17.5842 21.2098 17.5425 21.1889C17.5056 21.1705 17.5088 21.1624 17.535 21.1934C17.5924 21.2612 17.6926 21.4415 17.6926 21.7305L20.6926 21.7305L23.6926 21.7305C23.6926 18.6299 21.4738 15.2305 17.7311 15.2305V18.2305Z" fill="black" mask="url(#path-4-inside-1_265_1713)"/>
<mask id="path-6-inside-2_265_1713" fill="white">
<ellipse cx="36.0397" cy="21.1914" rx="2.96154" ry="3.5"/>
</mask>
<ellipse cx="36.0397" cy="21.1914" rx="2.96154" ry="3.5" fill="black"/>
<path d="M39.0012 21.1914L36.0012 21.1914C36.0012 21.4804 35.901 21.6607 35.8436 21.7285C35.8174 21.7595 35.8142 21.7514 35.8511 21.7329C35.8928 21.7121 35.9606 21.6914 36.0397 21.6914V24.6914V27.6914C39.7824 27.6914 42.0012 24.2919 42.0012 21.1914L39.0012 21.1914ZM36.0397 24.6914V21.6914C36.1188 21.6914 36.1866 21.7121 36.2283 21.7329C36.2652 21.7514 36.262 21.7595 36.2357 21.7285C36.1784 21.6607 36.0781 21.4804 36.0781 21.1914L33.0781 21.1914L30.0781 21.1914C30.0781 24.2919 32.297 27.6914 36.0397 27.6914V24.6914ZM33.0781 21.1914L36.0781 21.1914C36.0781 20.9025 36.1784 20.7221 36.2357 20.6544C36.262 20.6233 36.2652 20.6314 36.2283 20.6499C36.1866 20.6707 36.1188 20.6914 36.0397 20.6914V17.6914V14.6914C32.297 14.6914 30.0781 18.0909 30.0781 21.1914L33.0781 21.1914ZM36.0397 17.6914V20.6914C35.9606 20.6914 35.8928 20.6707 35.8511 20.6499C35.8142 20.6314 35.8174 20.6233 35.8436 20.6544C35.901 20.7221 36.0012 20.9025 36.0012 21.1914L39.0012 21.1914L42.0012 21.1914C42.0012 18.0909 39.7824 14.6914 36.0397 14.6914V17.6914Z" fill="black" mask="url(#path-6-inside-2_265_1713)"/>
</svg>
