<svg width="56" height="56" viewBox="0 0 56 56" fill="none" xmlns="http://www.w3.org/2000/svg">
<circle cx="28" cy="28" r="28" fill="#E6E7EB" style="mix-blend-mode:luminosity"/>
<circle cx="28" cy="28" r="28" fill="#E6E7EB" fill-opacity="0.68"/>
<circle cx="28" cy="28" r="24.5" fill="#E6E7EB" style="mix-blend-mode:luminosity"/>
<circle cx="28" cy="28" r="24.5" fill="#EEEEEE"/>
<circle cx="28" cy="28" r="24.5" stroke="#2C2C2E" stroke-width="3"/>
<circle cx="28" cy="28" r="24.5" stroke="black" stroke-width="3"/>
<path d="M25.8834 19.9628L23.7833 35.4456L31.5249 35.104" stroke="black" stroke-width="3" stroke-linecap="round"/>
<mask id="path-4-inside-1_265_1685" fill="white">
<ellipse cx="13.7311" cy="18.7305" rx="2.96154" ry="3.5"/>
</mask>
<ellipse cx="13.7311" cy="18.7305" rx="2.96154" ry="3.5" fill="black"/>
<path d="M16.6926 18.7305L13.6926 18.7305C13.6926 19.0194 13.5924 19.1998 13.535 19.2675C13.5088 19.2985 13.5056 19.2905 13.5425 19.272C13.5842 19.2512 13.652 19.2305 13.7311 19.2305V22.2305V25.2305C17.4738 25.2305 19.6926 21.831 19.6926 18.7305L16.6926 18.7305ZM13.7311 22.2305V19.2305C13.8102 19.2305 13.878 19.2512 13.9197 19.272C13.9566 19.2905 13.9534 19.2985 13.9271 19.2675C13.8698 19.1998 13.7695 19.0194 13.7695 18.7305L10.7695 18.7305L7.76954 18.7305C7.76954 21.831 9.98837 25.2305 13.7311 25.2305V22.2305ZM10.7695 18.7305L13.7695 18.7305C13.7695 18.4415 13.8698 18.2612 13.9271 18.1934C13.9534 18.1624 13.9566 18.1705 13.9197 18.1889C13.878 18.2098 13.8102 18.2305 13.7311 18.2305V15.2305V12.2305C9.98837 12.2305 7.76954 15.6299 7.76954 18.7305L10.7695 18.7305ZM13.7311 15.2305V18.2305C13.652 18.2305 13.5842 18.2098 13.5425 18.1889C13.5056 18.1705 13.5088 18.1624 13.535 18.1934C13.5924 18.2612 13.6926 18.4415 13.6926 18.7305L16.6926 18.7305L19.6926 18.7305C19.6926 15.6299 17.4738 12.2305 13.7311 12.2305V15.2305Z" fill="black" mask="url(#path-4-inside-1_265_1685)"/>
<mask id="path-6-inside-2_265_1685" fill="white">
<ellipse cx="32.0397" cy="18.1914" rx="2.96154" ry="3.5"/>
</mask>
<ellipse cx="32.0397" cy="18.1914" rx="2.96154" ry="3.5" fill="black"/>
<path d="M35.0012 18.1914L32.0012 18.1914C32.0012 18.4804 31.901 18.6607 31.8436 18.7285C31.8174 18.7595 31.8142 18.7514 31.8511 18.7329C31.8928 18.7121 31.9606 18.6914 32.0397 18.6914V21.6914V24.6914C35.7824 24.6914 38.0012 21.2919 38.0012 18.1914L35.0012 18.1914ZM32.0397 21.6914V18.6914C32.1188 18.6914 32.1866 18.7121 32.2283 18.7329C32.2652 18.7514 32.262 18.7595 32.2357 18.7285C32.1784 18.6607 32.0781 18.4804 32.0781 18.1914L29.0781 18.1914L26.0781 18.1914C26.0781 21.2919 28.297 24.6914 32.0397 24.6914V21.6914ZM29.0781 18.1914L32.0781 18.1914C32.0781 17.9025 32.1784 17.7221 32.2357 17.6544C32.262 17.6233 32.2652 17.6314 32.2283 17.6499C32.1866 17.6707 32.1188 17.6914 32.0397 17.6914V14.6914V11.6914C28.297 11.6914 26.0781 15.0909 26.0781 18.1914L29.0781 18.1914ZM32.0397 14.6914V17.6914C31.9606 17.6914 31.8928 17.6707 31.8511 17.6499C31.8142 17.6314 31.8174 17.6233 31.8436 17.6544C31.901 17.7221 32.0012 17.9025 32.0012 18.1914L35.0012 18.1914L38.0012 18.1914C38.0012 15.0909 35.7824 11.6914 32.0397 11.6914V14.6914Z" fill="black" mask="url(#path-6-inside-2_265_1685)"/>
</svg>
