<svg width="56" height="56" viewBox="0 0 56 56" fill="none" xmlns="http://www.w3.org/2000/svg">
<circle cx="28" cy="28" r="28" fill="#E6E7EB" style="mix-blend-mode:luminosity"/>
<circle cx="28" cy="28" r="28" fill="#E6E7EB" fill-opacity="0.68"/>
<circle cx="28" cy="28" r="24.5" fill="#E6E7EB" style="mix-blend-mode:luminosity"/>
<circle cx="28" cy="28" r="24.5" fill="#EEEEEE"/>
<circle cx="28" cy="28" r="24.5" stroke="#2C2C2E" stroke-width="3"/>
<circle cx="28" cy="28" r="24.5" stroke="black" stroke-width="3"/>
<path d="M25.8834 19.9628L23.7833 35.4456L31.5249 35.104" stroke="black" stroke-width="3" stroke-linecap="round"/>
<mask id="path-4-inside-1_265_1706" fill="white">
<ellipse cx="17.7311" cy="18.7305" rx="2.96154" ry="3.5"/>
</mask>
<ellipse cx="17.7311" cy="18.7305" rx="2.96154" ry="3.5" fill="black"/>
<path d="M20.6926 18.7305L17.6926 18.7305C17.6926 19.0194 17.5924 19.1998 17.535 19.2675C17.5088 19.2985 17.5056 19.2905 17.5425 19.272C17.5842 19.2512 17.652 19.2305 17.7311 19.2305V22.2305V25.2305C21.4738 25.2305 23.6926 21.831 23.6926 18.7305L20.6926 18.7305ZM17.7311 22.2305V19.2305C17.8102 19.2305 17.878 19.2512 17.9197 19.272C17.9566 19.2905 17.9534 19.2985 17.9271 19.2675C17.8698 19.1998 17.7695 19.0194 17.7695 18.7305L14.7695 18.7305L11.7695 18.7305C11.7695 21.831 13.9884 25.2305 17.7311 25.2305V22.2305ZM14.7695 18.7305L17.7695 18.7305C17.7695 18.4415 17.8698 18.2612 17.9271 18.1934C17.9534 18.1624 17.9566 18.1705 17.9197 18.1889C17.878 18.2098 17.8102 18.2305 17.7311 18.2305V15.2305V12.2305C13.9884 12.2305 11.7695 15.6299 11.7695 18.7305L14.7695 18.7305ZM17.7311 15.2305V18.2305C17.652 18.2305 17.5842 18.2098 17.5425 18.1889C17.5056 18.1705 17.5088 18.1624 17.535 18.1934C17.5924 18.2612 17.6926 18.4415 17.6926 18.7305L20.6926 18.7305L23.6926 18.7305C23.6926 15.6299 21.4738 12.2305 17.7311 12.2305V15.2305Z" fill="black" mask="url(#path-4-inside-1_265_1706)"/>
<mask id="path-6-inside-2_265_1706" fill="white">
<ellipse cx="36.0397" cy="18.1914" rx="2.96154" ry="3.5"/>
</mask>
<ellipse cx="36.0397" cy="18.1914" rx="2.96154" ry="3.5" fill="black"/>
<path d="M39.0012 18.1914L36.0012 18.1914C36.0012 18.4804 35.901 18.6607 35.8436 18.7285C35.8174 18.7595 35.8142 18.7514 35.8511 18.7329C35.8928 18.7121 35.9606 18.6914 36.0397 18.6914V21.6914V24.6914C39.7824 24.6914 42.0012 21.2919 42.0012 18.1914L39.0012 18.1914ZM36.0397 21.6914V18.6914C36.1188 18.6914 36.1866 18.7121 36.2283 18.7329C36.2652 18.7514 36.262 18.7595 36.2357 18.7285C36.1784 18.6607 36.0781 18.4804 36.0781 18.1914L33.0781 18.1914L30.0781 18.1914C30.0781 21.2919 32.297 24.6914 36.0397 24.6914V21.6914ZM33.0781 18.1914L36.0781 18.1914C36.0781 17.9025 36.1784 17.7221 36.2357 17.6544C36.262 17.6233 36.2652 17.6314 36.2283 17.6499C36.1866 17.6707 36.1188 17.6914 36.0397 17.6914V14.6914V11.6914C32.297 11.6914 30.0781 15.0909 30.0781 18.1914L33.0781 18.1914ZM36.0397 14.6914V17.6914C35.9606 17.6914 35.8928 17.6707 35.8511 17.6499C35.8142 17.6314 35.8174 17.6233 35.8436 17.6544C35.901 17.7221 36.0012 17.9025 36.0012 18.1914L39.0012 18.1914L42.0012 18.1914C42.0012 15.0909 39.7824 11.6914 36.0397 11.6914V14.6914Z" fill="black" mask="url(#path-6-inside-2_265_1706)"/>
</svg>
