<svg width="56" height="56" viewBox="0 0 56 56" fill="none" xmlns="http://www.w3.org/2000/svg">
<circle cx="28" cy="28" r="28" fill="#E6E7EB" style="mix-blend-mode:luminosity"/>
<circle cx="28" cy="28" r="28" fill="#E6E7EB" fill-opacity="0.68"/>
<circle cx="28" cy="28" r="24.5" fill="#E6E7EB" style="mix-blend-mode:luminosity"/>
<circle cx="28" cy="28" r="24.5" fill="#EEEEEE"/>
<circle cx="28" cy="28" r="24.5" stroke="#2C2C2E" stroke-width="3"/>
<circle cx="28" cy="28" r="24.5" stroke="black" stroke-width="3"/>
<path d="M23.2179 20.2007L25.7757 35.6145L33.0725 33.0057" stroke="black" stroke-width="3" stroke-linecap="round"/>
<mask id="path-4-inside-1_265_1678" fill="white">
<ellipse cx="13.7311" cy="22.7305" rx="2.96154" ry="3.5"/>
</mask>
<ellipse cx="13.7311" cy="22.7305" rx="2.96154" ry="3.5" fill="black"/>
<path d="M16.6926 22.7305L13.6926 22.7305C13.6926 23.0194 13.5924 23.1998 13.535 23.2675C13.5088 23.2985 13.5056 23.2905 13.5425 23.272C13.5842 23.2512 13.652 23.2305 13.7311 23.2305V26.2305V29.2305C17.4738 29.2305 19.6926 25.831 19.6926 22.7305L16.6926 22.7305ZM13.7311 26.2305V23.2305C13.8102 23.2305 13.878 23.2512 13.9197 23.272C13.9566 23.2905 13.9534 23.2985 13.9271 23.2675C13.8698 23.1998 13.7695 23.0194 13.7695 22.7305L10.7695 22.7305L7.76954 22.7305C7.76954 25.831 9.98837 29.2305 13.7311 29.2305V26.2305ZM10.7695 22.7305L13.7695 22.7305C13.7695 22.4415 13.8698 22.2612 13.9271 22.1934C13.9534 22.1624 13.9566 22.1705 13.9197 22.1889C13.878 22.2098 13.8102 22.2305 13.7311 22.2305V19.2305V16.2305C9.98837 16.2305 7.76954 19.6299 7.76954 22.7305L10.7695 22.7305ZM13.7311 19.2305V22.2305C13.652 22.2305 13.5842 22.2098 13.5425 22.1889C13.5056 22.1705 13.5088 22.1624 13.535 22.1934C13.5924 22.2612 13.6926 22.4415 13.6926 22.7305L16.6926 22.7305L19.6926 22.7305C19.6926 19.6299 17.4738 16.2305 13.7311 16.2305V19.2305Z" fill="black" mask="url(#path-4-inside-1_265_1678)"/>
<mask id="path-6-inside-2_265_1678" fill="white">
<ellipse cx="32.0397" cy="22.1914" rx="2.96154" ry="3.5"/>
</mask>
<ellipse cx="32.0397" cy="22.1914" rx="2.96154" ry="3.5" fill="black"/>
<path d="M35.0012 22.1914L32.0012 22.1914C32.0012 22.4804 31.901 22.6607 31.8436 22.7285C31.8174 22.7595 31.8142 22.7514 31.8511 22.7329C31.8928 22.7121 31.9606 22.6914 32.0397 22.6914V25.6914V28.6914C35.7824 28.6914 38.0012 25.2919 38.0012 22.1914L35.0012 22.1914ZM32.0397 25.6914V22.6914C32.1188 22.6914 32.1866 22.7121 32.2283 22.7329C32.2652 22.7514 32.262 22.7595 32.2357 22.7285C32.1784 22.6607 32.0781 22.4804 32.0781 22.1914L29.0781 22.1914L26.0781 22.1914C26.0781 25.2919 28.297 28.6914 32.0397 28.6914V25.6914ZM29.0781 22.1914L32.0781 22.1914C32.0781 21.9025 32.1784 21.7221 32.2357 21.6544C32.262 21.6233 32.2652 21.6314 32.2283 21.6499C32.1866 21.6707 32.1188 21.6914 32.0397 21.6914V18.6914V15.6914C28.297 15.6914 26.0781 19.0909 26.0781 22.1914L29.0781 22.1914ZM32.0397 18.6914V21.6914C31.9606 21.6914 31.8928 21.6707 31.8511 21.6499C31.8142 21.6314 31.8174 21.6233 31.8436 21.6544C31.901 21.7221 32.0012 21.9025 32.0012 22.1914L35.0012 22.1914L38.0012 22.1914C38.0012 19.0909 35.7824 15.6914 32.0397 15.6914V18.6914Z" fill="black" mask="url(#path-6-inside-2_265_1678)"/>
</svg>
