<svg width="56" height="56" viewBox="0 0 56 56" fill="none" xmlns="http://www.w3.org/2000/svg">
<circle cx="28" cy="28" r="28" fill="#E6E7EB" style="mix-blend-mode:luminosity"/>
<circle cx="28" cy="28" r="28" fill="#E6E7EB" fill-opacity="0.68"/>
<circle cx="28" cy="28" r="24.5" fill="#E6E7EB" style="mix-blend-mode:luminosity"/>
<circle cx="28" cy="28" r="24.5" fill="#EEEEEE"/>
<circle cx="28" cy="28" r="24.5" stroke="#2C2C2E" stroke-width="3"/>
<circle cx="28" cy="28" r="24.5" stroke="black" stroke-width="3"/>
<path d="M25.8834 19.9628L23.7833 35.4456L31.5249 35.104" stroke="black" stroke-width="3" stroke-linecap="round"/>
<mask id="path-4-inside-1_265_1692" fill="white">
<ellipse cx="16.7311" cy="15.7305" rx="2.96154" ry="3.5"/>
</mask>
<ellipse cx="16.7311" cy="15.7305" rx="2.96154" ry="3.5" fill="black"/>
<path d="M19.6926 15.7305L16.6926 15.7305C16.6926 16.0194 16.5924 16.1998 16.535 16.2675C16.5088 16.2985 16.5056 16.2905 16.5425 16.272C16.5842 16.2512 16.652 16.2305 16.7311 16.2305V19.2305V22.2305C20.4738 22.2305 22.6926 18.831 22.6926 15.7305L19.6926 15.7305ZM16.7311 19.2305V16.2305C16.8102 16.2305 16.878 16.2512 16.9197 16.272C16.9566 16.2905 16.9534 16.2985 16.9271 16.2675C16.8698 16.1998 16.7695 16.0194 16.7695 15.7305L13.7695 15.7305L10.7695 15.7305C10.7695 18.831 12.9884 22.2305 16.7311 22.2305V19.2305ZM13.7695 15.7305L16.7695 15.7305C16.7695 15.4415 16.8698 15.2612 16.9271 15.1934C16.9534 15.1624 16.9566 15.1705 16.9197 15.1889C16.878 15.2098 16.8102 15.2305 16.7311 15.2305V12.2305V9.23047C12.9884 9.23047 10.7695 12.6299 10.7695 15.7305L13.7695 15.7305ZM16.7311 12.2305V15.2305C16.652 15.2305 16.5842 15.2098 16.5425 15.1889C16.5056 15.1705 16.5088 15.1624 16.535 15.1934C16.5924 15.2612 16.6926 15.4415 16.6926 15.7305L19.6926 15.7305L22.6926 15.7305C22.6926 12.6299 20.4738 9.23047 16.7311 9.23047V12.2305Z" fill="black" mask="url(#path-4-inside-1_265_1692)"/>
<mask id="path-6-inside-2_265_1692" fill="white">
<ellipse cx="35.0397" cy="15.1914" rx="2.96154" ry="3.5"/>
</mask>
<ellipse cx="35.0397" cy="15.1914" rx="2.96154" ry="3.5" fill="black"/>
<path d="M38.0012 15.1914L35.0012 15.1914C35.0012 15.4804 34.901 15.6607 34.8436 15.7285C34.8174 15.7595 34.8142 15.7514 34.8511 15.7329C34.8928 15.7121 34.9606 15.6914 35.0397 15.6914V18.6914V21.6914C38.7824 21.6914 41.0012 18.2919 41.0012 15.1914L38.0012 15.1914ZM35.0397 18.6914V15.6914C35.1188 15.6914 35.1866 15.7121 35.2283 15.7329C35.2652 15.7514 35.262 15.7595 35.2357 15.7285C35.1784 15.6607 35.0781 15.4804 35.0781 15.1914L32.0781 15.1914L29.0781 15.1914C29.0781 18.2919 31.297 21.6914 35.0397 21.6914V18.6914ZM32.0781 15.1914L35.0781 15.1914C35.0781 14.9025 35.1784 14.7221 35.2357 14.6544C35.262 14.6233 35.2652 14.6314 35.2283 14.6499C35.1866 14.6707 35.1188 14.6914 35.0397 14.6914V11.6914V8.69141C31.297 8.69141 29.0781 12.0909 29.0781 15.1914L32.0781 15.1914ZM35.0397 11.6914V14.6914C34.9606 14.6914 34.8928 14.6707 34.8511 14.6499C34.8142 14.6314 34.8174 14.6233 34.8436 14.6544C34.901 14.7221 35.0012 14.9025 35.0012 15.1914L38.0012 15.1914L41.0012 15.1914C41.0012 12.0909 38.7824 8.69141 35.0397 8.69141V11.6914Z" fill="black" mask="url(#path-6-inside-2_265_1692)"/>
</svg>
