<svg width="708" height="179" viewBox="0 0 708 179" fill="none" xmlns="http://www.w3.org/2000/svg">
<g filter="url(#filter0_d_181_1580)">
<rect x="28.5" y="19.5" width="651" height="122" rx="13" fill="white"/>
<rect x="46.7502" y="61.7502" width="620.5" height="9.49963" rx="4.74982" fill="#F5E5E5" stroke="white" stroke-width="0.500368"/>
<rect x="46.7502" y="61.7502" width="403.516" height="9.49963" rx="4.74982" fill="url(#paint0_linear_181_1580)" stroke="white" stroke-width="0.500368"/>
<path d="M51.6709 41.3179H48.8218V40.168H51.6709C52.2227 40.168 52.6694 40.0801 53.0112 39.9043C53.353 39.7285 53.6021 39.4844 53.7583 39.1719C53.9194 38.8594 54 38.5029 54 38.1025C54 37.7363 53.9194 37.3921 53.7583 37.0698C53.6021 36.7476 53.353 36.4888 53.0112 36.2935C52.6694 36.0933 52.2227 35.9932 51.6709 35.9932H49.1514V45.5H47.7378V34.8359H51.6709C52.4766 34.8359 53.1577 34.9751 53.7144 35.2534C54.271 35.5317 54.6934 35.9175 54.9814 36.4106C55.2695 36.8989 55.4136 37.458 55.4136 38.0879C55.4136 38.7715 55.2695 39.355 54.9814 39.8384C54.6934 40.3218 54.271 40.6904 53.7144 40.9443C53.1577 41.1934 52.4766 41.3179 51.6709 41.3179ZM58.3506 38.8203V45.5H56.9956V37.5752H58.314L58.3506 38.8203ZM60.8262 37.5312L60.8188 38.791C60.7065 38.7666 60.5991 38.752 60.4966 38.7471C60.3989 38.7373 60.2866 38.7324 60.1597 38.7324C59.8472 38.7324 59.5713 38.7812 59.332 38.8789C59.0928 38.9766 58.8901 39.1133 58.7241 39.2891C58.5581 39.4648 58.4263 39.6748 58.3286 39.9189C58.2358 40.1582 58.1748 40.4219 58.1455 40.71L57.7646 40.9297C57.7646 40.4512 57.811 40.002 57.9038 39.582C58.0015 39.1621 58.1504 38.791 58.3506 38.4688C58.5508 38.1416 58.8047 37.8877 59.1123 37.707C59.4248 37.5215 59.7959 37.4287 60.2256 37.4287C60.3232 37.4287 60.4355 37.4409 60.5625 37.4653C60.6895 37.4849 60.7773 37.5068 60.8262 37.5312ZM61.5732 41.6255V41.457C61.5732 40.8857 61.6562 40.356 61.8223 39.8677C61.9883 39.3745 62.2275 38.9473 62.54 38.5859C62.8525 38.2197 63.231 37.9365 63.6753 37.7363C64.1196 37.5312 64.6177 37.4287 65.1694 37.4287C65.7261 37.4287 66.2266 37.5312 66.6709 37.7363C67.1201 37.9365 67.501 38.2197 67.8135 38.5859C68.1309 38.9473 68.3726 39.3745 68.5386 39.8677C68.7046 40.356 68.7876 40.8857 68.7876 41.457V41.6255C68.7876 42.1968 68.7046 42.7266 68.5386 43.2148C68.3726 43.7031 68.1309 44.1304 67.8135 44.4966C67.501 44.8579 67.1226 45.1411 66.6782 45.3462C66.2388 45.5464 65.7407 45.6465 65.1841 45.6465C64.6274 45.6465 64.127 45.5464 63.6826 45.3462C63.2383 45.1411 62.8574 44.8579 62.54 44.4966C62.2275 44.1304 61.9883 43.7031 61.8223 43.2148C61.6562 42.7266 61.5732 42.1968 61.5732 41.6255ZM62.9282 41.457V41.6255C62.9282 42.021 62.9746 42.3945 63.0674 42.7461C63.1602 43.0928 63.2993 43.4004 63.4849 43.6689C63.6753 43.9375 63.9121 44.1499 64.1953 44.3062C64.4785 44.4575 64.8081 44.5332 65.1841 44.5332C65.5552 44.5332 65.8799 44.4575 66.1582 44.3062C66.4414 44.1499 66.6758 43.9375 66.8613 43.6689C67.0469 43.4004 67.186 43.0928 67.2788 42.7461C67.3765 42.3945 67.4253 42.021 67.4253 41.6255V41.457C67.4253 41.0664 67.3765 40.6978 67.2788 40.3511C67.186 39.9995 67.0444 39.6895 66.854 39.4209C66.6685 39.1475 66.4341 38.9326 66.1509 38.7764C65.8726 38.6201 65.5454 38.542 65.1694 38.542C64.7983 38.542 64.4712 38.6201 64.188 38.7764C63.9097 38.9326 63.6753 39.1475 63.4849 39.4209C63.2993 39.6895 63.1602 39.9995 63.0674 40.3511C62.9746 40.6978 62.9282 41.0664 62.9282 41.457ZM75.6211 37.5752H76.8516V45.3315C76.8516 46.0298 76.71 46.6255 76.4268 47.1187C76.1436 47.6118 75.748 47.9854 75.2402 48.2393C74.7373 48.498 74.1562 48.6274 73.4971 48.6274C73.2236 48.6274 72.9014 48.5835 72.5303 48.4956C72.1641 48.4126 71.8027 48.2686 71.4463 48.0635C71.0947 47.8633 70.7993 47.5923 70.5601 47.2505L71.2705 46.4448C71.6025 46.8452 71.9492 47.1235 72.3105 47.2798C72.6768 47.436 73.0381 47.5142 73.3945 47.5142C73.8242 47.5142 74.1953 47.4336 74.5078 47.2725C74.8203 47.1113 75.062 46.8721 75.2329 46.5547C75.4087 46.2422 75.4966 45.8564 75.4966 45.3975V39.3184L75.6211 37.5752ZM70.1646 41.6255V41.4717C70.1646 40.8662 70.2354 40.3169 70.377 39.8237C70.5234 39.3257 70.731 38.8984 70.9995 38.542C71.2729 38.1855 71.6025 37.9121 71.9883 37.7217C72.374 37.5264 72.8086 37.4287 73.292 37.4287C73.79 37.4287 74.2246 37.5166 74.5957 37.6924C74.9717 37.8633 75.2891 38.1147 75.5479 38.4468C75.8115 38.7739 76.019 39.1694 76.1704 39.6333C76.3218 40.0972 76.4268 40.6221 76.4854 41.208V41.8818C76.4316 42.4629 76.3267 42.9854 76.1704 43.4492C76.019 43.9131 75.8115 44.3086 75.5479 44.6357C75.2891 44.9629 74.9717 45.2144 74.5957 45.3901C74.2197 45.561 73.7803 45.6465 73.2773 45.6465C72.8037 45.6465 72.374 45.5464 71.9883 45.3462C71.6074 45.146 71.2803 44.8652 71.0068 44.5039C70.7334 44.1426 70.5234 43.7178 70.377 43.2295C70.2354 42.7363 70.1646 42.2017 70.1646 41.6255ZM71.5195 41.4717V41.6255C71.5195 42.021 71.5586 42.3921 71.6367 42.7388C71.7197 43.0854 71.8442 43.3906 72.0103 43.6543C72.1812 43.918 72.3984 44.1255 72.6621 44.2769C72.9258 44.4233 73.2407 44.4966 73.6069 44.4966C74.0562 44.4966 74.4272 44.4014 74.7202 44.2109C75.0132 44.0205 75.2451 43.769 75.416 43.4565C75.5918 43.144 75.7285 42.8047 75.8262 42.4385V40.6733C75.7725 40.4048 75.6895 40.146 75.5771 39.897C75.4697 39.6431 75.3281 39.4185 75.1523 39.2231C74.9814 39.0229 74.769 38.8643 74.5151 38.7471C74.2612 38.6299 73.9634 38.5713 73.6216 38.5713C73.2505 38.5713 72.9307 38.6494 72.6621 38.8057C72.3984 38.957 72.1812 39.167 72.0103 39.4355C71.8442 39.6992 71.7197 40.0068 71.6367 40.3584C71.5586 40.7051 71.5195 41.0762 71.5195 41.4717ZM80.2646 38.8203V45.5H78.9097V37.5752H80.228L80.2646 38.8203ZM82.7402 37.5312L82.7329 38.791C82.6206 38.7666 82.5132 38.752 82.4106 38.7471C82.313 38.7373 82.2007 38.7324 82.0737 38.7324C81.7612 38.7324 81.4854 38.7812 81.2461 38.8789C81.0068 38.9766 80.8042 39.1133 80.6382 39.2891C80.4722 39.4648 80.3403 39.6748 80.2427 39.9189C80.1499 40.1582 80.0889 40.4219 80.0596 40.71L79.6787 40.9297C79.6787 40.4512 79.7251 40.002 79.8179 39.582C79.9155 39.1621 80.0645 38.791 80.2646 38.4688C80.4648 38.1416 80.7188 37.8877 81.0264 37.707C81.3389 37.5215 81.71 37.4287 82.1396 37.4287C82.2373 37.4287 82.3496 37.4409 82.4766 37.4653C82.6035 37.4849 82.6914 37.5068 82.7402 37.5312ZM87.1348 45.6465C86.583 45.6465 86.0825 45.5537 85.6333 45.3682C85.189 45.1777 84.8057 44.9116 84.4834 44.5698C84.166 44.228 83.9219 43.8228 83.751 43.354C83.5801 42.8853 83.4946 42.3726 83.4946 41.8159V41.5083C83.4946 40.8638 83.5898 40.29 83.7803 39.7871C83.9707 39.2793 84.2295 38.8496 84.5566 38.498C84.8838 38.1465 85.2549 37.8804 85.6699 37.6997C86.085 37.519 86.5146 37.4287 86.959 37.4287C87.5254 37.4287 88.0137 37.5264 88.4238 37.7217C88.8389 37.917 89.1782 38.1904 89.4419 38.542C89.7056 38.8887 89.9009 39.2988 90.0278 39.7725C90.1548 40.2412 90.2183 40.7539 90.2183 41.3105V41.9185H84.3003V40.8125H88.8633V40.71C88.8438 40.3584 88.7705 40.0166 88.6436 39.6846C88.5215 39.3525 88.3262 39.0791 88.0576 38.8643C87.7891 38.6494 87.4229 38.542 86.959 38.542C86.6514 38.542 86.3682 38.6079 86.1094 38.7397C85.8506 38.8667 85.6284 39.0571 85.4429 39.311C85.2573 39.5649 85.1133 39.875 85.0107 40.2412C84.9082 40.6074 84.8569 41.0298 84.8569 41.5083V41.8159C84.8569 42.1919 84.9082 42.5459 85.0107 42.8779C85.1182 43.2051 85.272 43.4932 85.4722 43.7422C85.6772 43.9912 85.9238 44.1865 86.2119 44.3281C86.5049 44.4697 86.8369 44.5405 87.208 44.5405C87.6865 44.5405 88.0918 44.4429 88.4238 44.2476C88.7559 44.0522 89.0464 43.791 89.2954 43.4639L90.1157 44.1157C89.9448 44.3745 89.7275 44.6211 89.4639 44.8555C89.2002 45.0898 88.8755 45.2803 88.4897 45.4268C88.1089 45.5732 87.6572 45.6465 87.1348 45.6465ZM96.4146 43.3979C96.4146 43.2026 96.3706 43.022 96.2827 42.856C96.1997 42.6851 96.0264 42.5312 95.7627 42.3945C95.5039 42.2529 95.1133 42.1309 94.5908 42.0283C94.1514 41.9355 93.7534 41.8257 93.397 41.6987C93.0454 41.5718 92.7451 41.418 92.4961 41.2373C92.252 41.0566 92.064 40.8442 91.9321 40.6001C91.8003 40.356 91.7344 40.0703 91.7344 39.7432C91.7344 39.4307 91.8027 39.1353 91.9395 38.8569C92.0811 38.5786 92.2788 38.332 92.5327 38.1172C92.7915 37.9023 93.1016 37.7339 93.4629 37.6118C93.8242 37.4897 94.2271 37.4287 94.6714 37.4287C95.3062 37.4287 95.8481 37.541 96.2974 37.7656C96.7466 37.9902 97.0908 38.2905 97.3301 38.6665C97.5693 39.0376 97.689 39.4502 97.689 39.9043H96.334C96.334 39.6846 96.2681 39.4722 96.1362 39.2671C96.0093 39.0571 95.8213 38.8838 95.5723 38.7471C95.3281 38.6104 95.0278 38.542 94.6714 38.542C94.2954 38.542 93.9902 38.6006 93.7559 38.7178C93.5264 38.8301 93.3579 38.9741 93.2505 39.1499C93.1479 39.3257 93.0967 39.5112 93.0967 39.7065C93.0967 39.853 93.1211 39.9849 93.1699 40.1021C93.2236 40.2144 93.3164 40.3193 93.4482 40.417C93.5801 40.5098 93.7656 40.5977 94.0049 40.6807C94.2441 40.7637 94.5493 40.8467 94.9204 40.9297C95.5698 41.0762 96.1045 41.252 96.5244 41.457C96.9443 41.6621 97.2568 41.9136 97.4619 42.2114C97.667 42.5093 97.7695 42.8706 97.7695 43.2954C97.7695 43.6421 97.6963 43.9595 97.5498 44.2476C97.4082 44.5356 97.2007 44.7847 96.9272 44.9946C96.6587 45.1997 96.3364 45.3608 95.9604 45.478C95.5894 45.5903 95.1719 45.6465 94.708 45.6465C94.0098 45.6465 93.4189 45.522 92.9355 45.2729C92.4521 45.0239 92.0859 44.7017 91.8369 44.3062C91.5879 43.9106 91.4634 43.4932 91.4634 43.0537H92.8257C92.8452 43.4248 92.9526 43.7202 93.1479 43.9399C93.3433 44.1548 93.5825 44.3086 93.8657 44.4014C94.1489 44.4893 94.4297 44.5332 94.708 44.5332C95.0791 44.5332 95.3892 44.4844 95.6382 44.3867C95.8921 44.2891 96.085 44.1548 96.2168 43.9839C96.3486 43.813 96.4146 43.6177 96.4146 43.3979ZM104.164 43.3979C104.164 43.2026 104.12 43.022 104.032 42.856C103.949 42.6851 103.775 42.5312 103.512 42.3945C103.253 42.2529 102.862 42.1309 102.34 42.0283C101.9 41.9355 101.502 41.8257 101.146 41.6987C100.794 41.5718 100.494 41.418 100.245 41.2373C100.001 41.0566 99.813 40.8442 99.6812 40.6001C99.5493 40.356 99.4834 40.0703 99.4834 39.7432C99.4834 39.4307 99.5518 39.1353 99.6885 38.8569C99.8301 38.5786 100.028 38.332 100.282 38.1172C100.541 37.9023 100.851 37.7339 101.212 37.6118C101.573 37.4897 101.976 37.4287 102.42 37.4287C103.055 37.4287 103.597 37.541 104.046 37.7656C104.496 37.9902 104.84 38.2905 105.079 38.6665C105.318 39.0376 105.438 39.4502 105.438 39.9043H104.083C104.083 39.6846 104.017 39.4722 103.885 39.2671C103.758 39.0571 103.57 38.8838 103.321 38.7471C103.077 38.6104 102.777 38.542 102.42 38.542C102.044 38.542 101.739 38.6006 101.505 38.7178C101.275 38.8301 101.107 38.9741 101 39.1499C100.897 39.3257 100.846 39.5112 100.846 39.7065C100.846 39.853 100.87 39.9849 100.919 40.1021C100.973 40.2144 101.065 40.3193 101.197 40.417C101.329 40.5098 101.515 40.5977 101.754 40.6807C101.993 40.7637 102.298 40.8467 102.669 40.9297C103.319 41.0762 103.854 41.252 104.273 41.457C104.693 41.6621 105.006 41.9136 105.211 42.2114C105.416 42.5093 105.519 42.8706 105.519 43.2954C105.519 43.6421 105.445 43.9595 105.299 44.2476C105.157 44.5356 104.95 44.7847 104.676 44.9946C104.408 45.1997 104.085 45.3608 103.709 45.478C103.338 45.5903 102.921 45.6465 102.457 45.6465C101.759 45.6465 101.168 45.522 100.685 45.2729C100.201 45.0239 99.835 44.7017 99.5859 44.3062C99.3369 43.9106 99.2124 43.4932 99.2124 43.0537H100.575C100.594 43.4248 100.702 43.7202 100.897 43.9399C101.092 44.1548 101.332 44.3086 101.615 44.4014C101.898 44.4893 102.179 44.5332 102.457 44.5332C102.828 44.5332 103.138 44.4844 103.387 44.3867C103.641 44.2891 103.834 44.1548 103.966 43.9839C104.098 43.813 104.164 43.6177 104.164 43.3979Z" fill="black"/>
<path d="M562.923 34.748H563.186V36.3081H563.062C562.471 36.3081 561.951 36.3984 561.502 36.5791C561.057 36.7598 560.686 37.0137 560.388 37.3408C560.095 37.6631 559.873 38.0464 559.722 38.4907C559.571 38.9302 559.495 39.4111 559.495 39.9336V41.6621C559.495 42.0674 559.536 42.4238 559.619 42.7314C559.707 43.0342 559.827 43.2905 559.978 43.5005C560.135 43.7056 560.315 43.8594 560.52 43.9619C560.73 44.0645 560.96 44.1157 561.209 44.1157C561.458 44.1157 561.682 44.0645 561.883 43.9619C562.083 43.8594 562.254 43.7153 562.395 43.5298C562.542 43.3394 562.652 43.1172 562.725 42.8633C562.803 42.6094 562.842 42.3311 562.842 42.0283C562.842 41.7305 562.805 41.4546 562.732 41.2007C562.659 40.9468 562.552 40.7246 562.41 40.5342C562.268 40.3389 562.093 40.1899 561.883 40.0874C561.677 39.98 561.443 39.9263 561.179 39.9263C560.838 39.9263 560.532 40.0068 560.264 40.168C559.995 40.3242 559.783 40.5293 559.627 40.7832C559.47 41.0371 559.385 41.3057 559.37 41.5889L558.719 41.2666C558.743 40.8516 558.831 40.4707 558.982 40.124C559.138 39.7773 559.346 39.4746 559.605 39.2158C559.868 38.957 560.178 38.7568 560.535 38.6152C560.896 38.4736 561.297 38.4028 561.736 38.4028C562.244 38.4028 562.688 38.5005 563.069 38.6958C563.45 38.8862 563.765 39.1475 564.014 39.4795C564.268 39.8115 564.458 40.1948 564.585 40.6294C564.712 41.0591 564.776 41.5132 564.776 41.9917C564.776 42.5044 564.693 42.9829 564.527 43.4272C564.365 43.8716 564.131 44.2598 563.823 44.5918C563.516 44.9238 563.145 45.1826 562.71 45.3682C562.276 45.5537 561.787 45.6465 561.245 45.6465C560.674 45.6465 560.161 45.5391 559.707 45.3242C559.258 45.1094 558.872 44.8115 558.55 44.4307C558.228 44.0498 557.981 43.6055 557.81 43.0977C557.639 42.5898 557.554 42.0405 557.554 41.4497V40.6733C557.554 39.8384 557.669 39.062 557.898 38.3442C558.128 37.6265 558.467 36.999 558.916 36.4619C559.37 35.9199 559.932 35.5 560.601 35.2021C561.27 34.8994 562.044 34.748 562.923 34.748ZM568.225 39.311H569.317C569.702 39.311 570.02 39.2451 570.269 39.1133C570.523 38.9766 570.711 38.791 570.833 38.5566C570.96 38.3174 571.023 38.0415 571.023 37.729C571.023 37.4214 570.967 37.1553 570.855 36.9307C570.742 36.7012 570.572 36.5254 570.342 36.4033C570.117 36.2764 569.829 36.2129 569.478 36.2129C569.195 36.2129 568.933 36.269 568.694 36.3813C568.46 36.4937 568.272 36.6548 568.13 36.8647C567.993 37.0698 567.925 37.3164 567.925 37.6045H565.984C565.984 37.0283 566.135 36.5229 566.438 36.0884C566.746 35.6489 567.161 35.3047 567.683 35.0557C568.206 34.8066 568.789 34.6821 569.434 34.6821C570.137 34.6821 570.752 34.7993 571.28 35.0337C571.812 35.2632 572.224 35.6025 572.517 36.0518C572.815 36.501 572.964 37.0576 572.964 37.7217C572.964 38.0391 572.888 38.3564 572.737 38.6738C572.591 38.9863 572.373 39.2695 572.085 39.5234C571.802 39.7725 571.453 39.9751 571.038 40.1313C570.628 40.2827 570.156 40.3584 569.624 40.3584H568.225V39.311ZM568.225 40.8052V39.7725H569.624C570.225 39.7725 570.745 39.8433 571.184 39.9849C571.629 40.1216 571.995 40.3169 572.283 40.5708C572.571 40.8198 572.783 41.1104 572.92 41.4424C573.062 41.7744 573.133 42.1309 573.133 42.5117C573.133 43.0098 573.04 43.4541 572.854 43.8447C572.669 44.2305 572.407 44.5576 572.071 44.8262C571.739 45.0947 571.348 45.2998 570.899 45.4414C570.449 45.5781 569.964 45.6465 569.441 45.6465C568.987 45.6465 568.545 45.5854 568.115 45.4634C567.691 45.3364 567.307 45.1484 566.966 44.8994C566.624 44.6455 566.353 44.3281 566.153 43.9473C565.952 43.5615 565.852 43.1147 565.852 42.6069H567.793C567.793 42.8999 567.864 43.1611 568.006 43.3906C568.152 43.6201 568.352 43.8008 568.606 43.9326C568.865 44.0596 569.156 44.123 569.478 44.123C569.834 44.123 570.139 44.0596 570.393 43.9326C570.652 43.8008 570.85 43.6152 570.987 43.376C571.123 43.1318 571.192 42.8413 571.192 42.5044C571.192 42.104 571.116 41.7793 570.965 41.5303C570.813 41.2812 570.596 41.0981 570.313 40.981C570.034 40.8638 569.702 40.8052 569.317 40.8052H568.225ZM574.627 37.4507V36.8867C574.627 36.4814 574.715 36.1128 574.89 35.7808C575.066 35.4487 575.323 35.1826 575.659 34.9824C576.001 34.7822 576.416 34.6821 576.905 34.6821C577.403 34.6821 577.82 34.7822 578.157 34.9824C578.499 35.1826 578.755 35.4487 578.926 35.7808C579.102 36.1128 579.19 36.4814 579.19 36.8867V37.4507C579.19 37.8462 579.102 38.21 578.926 38.542C578.755 38.874 578.501 39.1401 578.164 39.3403C577.827 39.5405 577.412 39.6406 576.919 39.6406C576.426 39.6406 576.009 39.5405 575.667 39.3403C575.325 39.1401 575.066 38.874 574.89 38.542C574.715 38.21 574.627 37.8462 574.627 37.4507ZM575.938 36.8867V37.4507C575.938 37.6362 575.972 37.812 576.04 37.978C576.114 38.1392 576.223 38.271 576.37 38.3735C576.516 38.4761 576.699 38.5273 576.919 38.5273C577.139 38.5273 577.317 38.4761 577.454 38.3735C577.595 38.271 577.7 38.1392 577.769 37.978C577.842 37.812 577.879 37.6362 577.879 37.4507V36.8867C577.879 36.6963 577.842 36.5181 577.769 36.3521C577.7 36.186 577.593 36.0518 577.447 35.9492C577.305 35.8467 577.124 35.7954 576.905 35.7954C576.69 35.7954 576.509 35.8467 576.363 35.9492C576.221 36.0518 576.114 36.186 576.04 36.3521C575.972 36.5181 575.938 36.6963 575.938 36.8867ZM579.746 43.4492V42.8853C579.746 42.4849 579.834 42.1187 580.01 41.7866C580.191 41.4546 580.452 41.1885 580.794 40.9883C581.135 40.7881 581.548 40.688 582.031 40.688C582.534 40.688 582.954 40.7881 583.291 40.9883C583.628 41.1885 583.882 41.4546 584.053 41.7866C584.229 42.1187 584.317 42.4849 584.317 42.8853V43.4492C584.317 43.8496 584.229 44.2158 584.053 44.5479C583.882 44.8799 583.628 45.146 583.291 45.3462C582.959 45.5464 582.544 45.6465 582.046 45.6465C581.558 45.6465 581.14 45.5464 580.794 45.3462C580.452 45.146 580.191 44.8799 580.01 44.5479C579.834 44.2158 579.746 43.8496 579.746 43.4492ZM581.065 42.8853V43.4492C581.065 43.6396 581.104 43.8179 581.182 43.9839C581.26 44.145 581.372 44.2769 581.519 44.3794C581.67 44.4819 581.846 44.5332 582.046 44.5332C582.29 44.5332 582.483 44.4819 582.625 44.3794C582.766 44.2769 582.866 44.145 582.925 43.9839C582.984 43.8179 583.013 43.6396 583.013 43.4492V42.8853C583.013 42.6948 582.976 42.519 582.903 42.3579C582.83 42.1919 582.72 42.0576 582.573 41.9551C582.432 41.8525 582.251 41.8013 582.031 41.8013C581.817 41.8013 581.636 41.8525 581.49 41.9551C581.348 42.0576 581.24 42.1919 581.167 42.3579C581.099 42.519 581.065 42.6948 581.065 42.8853ZM582.515 36.3594L577.307 44.6943L576.348 44.1597L581.555 35.8247L582.515 36.3594ZM595.977 41.9917H597.991C597.937 42.7046 597.74 43.3369 597.398 43.8887C597.056 44.4355 596.58 44.8652 595.969 45.1777C595.359 45.4902 594.619 45.6465 593.75 45.6465C593.081 45.6465 592.478 45.5293 591.941 45.2949C591.409 45.0557 590.952 44.7163 590.572 44.2769C590.196 43.8325 589.907 43.3003 589.707 42.6802C589.507 42.0552 589.407 41.3545 589.407 40.5781V39.7651C589.407 38.9888 589.51 38.2881 589.715 37.6631C589.92 37.0381 590.213 36.5059 590.594 36.0664C590.979 35.6221 591.441 35.2803 591.978 35.041C592.52 34.8018 593.125 34.6821 593.794 34.6821C594.663 34.6821 595.398 34.8433 595.999 35.1655C596.599 35.4829 597.066 35.9199 597.398 36.4766C597.73 37.0332 597.93 37.6729 597.998 38.3955H595.984C595.945 37.9463 595.847 37.5654 595.691 37.2529C595.54 36.9404 595.31 36.7036 595.003 36.5425C594.7 36.3765 594.297 36.2935 593.794 36.2935C593.404 36.2935 593.059 36.3667 592.761 36.5132C592.469 36.6597 592.224 36.8794 592.029 37.1724C591.834 37.4604 591.687 37.8218 591.59 38.2563C591.492 38.686 591.443 39.1841 591.443 39.7505V40.5781C591.443 41.1201 591.487 41.606 591.575 42.0356C591.663 42.4653 591.8 42.8291 591.985 43.127C592.171 43.4248 592.41 43.6519 592.703 43.8081C592.996 43.9644 593.345 44.0425 593.75 44.0425C594.243 44.0425 594.644 43.9644 594.951 43.8081C595.264 43.6519 595.501 43.4224 595.662 43.1196C595.828 42.8169 595.933 42.4409 595.977 41.9917ZM599.06 41.6182V41.4644C599.06 40.8833 599.143 40.3486 599.309 39.8604C599.475 39.3672 599.717 38.9399 600.034 38.5786C600.352 38.2173 600.74 37.9365 601.199 37.7363C601.658 37.5312 602.18 37.4287 602.766 37.4287C603.362 37.4287 603.889 37.5312 604.348 37.7363C604.812 37.9365 605.203 38.2173 605.52 38.5786C605.838 38.9399 606.079 39.3672 606.245 39.8604C606.411 40.3486 606.494 40.8833 606.494 41.4644V41.6182C606.494 42.1943 606.411 42.729 606.245 43.2222C606.079 43.7104 605.838 44.1377 605.52 44.5039C605.203 44.8652 604.815 45.146 604.356 45.3462C603.897 45.5464 603.372 45.6465 602.781 45.6465C602.195 45.6465 601.67 45.5464 601.206 45.3462C600.742 45.146 600.352 44.8652 600.034 44.5039C599.717 44.1377 599.475 43.7104 599.309 43.2222C599.143 42.729 599.06 42.1943 599.06 41.6182ZM600.994 41.4644V41.6182C600.994 41.9648 601.028 42.2896 601.096 42.5923C601.165 42.895 601.27 43.1611 601.411 43.3906C601.553 43.6201 601.736 43.8008 601.961 43.9326C602.19 44.0596 602.464 44.123 602.781 44.123C603.094 44.123 603.362 44.0596 603.587 43.9326C603.811 43.8008 603.994 43.6201 604.136 43.3906C604.282 43.1611 604.39 42.895 604.458 42.5923C604.527 42.2896 604.561 41.9648 604.561 41.6182V41.4644C604.561 41.1226 604.527 40.8027 604.458 40.5049C604.39 40.2021 604.282 39.936 604.136 39.7065C603.994 39.4722 603.809 39.2891 603.579 39.1572C603.355 39.0205 603.084 38.9521 602.766 38.9521C602.454 38.9521 602.185 39.0205 601.961 39.1572C601.736 39.2891 601.553 39.4722 601.411 39.7065C601.27 39.936 601.165 40.2021 601.096 40.5049C601.028 40.8027 600.994 41.1226 600.994 41.4644ZM609.827 39.2012V45.5H607.893V37.5752H609.717L609.827 39.2012ZM609.541 41.252H608.948C608.948 40.7002 609.014 40.1924 609.146 39.7285C609.282 39.2646 609.483 38.8618 609.746 38.52C610.01 38.1733 610.335 37.9048 610.72 37.7144C611.111 37.5239 611.563 37.4287 612.075 37.4287C612.432 37.4287 612.759 37.4824 613.057 37.5898C613.355 37.6924 613.611 37.856 613.826 38.0806C614.046 38.3003 614.214 38.5884 614.331 38.9448C614.448 39.2964 614.507 39.7188 614.507 40.2119V45.5H612.573V40.4097C612.573 40.0386 612.52 39.748 612.412 39.5381C612.31 39.3281 612.161 39.1816 611.966 39.0986C611.77 39.0107 611.536 38.9668 611.262 38.9668C610.96 38.9668 610.698 39.0278 610.479 39.1499C610.264 39.2671 610.086 39.4307 609.944 39.6406C609.807 39.8506 609.705 40.0923 609.636 40.3657C609.573 40.6392 609.541 40.9346 609.541 41.252ZM614.361 40.8931L613.562 41.0396C613.567 40.5415 613.635 40.0752 613.767 39.6406C613.899 39.2012 614.092 38.8179 614.346 38.4907C614.605 38.1587 614.925 37.8999 615.305 37.7144C615.691 37.5239 616.135 37.4287 616.638 37.4287C617.029 37.4287 617.381 37.4849 617.693 37.5972C618.01 37.7046 618.281 37.8779 618.506 38.1172C618.731 38.3516 618.902 38.6567 619.019 39.0327C619.141 39.4087 619.202 39.8677 619.202 40.4097V45.5H617.254V40.4023C617.254 40.0166 617.2 39.7212 617.093 39.5161C616.99 39.311 616.841 39.1694 616.646 39.0913C616.45 39.0083 616.221 38.9668 615.957 38.9668C615.689 38.9668 615.454 39.0181 615.254 39.1206C615.059 39.2183 614.893 39.355 614.756 39.5308C614.624 39.7065 614.524 39.9116 614.456 40.146C614.392 40.3755 614.361 40.6245 614.361 40.8931ZM622.871 39.0986V48.5469H620.93V37.5752H622.725L622.871 39.0986ZM627.962 41.457V41.6108C627.962 42.187 627.893 42.7217 627.757 43.2148C627.625 43.7031 627.429 44.1304 627.171 44.4966C626.912 44.8579 626.59 45.1411 626.204 45.3462C625.823 45.5464 625.384 45.6465 624.885 45.6465C624.397 45.6465 623.972 45.5537 623.611 45.3682C623.25 45.1777 622.945 44.9092 622.696 44.5625C622.447 44.2158 622.246 43.813 622.095 43.354C621.948 42.8901 621.839 42.3848 621.765 41.8379V41.3472C621.839 40.7661 621.948 40.2388 622.095 39.7651C622.246 39.2866 622.447 38.874 622.696 38.5273C622.945 38.1758 623.247 37.9048 623.604 37.7144C623.965 37.5239 624.387 37.4287 624.871 37.4287C625.374 37.4287 625.816 37.5239 626.197 37.7144C626.582 37.9048 626.907 38.1782 627.171 38.5347C627.434 38.8911 627.632 39.3159 627.764 39.8091C627.896 40.3022 627.962 40.8516 627.962 41.457ZM626.021 41.6108V41.457C626.021 41.1055 625.989 40.7808 625.926 40.4829C625.862 40.1802 625.764 39.9165 625.633 39.6919C625.501 39.4624 625.33 39.2842 625.12 39.1572C624.91 39.0303 624.656 38.9668 624.358 38.9668C624.06 38.9668 623.804 39.0156 623.589 39.1133C623.374 39.2109 623.198 39.3501 623.062 39.5308C622.925 39.7114 622.818 39.9263 622.74 40.1753C622.666 40.4194 622.617 40.6904 622.593 40.9883V42.2041C622.637 42.5654 622.722 42.8901 622.849 43.1782C622.976 43.4663 623.162 43.6958 623.406 43.8667C623.655 44.0376 623.977 44.123 624.373 44.123C624.671 44.123 624.925 44.0571 625.135 43.9253C625.344 43.7935 625.515 43.6128 625.647 43.3833C625.779 43.1489 625.874 42.8804 625.933 42.5776C625.991 42.2749 626.021 41.9526 626.021 41.6108ZM631.426 34.25V45.5H629.485V34.25H631.426ZM636.831 45.6465C636.231 45.6465 635.691 45.5488 635.213 45.3535C634.734 45.1582 634.326 44.8872 633.99 44.5405C633.657 44.189 633.401 43.7812 633.22 43.3174C633.045 42.8486 632.957 42.3457 632.957 41.8086V41.5156C632.957 40.9053 633.045 40.3511 633.22 39.853C633.396 39.3501 633.645 38.918 633.968 38.5566C634.29 38.1953 634.676 37.917 635.125 37.7217C635.574 37.5264 636.07 37.4287 636.612 37.4287C637.173 37.4287 637.669 37.5239 638.098 37.7144C638.528 37.8999 638.887 38.1636 639.175 38.5054C639.463 38.8472 639.68 39.2573 639.827 39.7358C639.973 40.2095 640.047 40.7344 640.047 41.3105V42.1235H633.836V40.7905H638.142V40.644C638.133 40.3364 638.074 40.0557 637.967 39.8018C637.859 39.543 637.693 39.3379 637.469 39.1865C637.244 39.0303 636.953 38.9521 636.597 38.9521C636.309 38.9521 636.057 39.0156 635.843 39.1426C635.633 39.2646 635.457 39.4404 635.315 39.6699C635.178 39.8945 635.076 40.1631 635.008 40.4756C634.939 40.7881 634.905 41.1348 634.905 41.5156V41.8086C634.905 42.1406 634.949 42.4482 635.037 42.7314C635.13 43.0146 635.264 43.2612 635.44 43.4712C635.62 43.6763 635.835 43.8374 636.084 43.9546C636.338 44.0669 636.626 44.123 636.948 44.123C637.354 44.123 637.72 44.0449 638.047 43.8887C638.379 43.7275 638.667 43.4907 638.911 43.1782L639.885 44.189C639.719 44.4331 639.495 44.6675 639.212 44.8921C638.933 45.1167 638.596 45.2998 638.201 45.4414C637.805 45.5781 637.349 45.6465 636.831 45.6465ZM645.093 37.5752V38.9668H640.552V37.5752H645.093ZM641.768 35.627H643.709V43.2148C643.709 43.4492 643.74 43.6299 643.804 43.7568C643.867 43.8838 643.963 43.9692 644.09 44.0132C644.217 44.0571 644.368 44.0791 644.544 44.0791C644.671 44.0791 644.788 44.0718 644.895 44.0571C645.003 44.0425 645.093 44.0278 645.166 44.0132L645.174 45.4634C645.012 45.5171 644.829 45.561 644.624 45.5952C644.424 45.6294 644.197 45.6465 643.943 45.6465C643.509 45.6465 643.128 45.5732 642.801 45.4268C642.473 45.2754 642.219 45.0337 642.039 44.7017C641.858 44.3647 641.768 43.9204 641.768 43.3687V35.627ZM649.942 45.6465C649.341 45.6465 648.802 45.5488 648.323 45.3535C647.844 45.1582 647.437 44.8872 647.1 44.5405C646.768 44.189 646.511 43.7812 646.331 43.3174C646.155 42.8486 646.067 42.3457 646.067 41.8086V41.5156C646.067 40.9053 646.155 40.3511 646.331 39.853C646.507 39.3501 646.756 38.918 647.078 38.5566C647.4 38.1953 647.786 37.917 648.235 37.7217C648.684 37.5264 649.18 37.4287 649.722 37.4287C650.283 37.4287 650.779 37.5239 651.209 37.7144C651.638 37.8999 651.997 38.1636 652.285 38.5054C652.573 38.8472 652.791 39.2573 652.937 39.7358C653.084 40.2095 653.157 40.7344 653.157 41.3105V42.1235H646.946V40.7905H651.253V40.644C651.243 40.3364 651.184 40.0557 651.077 39.8018C650.969 39.543 650.803 39.3379 650.579 39.1865C650.354 39.0303 650.064 38.9521 649.707 38.9521C649.419 38.9521 649.168 39.0156 648.953 39.1426C648.743 39.2646 648.567 39.4404 648.426 39.6699C648.289 39.8945 648.186 40.1631 648.118 40.4756C648.05 40.7881 648.015 41.1348 648.015 41.5156V41.8086C648.015 42.1406 648.059 42.4482 648.147 42.7314C648.24 43.0146 648.374 43.2612 648.55 43.4712C648.731 43.6763 648.946 43.8374 649.195 43.9546C649.448 44.0669 649.737 44.123 650.059 44.123C650.464 44.123 650.83 44.0449 651.157 43.8887C651.49 43.7275 651.778 43.4907 652.022 43.1782L652.996 44.189C652.83 44.4331 652.605 44.6675 652.322 44.8921C652.044 45.1167 651.707 45.2998 651.311 45.4414C650.916 45.5781 650.459 45.6465 649.942 45.6465Z" fill="#2F368F"/>
<path d="M48.8877 118.82V125.5H47.5327V117.575H48.8511L48.8877 118.82ZM51.3633 117.531L51.356 118.791C51.2437 118.767 51.1362 118.752 51.0337 118.747C50.936 118.737 50.8237 118.732 50.6968 118.732C50.3843 118.732 50.1084 118.781 49.8691 118.879C49.6299 118.977 49.4272 119.113 49.2612 119.289C49.0952 119.465 48.9634 119.675 48.8657 119.919C48.7729 120.158 48.7119 120.422 48.6826 120.71L48.3018 120.93C48.3018 120.451 48.3481 120.002 48.4409 119.582C48.5386 119.162 48.6875 118.791 48.8877 118.469C49.0879 118.142 49.3418 117.888 49.6494 117.707C49.9619 117.521 50.333 117.429 50.7627 117.429C50.8604 117.429 50.9727 117.441 51.0996 117.465C51.2266 117.485 51.3145 117.507 51.3633 117.531ZM56.9956 124.145V120.065C56.9956 119.753 56.9321 119.482 56.8052 119.252C56.6831 119.018 56.4976 118.837 56.2485 118.71C55.9995 118.583 55.6919 118.52 55.3257 118.52C54.9839 118.52 54.6836 118.579 54.4248 118.696C54.1709 118.813 53.9707 118.967 53.8242 119.157C53.6826 119.348 53.6118 119.553 53.6118 119.772H52.2568C52.2568 119.489 52.3301 119.208 52.4766 118.93C52.623 118.652 52.833 118.4 53.1064 118.176C53.3848 117.946 53.7168 117.766 54.1025 117.634C54.4932 117.497 54.9277 117.429 55.4062 117.429C55.9824 117.429 56.4902 117.526 56.9297 117.722C57.374 117.917 57.7207 118.212 57.9697 118.608C58.2236 118.999 58.3506 119.489 58.3506 120.08V123.771C58.3506 124.035 58.3726 124.316 58.4165 124.614C58.4653 124.912 58.5361 125.168 58.6289 125.383V125.5H57.2153C57.147 125.344 57.0933 125.136 57.0542 124.877C57.0151 124.614 56.9956 124.37 56.9956 124.145ZM57.23 120.695L57.2446 121.647H55.875C55.4893 121.647 55.145 121.679 54.8423 121.743C54.5396 121.801 54.2856 121.892 54.0806 122.014C53.8755 122.136 53.7192 122.29 53.6118 122.475C53.5044 122.656 53.4507 122.868 53.4507 123.112C53.4507 123.361 53.5068 123.588 53.6191 123.793C53.7314 123.999 53.8999 124.162 54.1245 124.284C54.354 124.401 54.6348 124.46 54.9668 124.46C55.3818 124.46 55.748 124.372 56.0654 124.196C56.3828 124.021 56.6343 123.806 56.8198 123.552C57.0103 123.298 57.1128 123.051 57.1274 122.812L57.7061 123.464C57.6719 123.669 57.5791 123.896 57.4277 124.145C57.2764 124.394 57.0737 124.633 56.8198 124.863C56.5708 125.087 56.2729 125.275 55.9263 125.427C55.5845 125.573 55.1987 125.646 54.769 125.646C54.2319 125.646 53.7607 125.542 53.3555 125.332C52.9551 125.122 52.6426 124.841 52.418 124.489C52.1982 124.133 52.0884 123.735 52.0884 123.295C52.0884 122.871 52.1714 122.497 52.3374 122.175C52.5034 121.848 52.7427 121.577 53.0552 121.362C53.3677 121.142 53.7437 120.976 54.1831 120.864C54.6226 120.751 55.1133 120.695 55.6553 120.695H57.23ZM61.9541 117.575V125.5H60.5918V117.575H61.9541ZM60.4893 115.473C60.4893 115.253 60.5552 115.068 60.687 114.917C60.8237 114.765 61.0239 114.689 61.2876 114.689C61.5464 114.689 61.7441 114.765 61.8809 114.917C62.0225 115.068 62.0933 115.253 62.0933 115.473C62.0933 115.683 62.0225 115.864 61.8809 116.015C61.7441 116.162 61.5464 116.235 61.2876 116.235C61.0239 116.235 60.8237 116.162 60.687 116.015C60.5552 115.864 60.4893 115.683 60.4893 115.473ZM68.7437 123.398C68.7437 123.203 68.6997 123.022 68.6118 122.856C68.5288 122.685 68.3555 122.531 68.0918 122.395C67.833 122.253 67.4424 122.131 66.9199 122.028C66.4805 121.936 66.0825 121.826 65.7261 121.699C65.3745 121.572 65.0742 121.418 64.8252 121.237C64.5811 121.057 64.3931 120.844 64.2612 120.6C64.1294 120.356 64.0635 120.07 64.0635 119.743C64.0635 119.431 64.1318 119.135 64.2686 118.857C64.4102 118.579 64.6079 118.332 64.8618 118.117C65.1206 117.902 65.4307 117.734 65.792 117.612C66.1533 117.49 66.5562 117.429 67.0005 117.429C67.6353 117.429 68.1772 117.541 68.6265 117.766C69.0757 117.99 69.4199 118.291 69.6592 118.667C69.8984 119.038 70.0181 119.45 70.0181 119.904H68.6631C68.6631 119.685 68.5972 119.472 68.4653 119.267C68.3384 119.057 68.1504 118.884 67.9014 118.747C67.6572 118.61 67.3569 118.542 67.0005 118.542C66.6245 118.542 66.3193 118.601 66.085 118.718C65.8555 118.83 65.687 118.974 65.5796 119.15C65.4771 119.326 65.4258 119.511 65.4258 119.707C65.4258 119.853 65.4502 119.985 65.499 120.102C65.5527 120.214 65.6455 120.319 65.7773 120.417C65.9092 120.51 66.0947 120.598 66.334 120.681C66.5732 120.764 66.8784 120.847 67.2495 120.93C67.8989 121.076 68.4336 121.252 68.8535 121.457C69.2734 121.662 69.5859 121.914 69.791 122.211C69.9961 122.509 70.0986 122.871 70.0986 123.295C70.0986 123.642 70.0254 123.959 69.8789 124.248C69.7373 124.536 69.5298 124.785 69.2563 124.995C68.9878 125.2 68.6655 125.361 68.2896 125.478C67.9185 125.59 67.501 125.646 67.0371 125.646C66.3389 125.646 65.748 125.522 65.2646 125.273C64.7812 125.024 64.415 124.702 64.166 124.306C63.917 123.911 63.7925 123.493 63.7925 123.054H65.1548C65.1743 123.425 65.2817 123.72 65.4771 123.94C65.6724 124.155 65.9116 124.309 66.1948 124.401C66.478 124.489 66.7588 124.533 67.0371 124.533C67.4082 124.533 67.7183 124.484 67.9673 124.387C68.2212 124.289 68.4141 124.155 68.5459 123.984C68.6777 123.813 68.7437 123.618 68.7437 123.398ZM75.167 125.646C74.6152 125.646 74.1147 125.554 73.6655 125.368C73.2212 125.178 72.8379 124.912 72.5156 124.57C72.1982 124.228 71.9541 123.823 71.7832 123.354C71.6123 122.885 71.5269 122.373 71.5269 121.816V121.508C71.5269 120.864 71.6221 120.29 71.8125 119.787C72.0029 119.279 72.2617 118.85 72.5889 118.498C72.916 118.146 73.2871 117.88 73.7021 117.7C74.1172 117.519 74.5469 117.429 74.9912 117.429C75.5576 117.429 76.0459 117.526 76.4561 117.722C76.8711 117.917 77.2104 118.19 77.4741 118.542C77.7378 118.889 77.9331 119.299 78.0601 119.772C78.187 120.241 78.2505 120.754 78.2505 121.311V121.918H72.3325V120.812H76.8955V120.71C76.876 120.358 76.8027 120.017 76.6758 119.685C76.5537 119.353 76.3584 119.079 76.0898 118.864C75.8213 118.649 75.4551 118.542 74.9912 118.542C74.6836 118.542 74.4004 118.608 74.1416 118.74C73.8828 118.867 73.6606 119.057 73.4751 119.311C73.2896 119.565 73.1455 119.875 73.043 120.241C72.9404 120.607 72.8892 121.03 72.8892 121.508V121.816C72.8892 122.192 72.9404 122.546 73.043 122.878C73.1504 123.205 73.3042 123.493 73.5044 123.742C73.7095 123.991 73.9561 124.187 74.2441 124.328C74.5371 124.47 74.8691 124.541 75.2402 124.541C75.7188 124.541 76.124 124.443 76.4561 124.248C76.7881 124.052 77.0786 123.791 77.3276 123.464L78.1479 124.116C77.9771 124.375 77.7598 124.621 77.4961 124.855C77.2324 125.09 76.9077 125.28 76.522 125.427C76.1411 125.573 75.6895 125.646 75.167 125.646ZM84.8276 123.962V114.25H86.1899V125.5H84.9448L84.8276 123.962ZM79.4956 121.625V121.472C79.4956 120.866 79.5688 120.317 79.7153 119.824C79.8667 119.326 80.0791 118.898 80.3525 118.542C80.6309 118.186 80.9604 117.912 81.3413 117.722C81.7271 117.526 82.1567 117.429 82.6304 117.429C83.1284 117.429 83.563 117.517 83.9341 117.692C84.3101 117.863 84.6274 118.115 84.8862 118.447C85.1499 118.774 85.3574 119.169 85.5088 119.633C85.6602 120.097 85.7651 120.622 85.8237 121.208V121.882C85.77 122.463 85.665 122.985 85.5088 123.449C85.3574 123.913 85.1499 124.309 84.8862 124.636C84.6274 124.963 84.3101 125.214 83.9341 125.39C83.5581 125.561 83.1187 125.646 82.6157 125.646C82.1519 125.646 81.7271 125.546 81.3413 125.346C80.9604 125.146 80.6309 124.865 80.3525 124.504C80.0791 124.143 79.8667 123.718 79.7153 123.229C79.5688 122.736 79.4956 122.202 79.4956 121.625ZM80.8579 121.472V121.625C80.8579 122.021 80.897 122.392 80.9751 122.739C81.0581 123.085 81.1851 123.391 81.356 123.654C81.5269 123.918 81.7441 124.125 82.0078 124.277C82.2715 124.423 82.5864 124.497 82.9526 124.497C83.4019 124.497 83.7705 124.401 84.0586 124.211C84.3516 124.021 84.5859 123.769 84.7617 123.457C84.9375 123.144 85.0742 122.805 85.1719 122.438V120.673C85.1133 120.405 85.0278 120.146 84.9155 119.897C84.8081 119.643 84.6665 119.418 84.4907 119.223C84.3198 119.023 84.1074 118.864 83.8535 118.747C83.6045 118.63 83.3091 118.571 82.9673 118.571C82.5962 118.571 82.2764 118.649 82.0078 118.806C81.7441 118.957 81.5269 119.167 81.356 119.436C81.1851 119.699 81.0581 120.007 80.9751 120.358C80.897 120.705 80.8579 121.076 80.8579 121.472ZM91.6611 121.625V121.457C91.6611 120.886 91.7441 120.356 91.9102 119.868C92.0762 119.375 92.3154 118.947 92.6279 118.586C92.9404 118.22 93.3188 117.937 93.7632 117.736C94.2075 117.531 94.7056 117.429 95.2573 117.429C95.814 117.429 96.3145 117.531 96.7588 117.736C97.208 117.937 97.5889 118.22 97.9014 118.586C98.2188 118.947 98.4604 119.375 98.6265 119.868C98.7925 120.356 98.8755 120.886 98.8755 121.457V121.625C98.8755 122.197 98.7925 122.727 98.6265 123.215C98.4604 123.703 98.2188 124.13 97.9014 124.497C97.5889 124.858 97.2104 125.141 96.7661 125.346C96.3267 125.546 95.8286 125.646 95.272 125.646C94.7153 125.646 94.2148 125.546 93.7705 125.346C93.3262 125.141 92.9453 124.858 92.6279 124.497C92.3154 124.13 92.0762 123.703 91.9102 123.215C91.7441 122.727 91.6611 122.197 91.6611 121.625ZM93.0161 121.457V121.625C93.0161 122.021 93.0625 122.395 93.1553 122.746C93.248 123.093 93.3872 123.4 93.5728 123.669C93.7632 123.938 94 124.15 94.2832 124.306C94.5664 124.458 94.896 124.533 95.272 124.533C95.6431 124.533 95.9678 124.458 96.2461 124.306C96.5293 124.15 96.7637 123.938 96.9492 123.669C97.1348 123.4 97.2739 123.093 97.3667 122.746C97.4644 122.395 97.5132 122.021 97.5132 121.625V121.457C97.5132 121.066 97.4644 120.698 97.3667 120.351C97.2739 120 97.1323 119.689 96.9419 119.421C96.7563 119.147 96.522 118.933 96.2388 118.776C95.9604 118.62 95.6333 118.542 95.2573 118.542C94.8862 118.542 94.5591 118.62 94.2759 118.776C93.9976 118.933 93.7632 119.147 93.5728 119.421C93.3872 119.689 93.248 120 93.1553 120.351C93.0625 120.698 93.0161 121.066 93.0161 121.457ZM102.596 125.5H101.241V116.74C101.241 116.169 101.344 115.688 101.549 115.297C101.759 114.902 102.059 114.604 102.45 114.404C102.84 114.199 103.304 114.096 103.841 114.096C103.998 114.096 104.154 114.106 104.31 114.125C104.471 114.145 104.627 114.174 104.779 114.213L104.706 115.319C104.603 115.295 104.486 115.278 104.354 115.268C104.227 115.258 104.1 115.253 103.973 115.253C103.685 115.253 103.436 115.312 103.226 115.429C103.021 115.542 102.865 115.708 102.757 115.927C102.65 116.147 102.596 116.418 102.596 116.74V125.5ZM104.281 117.575V118.615H99.9888V117.575H104.281ZM113.414 113.107V115.341H112.315V113.107H113.414ZM113.282 125.068V127.023H112.191V125.068H113.282ZM114.747 122.753C114.747 122.46 114.681 122.197 114.549 121.962C114.417 121.728 114.2 121.513 113.897 121.318C113.595 121.123 113.189 120.942 112.682 120.776C112.066 120.585 111.534 120.354 111.085 120.08C110.641 119.807 110.296 119.467 110.052 119.062C109.813 118.657 109.693 118.166 109.693 117.59C109.693 116.989 109.823 116.472 110.082 116.037C110.34 115.603 110.707 115.268 111.18 115.034C111.654 114.799 112.21 114.682 112.85 114.682C113.348 114.682 113.792 114.758 114.183 114.909C114.574 115.056 114.903 115.275 115.172 115.568C115.445 115.861 115.653 116.22 115.794 116.645C115.941 117.07 116.014 117.561 116.014 118.117H114.667C114.667 117.79 114.627 117.49 114.549 117.216C114.471 116.943 114.354 116.706 114.198 116.506C114.042 116.301 113.851 116.145 113.626 116.037C113.402 115.925 113.143 115.869 112.85 115.869C112.44 115.869 112.101 115.939 111.832 116.081C111.568 116.223 111.373 116.423 111.246 116.682C111.119 116.936 111.056 117.231 111.056 117.568C111.056 117.88 111.119 118.154 111.246 118.388C111.373 118.623 111.588 118.835 111.891 119.025C112.198 119.211 112.621 119.394 113.158 119.575C113.788 119.775 114.322 120.012 114.762 120.285C115.201 120.554 115.536 120.886 115.765 121.281C115.995 121.672 116.109 122.158 116.109 122.739C116.109 123.369 115.968 123.901 115.685 124.335C115.401 124.765 115.003 125.092 114.491 125.317C113.978 125.542 113.377 125.654 112.689 125.654C112.274 125.654 111.864 125.598 111.458 125.485C111.053 125.373 110.687 125.19 110.36 124.936C110.033 124.677 109.771 124.338 109.576 123.918C109.381 123.493 109.283 122.973 109.283 122.358H110.646C110.646 122.773 110.704 123.117 110.821 123.391C110.943 123.659 111.104 123.874 111.305 124.035C111.505 124.191 111.725 124.304 111.964 124.372C112.208 124.436 112.45 124.467 112.689 124.467C113.128 124.467 113.5 124.399 113.802 124.262C114.11 124.121 114.344 123.92 114.505 123.662C114.667 123.403 114.747 123.1 114.747 122.753ZM124.789 124.387V125.5H117.809V124.526L121.302 120.637C121.732 120.158 122.064 119.753 122.298 119.421C122.538 119.084 122.704 118.784 122.796 118.52C122.894 118.251 122.943 117.978 122.943 117.7C122.943 117.348 122.87 117.031 122.723 116.748C122.582 116.459 122.372 116.23 122.093 116.059C121.815 115.888 121.478 115.803 121.083 115.803C120.609 115.803 120.213 115.896 119.896 116.081C119.583 116.262 119.349 116.516 119.193 116.843C119.037 117.17 118.958 117.546 118.958 117.971H117.604C117.604 117.37 117.735 116.821 117.999 116.323C118.263 115.825 118.653 115.429 119.171 115.136C119.688 114.838 120.326 114.689 121.083 114.689C121.756 114.689 122.333 114.809 122.811 115.048C123.29 115.283 123.656 115.615 123.91 116.044C124.168 116.469 124.298 116.967 124.298 117.539C124.298 117.851 124.244 118.168 124.137 118.491C124.034 118.808 123.89 119.125 123.705 119.443C123.524 119.76 123.312 120.073 123.067 120.38C122.828 120.688 122.572 120.991 122.298 121.289L119.442 124.387H124.789ZM127.953 120.424L126.869 120.146L127.403 114.836H132.875V116.088H128.553L128.231 118.989C128.426 118.876 128.673 118.771 128.971 118.674C129.273 118.576 129.62 118.527 130.011 118.527C130.504 118.527 130.946 118.613 131.336 118.784C131.727 118.95 132.059 119.189 132.333 119.501C132.611 119.814 132.823 120.19 132.97 120.629C133.116 121.069 133.189 121.56 133.189 122.102C133.189 122.614 133.119 123.085 132.977 123.515C132.84 123.945 132.633 124.321 132.354 124.643C132.076 124.96 131.725 125.207 131.3 125.383C130.88 125.559 130.384 125.646 129.813 125.646C129.383 125.646 128.976 125.588 128.59 125.471C128.209 125.349 127.867 125.166 127.564 124.921C127.267 124.672 127.022 124.365 126.832 123.999C126.646 123.627 126.529 123.193 126.48 122.695H127.77C127.828 123.095 127.945 123.432 128.121 123.706C128.297 123.979 128.526 124.187 128.81 124.328C129.098 124.465 129.432 124.533 129.813 124.533C130.135 124.533 130.421 124.477 130.67 124.365C130.919 124.252 131.129 124.091 131.3 123.881C131.471 123.671 131.6 123.417 131.688 123.12C131.781 122.822 131.827 122.487 131.827 122.116C131.827 121.779 131.781 121.467 131.688 121.179C131.595 120.891 131.456 120.639 131.271 120.424C131.09 120.209 130.868 120.043 130.604 119.926C130.34 119.804 130.038 119.743 129.696 119.743C129.242 119.743 128.897 119.804 128.663 119.926C128.434 120.048 128.197 120.214 127.953 120.424ZM136.053 123.889V124.98C136.053 125.424 135.941 125.893 135.716 126.386C135.492 126.884 135.177 127.299 134.771 127.631L134.002 127.097C134.159 126.882 134.291 126.662 134.398 126.438C134.505 126.218 134.586 125.988 134.64 125.749C134.698 125.515 134.728 125.266 134.728 125.002V123.889H136.053ZM144.33 119.318V120.944C144.33 121.818 144.251 122.556 144.095 123.156C143.939 123.757 143.714 124.24 143.421 124.606C143.128 124.973 142.774 125.239 142.359 125.405C141.949 125.566 141.485 125.646 140.968 125.646C140.558 125.646 140.179 125.595 139.833 125.493C139.486 125.39 139.173 125.227 138.895 125.002C138.622 124.772 138.387 124.475 138.192 124.108C137.997 123.742 137.848 123.298 137.745 122.775C137.643 122.253 137.591 121.643 137.591 120.944V119.318C137.591 118.444 137.669 117.712 137.826 117.121C137.987 116.53 138.214 116.057 138.507 115.7C138.8 115.339 139.151 115.08 139.562 114.924C139.977 114.768 140.44 114.689 140.953 114.689C141.368 114.689 141.749 114.741 142.096 114.843C142.447 114.941 142.76 115.1 143.033 115.319C143.307 115.534 143.539 115.822 143.729 116.184C143.924 116.54 144.073 116.977 144.176 117.495C144.278 118.012 144.33 118.62 144.33 119.318ZM142.967 121.164V119.091C142.967 118.613 142.938 118.193 142.879 117.832C142.826 117.465 142.745 117.153 142.638 116.894C142.53 116.635 142.394 116.425 142.228 116.264C142.066 116.103 141.878 115.986 141.664 115.913C141.454 115.834 141.217 115.795 140.953 115.795C140.631 115.795 140.345 115.856 140.096 115.979C139.847 116.096 139.637 116.284 139.466 116.542C139.3 116.801 139.173 117.141 139.085 117.561C138.998 117.98 138.954 118.491 138.954 119.091V121.164C138.954 121.643 138.98 122.065 139.034 122.431C139.093 122.797 139.178 123.115 139.291 123.383C139.403 123.647 139.54 123.864 139.701 124.035C139.862 124.206 140.047 124.333 140.257 124.416C140.472 124.494 140.709 124.533 140.968 124.533C141.3 124.533 141.59 124.47 141.839 124.343C142.088 124.216 142.296 124.018 142.462 123.75C142.633 123.476 142.76 123.127 142.843 122.702C142.926 122.272 142.967 121.76 142.967 121.164ZM152.767 119.318V120.944C152.767 121.818 152.689 122.556 152.533 123.156C152.376 123.757 152.152 124.24 151.859 124.606C151.566 124.973 151.212 125.239 150.797 125.405C150.387 125.566 149.923 125.646 149.405 125.646C148.995 125.646 148.617 125.595 148.27 125.493C147.923 125.39 147.611 125.227 147.333 125.002C147.059 124.772 146.825 124.475 146.629 124.108C146.434 123.742 146.285 123.298 146.183 122.775C146.08 122.253 146.029 121.643 146.029 120.944V119.318C146.029 118.444 146.107 117.712 146.263 117.121C146.424 116.53 146.651 116.057 146.944 115.7C147.237 115.339 147.589 115.08 147.999 114.924C148.414 114.768 148.878 114.689 149.391 114.689C149.806 114.689 150.187 114.741 150.533 114.843C150.885 114.941 151.197 115.1 151.471 115.319C151.744 115.534 151.976 115.822 152.167 116.184C152.362 116.54 152.511 116.977 152.613 117.495C152.716 118.012 152.767 118.62 152.767 119.318ZM151.405 121.164V119.091C151.405 118.613 151.375 118.193 151.317 117.832C151.263 117.465 151.183 117.153 151.075 116.894C150.968 116.635 150.831 116.425 150.665 116.264C150.504 116.103 150.316 115.986 150.101 115.913C149.891 115.834 149.654 115.795 149.391 115.795C149.068 115.795 148.783 115.856 148.534 115.979C148.285 116.096 148.075 116.284 147.904 116.542C147.738 116.801 147.611 117.141 147.523 117.561C147.435 117.98 147.391 118.491 147.391 119.091V121.164C147.391 121.643 147.418 122.065 147.472 122.431C147.53 122.797 147.616 123.115 147.728 123.383C147.84 123.647 147.977 123.864 148.138 124.035C148.299 124.206 148.485 124.333 148.695 124.416C148.91 124.494 149.146 124.533 149.405 124.533C149.737 124.533 150.028 124.47 150.277 124.343C150.526 124.216 150.733 124.018 150.899 123.75C151.07 123.476 151.197 123.127 151.28 122.702C151.363 122.272 151.405 121.76 151.405 121.164ZM161.205 119.318V120.944C161.205 121.818 161.126 122.556 160.97 123.156C160.814 123.757 160.589 124.24 160.296 124.606C160.003 124.973 159.649 125.239 159.234 125.405C158.824 125.566 158.36 125.646 157.843 125.646C157.433 125.646 157.054 125.595 156.708 125.493C156.361 125.39 156.048 125.227 155.77 125.002C155.497 124.772 155.262 124.475 155.067 124.108C154.872 123.742 154.723 123.298 154.62 122.775C154.518 122.253 154.466 121.643 154.466 120.944V119.318C154.466 118.444 154.544 117.712 154.701 117.121C154.862 116.53 155.089 116.057 155.382 115.7C155.675 115.339 156.026 115.08 156.437 114.924C156.852 114.768 157.315 114.689 157.828 114.689C158.243 114.689 158.624 114.741 158.971 114.843C159.322 114.941 159.635 115.1 159.908 115.319C160.182 115.534 160.414 115.822 160.604 116.184C160.799 116.54 160.948 116.977 161.051 117.495C161.153 118.012 161.205 118.62 161.205 119.318ZM159.842 121.164V119.091C159.842 118.613 159.813 118.193 159.754 117.832C159.701 117.465 159.62 117.153 159.513 116.894C159.405 116.635 159.269 116.425 159.103 116.264C158.941 116.103 158.753 115.986 158.539 115.913C158.329 115.834 158.092 115.795 157.828 115.795C157.506 115.795 157.22 115.856 156.971 115.979C156.722 116.096 156.512 116.284 156.341 116.542C156.175 116.801 156.048 117.141 155.96 117.561C155.873 117.98 155.829 118.491 155.829 119.091V121.164C155.829 121.643 155.855 122.065 155.909 122.431C155.968 122.797 156.053 123.115 156.166 123.383C156.278 123.647 156.415 123.864 156.576 124.035C156.737 124.206 156.922 124.333 157.132 124.416C157.347 124.494 157.584 124.533 157.843 124.533C158.175 124.533 158.465 124.47 158.714 124.343C158.963 124.216 159.171 124.018 159.337 123.75C159.508 123.476 159.635 123.127 159.718 122.702C159.801 122.272 159.842 121.76 159.842 121.164ZM171.949 117.575H173.18V125.332C173.18 126.03 173.038 126.625 172.755 127.119C172.472 127.612 172.076 127.985 171.568 128.239C171.065 128.498 170.484 128.627 169.825 128.627C169.552 128.627 169.229 128.583 168.858 128.496C168.492 128.413 168.131 128.269 167.774 128.063C167.423 127.863 167.127 127.592 166.888 127.25L167.599 126.445C167.931 126.845 168.277 127.124 168.639 127.28C169.005 127.436 169.366 127.514 169.723 127.514C170.152 127.514 170.523 127.434 170.836 127.272C171.148 127.111 171.39 126.872 171.561 126.555C171.737 126.242 171.825 125.856 171.825 125.397V119.318L171.949 117.575ZM166.493 121.625V121.472C166.493 120.866 166.563 120.317 166.705 119.824C166.852 119.326 167.059 118.898 167.328 118.542C167.601 118.186 167.931 117.912 168.316 117.722C168.702 117.526 169.137 117.429 169.62 117.429C170.118 117.429 170.553 117.517 170.924 117.692C171.3 117.863 171.617 118.115 171.876 118.447C172.14 118.774 172.347 119.169 172.499 119.633C172.65 120.097 172.755 120.622 172.813 121.208V121.882C172.76 122.463 172.655 122.985 172.499 123.449C172.347 123.913 172.14 124.309 171.876 124.636C171.617 124.963 171.3 125.214 170.924 125.39C170.548 125.561 170.108 125.646 169.605 125.646C169.132 125.646 168.702 125.546 168.316 125.346C167.936 125.146 167.608 124.865 167.335 124.504C167.062 124.143 166.852 123.718 166.705 123.229C166.563 122.736 166.493 122.202 166.493 121.625ZM167.848 121.472V121.625C167.848 122.021 167.887 122.392 167.965 122.739C168.048 123.085 168.172 123.391 168.338 123.654C168.509 123.918 168.727 124.125 168.99 124.277C169.254 124.423 169.569 124.497 169.935 124.497C170.384 124.497 170.755 124.401 171.048 124.211C171.341 124.021 171.573 123.769 171.744 123.457C171.92 123.144 172.057 122.805 172.154 122.438V120.673C172.101 120.405 172.018 120.146 171.905 119.897C171.798 119.643 171.656 119.418 171.48 119.223C171.31 119.023 171.097 118.864 170.843 118.747C170.589 118.63 170.292 118.571 169.95 118.571C169.579 118.571 169.259 118.649 168.99 118.806C168.727 118.957 168.509 119.167 168.338 119.436C168.172 119.699 168.048 120.007 167.965 120.358C167.887 120.705 167.848 121.076 167.848 121.472ZM174.879 121.625V121.457C174.879 120.886 174.962 120.356 175.128 119.868C175.294 119.375 175.533 118.947 175.846 118.586C176.158 118.22 176.537 117.937 176.981 117.736C177.425 117.531 177.923 117.429 178.475 117.429C179.032 117.429 179.532 117.531 179.977 117.736C180.426 117.937 180.807 118.22 181.119 118.586C181.437 118.947 181.678 119.375 181.844 119.868C182.01 120.356 182.093 120.886 182.093 121.457V121.625C182.093 122.197 182.01 122.727 181.844 123.215C181.678 123.703 181.437 124.13 181.119 124.497C180.807 124.858 180.428 125.141 179.984 125.346C179.544 125.546 179.046 125.646 178.49 125.646C177.933 125.646 177.433 125.546 176.988 125.346C176.544 125.141 176.163 124.858 175.846 124.497C175.533 124.13 175.294 123.703 175.128 123.215C174.962 122.727 174.879 122.197 174.879 121.625ZM176.234 121.457V121.625C176.234 122.021 176.28 122.395 176.373 122.746C176.466 123.093 176.605 123.4 176.791 123.669C176.981 123.938 177.218 124.15 177.501 124.306C177.784 124.458 178.114 124.533 178.49 124.533C178.861 124.533 179.186 124.458 179.464 124.306C179.747 124.15 179.981 123.938 180.167 123.669C180.353 123.4 180.492 123.093 180.584 122.746C180.682 122.395 180.731 122.021 180.731 121.625V121.457C180.731 121.066 180.682 120.698 180.584 120.351C180.492 120 180.35 119.689 180.16 119.421C179.974 119.147 179.74 118.933 179.457 118.776C179.178 118.62 178.851 118.542 178.475 118.542C178.104 118.542 177.777 118.62 177.494 118.776C177.215 118.933 176.981 119.147 176.791 119.421C176.605 119.689 176.466 120 176.373 120.351C176.28 120.698 176.234 121.066 176.234 121.457ZM188.465 124.145V120.065C188.465 119.753 188.402 119.482 188.275 119.252C188.153 119.018 187.967 118.837 187.718 118.71C187.469 118.583 187.162 118.52 186.795 118.52C186.454 118.52 186.153 118.579 185.895 118.696C185.641 118.813 185.44 118.967 185.294 119.157C185.152 119.348 185.082 119.553 185.082 119.772H183.727C183.727 119.489 183.8 119.208 183.946 118.93C184.093 118.652 184.303 118.4 184.576 118.176C184.854 117.946 185.187 117.766 185.572 117.634C185.963 117.497 186.397 117.429 186.876 117.429C187.452 117.429 187.96 117.526 188.399 117.722C188.844 117.917 189.19 118.212 189.439 118.608C189.693 118.999 189.82 119.489 189.82 120.08V123.771C189.82 124.035 189.842 124.316 189.886 124.614C189.935 124.912 190.006 125.168 190.099 125.383V125.5H188.685C188.617 125.344 188.563 125.136 188.524 124.877C188.485 124.614 188.465 124.37 188.465 124.145ZM188.7 120.695L188.714 121.647H187.345C186.959 121.647 186.615 121.679 186.312 121.743C186.009 121.801 185.755 121.892 185.55 122.014C185.345 122.136 185.189 122.29 185.082 122.475C184.974 122.656 184.92 122.868 184.92 123.112C184.92 123.361 184.977 123.588 185.089 123.793C185.201 123.999 185.37 124.162 185.594 124.284C185.824 124.401 186.104 124.46 186.437 124.46C186.852 124.46 187.218 124.372 187.535 124.196C187.853 124.021 188.104 123.806 188.29 123.552C188.48 123.298 188.583 123.051 188.597 122.812L189.176 123.464C189.142 123.669 189.049 123.896 188.897 124.145C188.746 124.394 188.543 124.633 188.29 124.863C188.041 125.087 187.743 125.275 187.396 125.427C187.054 125.573 186.668 125.646 186.239 125.646C185.702 125.646 185.23 125.542 184.825 125.332C184.425 125.122 184.112 124.841 183.888 124.489C183.668 124.133 183.558 123.735 183.558 123.295C183.558 122.871 183.641 122.497 183.807 122.175C183.973 121.848 184.212 121.577 184.525 121.362C184.837 121.142 185.213 120.976 185.653 120.864C186.092 120.751 186.583 120.695 187.125 120.695H188.7ZM193.424 114.25V125.5H192.062V114.25H193.424Z" fill="black"/>
<path d="M52.6084 89.6641V92.2744H51.2461V89.6641H52.6084ZM52.4414 104.017V106.372H51.0879V104.017H52.4414ZM53.584 101.151C53.584 100.817 53.5195 100.527 53.3906 100.281C53.2676 100.035 53.0596 99.8154 52.7666 99.6221C52.4795 99.4287 52.0928 99.2441 51.6064 99.0684C50.8506 98.793 50.1885 98.4912 49.6201 98.1631C49.0518 97.8291 48.6094 97.416 48.293 96.9238C47.9824 96.4316 47.8271 95.8105 47.8271 95.0605C47.8271 94.3398 47.9941 93.7158 48.3281 93.1885C48.668 92.6553 49.1396 92.2451 49.7432 91.958C50.3467 91.665 51.0469 91.5186 51.8438 91.5186C52.4648 91.5186 53.0215 91.6123 53.5137 91.7998C54.0117 91.9814 54.4365 92.248 54.7881 92.5996C55.1455 92.9512 55.418 93.3848 55.6055 93.9004C55.7988 94.4102 55.8955 94.9932 55.8955 95.6494H53.5752C53.5752 95.2861 53.5342 94.9639 53.4521 94.6826C53.3701 94.4014 53.2529 94.1641 53.1006 93.9707C52.9482 93.7715 52.7637 93.6221 52.5469 93.5225C52.3359 93.4229 52.0957 93.373 51.8262 93.373C51.4395 93.373 51.1201 93.4463 50.8682 93.5928C50.6221 93.7393 50.4404 93.9385 50.3232 94.1904C50.2119 94.4424 50.1562 94.7324 50.1562 95.0605C50.1562 95.377 50.2148 95.6553 50.332 95.8955C50.4551 96.1299 50.6602 96.3438 50.9473 96.5371C51.2402 96.7305 51.6416 96.9268 52.1514 97.126C52.9131 97.4072 53.5752 97.7178 54.1377 98.0576C54.7002 98.3916 55.1367 98.8018 55.4473 99.2881C55.7578 99.7744 55.9131 100.39 55.9131 101.134C55.9131 101.896 55.7373 102.54 55.3857 103.067C55.04 103.595 54.5537 103.996 53.9268 104.271C53.2998 104.547 52.5703 104.685 51.7383 104.685C51.2051 104.685 50.6777 104.614 50.1562 104.474C49.6348 104.333 49.1602 104.104 48.7324 103.788C48.3105 103.466 47.9736 103.041 47.7217 102.514C47.4697 101.98 47.3438 101.327 47.3438 100.554H49.6729C49.6729 100.999 49.7314 101.368 49.8486 101.661C49.9658 101.954 50.124 102.188 50.3232 102.364C50.5225 102.534 50.7451 102.654 50.9912 102.725C51.2373 102.795 51.4863 102.83 51.7383 102.83C52.1484 102.83 52.4883 102.76 52.7578 102.619C53.0332 102.479 53.2383 102.282 53.373 102.03C53.5137 101.772 53.584 101.479 53.584 101.151ZM63.6826 91.668V104.5H61.3535V94.3838L58.2686 95.4033V93.5225L63.4189 91.668H63.6826ZM70.292 98.6113L68.4375 98.1631L69.1494 91.7031H76.1895V93.6279H71.0742L70.7402 96.6162C70.9219 96.5049 71.1855 96.3936 71.5312 96.2822C71.8828 96.165 72.2783 96.1064 72.7178 96.1064C73.3271 96.1064 73.8721 96.2061 74.3525 96.4053C74.833 96.5986 75.2402 96.8799 75.5742 97.249C75.9141 97.6182 76.1689 98.0693 76.3389 98.6025C76.5146 99.1299 76.6025 99.7275 76.6025 100.396C76.6025 100.981 76.5146 101.532 76.3389 102.048C76.1689 102.558 75.9082 103.012 75.5566 103.41C75.2051 103.803 74.7627 104.113 74.2295 104.342C73.6963 104.564 73.0693 104.676 72.3486 104.676C71.8037 104.676 71.2793 104.597 70.7754 104.438C70.2773 104.274 69.8291 104.037 69.4307 103.727C69.0322 103.41 68.7129 103.023 68.4727 102.566C68.2383 102.109 68.1094 101.585 68.0859 100.993H70.3799C70.4209 101.386 70.5264 101.72 70.6963 101.995C70.8662 102.271 71.0889 102.481 71.3643 102.628C71.6455 102.774 71.9707 102.848 72.3398 102.848C72.6738 102.848 72.9609 102.786 73.2012 102.663C73.4473 102.534 73.6494 102.355 73.8076 102.127C73.9658 101.898 74.083 101.629 74.1592 101.318C74.2354 101.008 74.2734 100.668 74.2734 100.299C74.2734 99.9414 74.2295 99.6162 74.1416 99.3232C74.0537 99.0244 73.9189 98.7666 73.7373 98.5498C73.5557 98.333 73.3271 98.166 73.0518 98.0488C72.7822 97.9316 72.4658 97.873 72.1025 97.873C71.6162 97.873 71.2412 97.9463 70.9775 98.0928C70.7197 98.2393 70.4912 98.4121 70.292 98.6113ZM80.584 102.408L80.5664 104.017C80.5664 104.644 80.4111 105.279 80.1006 105.924C79.79 106.568 79.3887 107.102 78.8965 107.523L77.666 106.847C77.8242 106.583 77.9707 106.316 78.1055 106.047C78.2461 105.777 78.3574 105.484 78.4395 105.168C78.5273 104.857 78.5713 104.509 78.5713 104.122V102.408H80.584ZM91.1045 91.7031V92.9688L86.0771 104.5H83.625L88.6523 93.5312H82.1484V91.7031H91.1045ZM95.0947 98.6113L93.2402 98.1631L93.9521 91.7031H100.992V93.6279H95.877L95.543 96.6162C95.7246 96.5049 95.9883 96.3936 96.334 96.2822C96.6855 96.165 97.0811 96.1064 97.5205 96.1064C98.1299 96.1064 98.6748 96.2061 99.1553 96.4053C99.6357 96.5986 100.043 96.8799 100.377 97.249C100.717 97.6182 100.972 98.0693 101.142 98.6025C101.317 99.1299 101.405 99.7275 101.405 100.396C101.405 100.981 101.317 101.532 101.142 102.048C100.972 102.558 100.711 103.012 100.359 103.41C100.008 103.803 99.5654 104.113 99.0322 104.342C98.499 104.564 97.8721 104.676 97.1514 104.676C96.6064 104.676 96.082 104.597 95.5781 104.438C95.0801 104.274 94.6318 104.037 94.2334 103.727C93.835 103.41 93.5156 103.023 93.2754 102.566C93.041 102.109 92.9121 101.585 92.8887 100.993H95.1826C95.2236 101.386 95.3291 101.72 95.499 101.995C95.6689 102.271 95.8916 102.481 96.167 102.628C96.4482 102.774 96.7734 102.848 97.1426 102.848C97.4766 102.848 97.7637 102.786 98.0039 102.663C98.25 102.534 98.4521 102.355 98.6104 102.127C98.7686 101.898 98.8857 101.629 98.9619 101.318C99.0381 101.008 99.0762 100.668 99.0762 100.299C99.0762 99.9414 99.0322 99.6162 98.9443 99.3232C98.8564 99.0244 98.7217 98.7666 98.54 98.5498C98.3584 98.333 98.1299 98.166 97.8545 98.0488C97.585 97.9316 97.2686 97.873 96.9053 97.873C96.4189 97.873 96.0439 97.9463 95.7803 98.0928C95.5225 98.2393 95.2939 98.4121 95.0947 98.6113ZM111.548 97.0029V99.1562C111.548 100.141 111.448 100.981 111.249 101.679C111.05 102.376 110.763 102.947 110.388 103.393C110.013 103.832 109.564 104.157 109.043 104.368C108.521 104.573 107.941 104.676 107.303 104.676C106.793 104.676 106.318 104.611 105.879 104.482C105.439 104.348 105.044 104.143 104.692 103.867C104.347 103.586 104.048 103.229 103.796 102.795C103.55 102.361 103.359 101.843 103.225 101.239C103.096 100.636 103.031 99.9414 103.031 99.1562V97.0029C103.031 96.0186 103.131 95.1807 103.33 94.4893C103.535 93.7979 103.825 93.2324 104.2 92.793C104.575 92.3535 105.023 92.0342 105.545 91.835C106.066 91.6299 106.646 91.5273 107.285 91.5273C107.801 91.5273 108.275 91.5918 108.709 91.7207C109.148 91.8496 109.541 92.0518 109.887 92.3271C110.238 92.5967 110.537 92.9482 110.783 93.3818C111.029 93.8096 111.217 94.3252 111.346 94.9287C111.48 95.5264 111.548 96.2178 111.548 97.0029ZM109.228 99.4727V96.6777C109.228 96.1855 109.198 95.7578 109.14 95.3945C109.087 95.0254 109.008 94.7119 108.902 94.4541C108.797 94.1963 108.665 93.9883 108.507 93.8301C108.349 93.666 108.167 93.5459 107.962 93.4697C107.757 93.3936 107.531 93.3555 107.285 93.3555C106.98 93.3555 106.708 93.417 106.468 93.54C106.228 93.6572 106.025 93.8447 105.861 94.1025C105.697 94.3604 105.571 94.7031 105.483 95.1309C105.401 95.5527 105.36 96.0684 105.36 96.6777V99.4727C105.36 99.9648 105.387 100.396 105.439 100.765C105.498 101.134 105.58 101.45 105.686 101.714C105.797 101.978 105.929 102.194 106.081 102.364C106.239 102.528 106.421 102.651 106.626 102.733C106.831 102.81 107.057 102.848 107.303 102.848C107.613 102.848 107.886 102.786 108.12 102.663C108.36 102.54 108.562 102.347 108.727 102.083C108.891 101.813 109.014 101.465 109.096 101.037C109.184 100.604 109.228 100.082 109.228 99.4727Z" fill="#2F368F"/>
<path d="M572.691 123.398C572.691 123.203 572.647 123.022 572.559 122.856C572.476 122.685 572.303 122.531 572.039 122.395C571.781 122.253 571.39 122.131 570.867 122.028C570.428 121.936 570.03 121.826 569.674 121.699C569.322 121.572 569.022 121.418 568.773 121.237C568.529 121.057 568.341 120.844 568.209 120.6C568.077 120.356 568.011 120.07 568.011 119.743C568.011 119.431 568.079 119.135 568.216 118.857C568.358 118.579 568.555 118.332 568.809 118.117C569.068 117.902 569.378 117.734 569.74 117.612C570.101 117.49 570.504 117.429 570.948 117.429C571.583 117.429 572.125 117.541 572.574 117.766C573.023 117.99 573.367 118.291 573.607 118.667C573.846 119.038 573.966 119.45 573.966 119.904H572.611C572.611 119.685 572.545 119.472 572.413 119.267C572.286 119.057 572.098 118.884 571.849 118.747C571.605 118.61 571.304 118.542 570.948 118.542C570.572 118.542 570.267 118.601 570.032 118.718C569.803 118.83 569.635 118.974 569.527 119.15C569.425 119.326 569.373 119.511 569.373 119.707C569.373 119.853 569.398 119.985 569.447 120.102C569.5 120.214 569.593 120.319 569.725 120.417C569.857 120.51 570.042 120.598 570.281 120.681C570.521 120.764 570.826 120.847 571.197 120.93C571.846 121.076 572.381 121.252 572.801 121.457C573.221 121.662 573.533 121.914 573.739 122.211C573.944 122.509 574.046 122.871 574.046 123.295C574.046 123.642 573.973 123.959 573.826 124.248C573.685 124.536 573.477 124.785 573.204 124.995C572.935 125.2 572.613 125.361 572.237 125.478C571.866 125.59 571.448 125.646 570.985 125.646C570.286 125.646 569.696 125.522 569.212 125.273C568.729 125.024 568.363 124.702 568.114 124.306C567.865 123.911 567.74 123.493 567.74 123.054H569.102C569.122 123.425 569.229 123.72 569.425 123.94C569.62 124.155 569.859 124.309 570.142 124.401C570.426 124.489 570.706 124.533 570.985 124.533C571.356 124.533 571.666 124.484 571.915 124.387C572.169 124.289 572.362 124.155 572.493 123.984C572.625 123.813 572.691 123.618 572.691 123.398ZM579.144 117.575V118.615H574.859V117.575H579.144ZM576.309 115.649H577.664V123.537C577.664 123.806 577.706 124.008 577.789 124.145C577.872 124.282 577.979 124.372 578.111 124.416C578.243 124.46 578.385 124.482 578.536 124.482C578.648 124.482 578.765 124.472 578.887 124.453C579.014 124.428 579.11 124.409 579.173 124.394L579.18 125.5C579.073 125.534 578.931 125.566 578.756 125.595C578.585 125.629 578.377 125.646 578.133 125.646C577.801 125.646 577.496 125.581 577.218 125.449C576.939 125.317 576.717 125.097 576.551 124.79C576.39 124.477 576.309 124.057 576.309 123.53V115.649ZM582.205 117.575V125.5H580.843V117.575H582.205ZM580.74 115.473C580.74 115.253 580.806 115.068 580.938 114.917C581.075 114.765 581.275 114.689 581.539 114.689C581.798 114.689 581.995 114.765 582.132 114.917C582.274 115.068 582.344 115.253 582.344 115.473C582.344 115.683 582.274 115.864 582.132 116.015C581.995 116.162 581.798 116.235 581.539 116.235C581.275 116.235 581.075 116.162 580.938 116.015C580.806 115.864 580.74 115.683 580.74 115.473ZM585.853 114.25V125.5H584.49V114.25H585.853ZM589.5 114.25V125.5H588.138V114.25H589.5ZM596.751 119.267V125.5H595.396V117.575H596.678L596.751 119.267ZM596.429 121.237L595.865 121.215C595.87 120.673 595.95 120.173 596.107 119.714C596.263 119.25 596.483 118.847 596.766 118.505C597.049 118.164 597.386 117.9 597.777 117.714C598.172 117.524 598.609 117.429 599.088 117.429C599.478 117.429 599.83 117.482 600.142 117.59C600.455 117.692 600.721 117.858 600.941 118.088C601.165 118.317 601.336 118.615 601.453 118.981C601.571 119.343 601.629 119.785 601.629 120.307V125.5H600.267V120.292C600.267 119.877 600.206 119.545 600.084 119.296C599.962 119.042 599.783 118.859 599.549 118.747C599.315 118.63 599.027 118.571 598.685 118.571C598.348 118.571 598.04 118.642 597.762 118.784C597.489 118.925 597.252 119.121 597.052 119.37C596.856 119.619 596.702 119.904 596.59 120.227C596.483 120.544 596.429 120.881 596.429 121.237ZM606.976 125.646C606.424 125.646 605.924 125.554 605.474 125.368C605.03 125.178 604.647 124.912 604.324 124.57C604.007 124.228 603.763 123.823 603.592 123.354C603.421 122.885 603.336 122.373 603.336 121.816V121.508C603.336 120.864 603.431 120.29 603.621 119.787C603.812 119.279 604.071 118.85 604.398 118.498C604.725 118.146 605.096 117.88 605.511 117.7C605.926 117.519 606.356 117.429 606.8 117.429C607.366 117.429 607.855 117.526 608.265 117.722C608.68 117.917 609.019 118.19 609.283 118.542C609.547 118.889 609.742 119.299 609.869 119.772C609.996 120.241 610.059 120.754 610.059 121.311V121.918H604.141V120.812H608.704V120.71C608.685 120.358 608.612 120.017 608.485 119.685C608.363 119.353 608.167 119.079 607.899 118.864C607.63 118.649 607.264 118.542 606.8 118.542C606.492 118.542 606.209 118.608 605.95 118.74C605.692 118.867 605.469 119.057 605.284 119.311C605.098 119.565 604.954 119.875 604.852 120.241C604.749 120.607 604.698 121.03 604.698 121.508V121.816C604.698 122.192 604.749 122.546 604.852 122.878C604.959 123.205 605.113 123.493 605.313 123.742C605.518 123.991 605.765 124.187 606.053 124.328C606.346 124.47 606.678 124.541 607.049 124.541C607.528 124.541 607.933 124.443 608.265 124.248C608.597 124.052 608.887 123.791 609.136 123.464L609.957 124.116C609.786 124.375 609.569 124.621 609.305 124.855C609.041 125.09 608.717 125.28 608.331 125.427C607.95 125.573 607.498 125.646 606.976 125.646ZM614.93 125.646C614.378 125.646 613.878 125.554 613.428 125.368C612.984 125.178 612.601 124.912 612.279 124.57C611.961 124.228 611.717 123.823 611.546 123.354C611.375 122.885 611.29 122.373 611.29 121.816V121.508C611.29 120.864 611.385 120.29 611.575 119.787C611.766 119.279 612.025 118.85 612.352 118.498C612.679 118.146 613.05 117.88 613.465 117.7C613.88 117.519 614.31 117.429 614.754 117.429C615.321 117.429 615.809 117.526 616.219 117.722C616.634 117.917 616.973 118.19 617.237 118.542C617.501 118.889 617.696 119.299 617.823 119.772C617.95 120.241 618.013 120.754 618.013 121.311V121.918H612.095V120.812H616.658V120.71C616.639 120.358 616.566 120.017 616.439 119.685C616.317 119.353 616.121 119.079 615.853 118.864C615.584 118.649 615.218 118.542 614.754 118.542C614.447 118.542 614.163 118.608 613.905 118.74C613.646 118.867 613.424 119.057 613.238 119.311C613.052 119.565 612.908 119.875 612.806 120.241C612.703 120.607 612.652 121.03 612.652 121.508V121.816C612.652 122.192 612.703 122.546 612.806 122.878C612.913 123.205 613.067 123.493 613.267 123.742C613.472 123.991 613.719 124.187 614.007 124.328C614.3 124.47 614.632 124.541 615.003 124.541C615.482 124.541 615.887 124.443 616.219 124.248C616.551 124.052 616.842 123.791 617.091 123.464L617.911 124.116C617.74 124.375 617.523 124.621 617.259 124.855C616.995 125.09 616.671 125.28 616.285 125.427C615.904 125.573 615.452 125.646 614.93 125.646ZM624.591 123.962V114.25H625.953V125.5H624.708L624.591 123.962ZM619.259 121.625V121.472C619.259 120.866 619.332 120.317 619.478 119.824C619.63 119.326 619.842 118.898 620.115 118.542C620.394 118.186 620.723 117.912 621.104 117.722C621.49 117.526 621.92 117.429 622.393 117.429C622.891 117.429 623.326 117.517 623.697 117.692C624.073 117.863 624.39 118.115 624.649 118.447C624.913 118.774 625.12 119.169 625.272 119.633C625.423 120.097 625.528 120.622 625.587 121.208V121.882C625.533 122.463 625.428 122.985 625.272 123.449C625.12 123.913 624.913 124.309 624.649 124.636C624.39 124.963 624.073 125.214 623.697 125.39C623.321 125.561 622.882 125.646 622.379 125.646C621.915 125.646 621.49 125.546 621.104 125.346C620.723 125.146 620.394 124.865 620.115 124.504C619.842 124.143 619.63 123.718 619.478 123.229C619.332 122.736 619.259 122.202 619.259 121.625ZM620.621 121.472V121.625C620.621 122.021 620.66 122.392 620.738 122.739C620.821 123.085 620.948 123.391 621.119 123.654C621.29 123.918 621.507 124.125 621.771 124.277C622.034 124.423 622.349 124.497 622.716 124.497C623.165 124.497 623.533 124.401 623.822 124.211C624.115 124.021 624.349 123.769 624.525 123.457C624.7 123.144 624.837 122.805 624.935 122.438V120.673C624.876 120.405 624.791 120.146 624.678 119.897C624.571 119.643 624.429 119.418 624.254 119.223C624.083 119.023 623.87 118.864 623.616 118.747C623.367 118.63 623.072 118.571 622.73 118.571C622.359 118.571 622.039 118.649 621.771 118.806C621.507 118.957 621.29 119.167 621.119 119.436C620.948 119.699 620.821 120.007 620.738 120.358C620.66 120.705 620.621 121.076 620.621 121.472ZM631.351 125.646C630.799 125.646 630.299 125.554 629.849 125.368C629.405 125.178 629.022 124.912 628.699 124.57C628.382 124.228 628.138 123.823 627.967 123.354C627.796 122.885 627.711 122.373 627.711 121.816V121.508C627.711 120.864 627.806 120.29 627.996 119.787C628.187 119.279 628.446 118.85 628.773 118.498C629.1 118.146 629.471 117.88 629.886 117.7C630.301 117.519 630.731 117.429 631.175 117.429C631.741 117.429 632.23 117.526 632.64 117.722C633.055 117.917 633.394 118.19 633.658 118.542C633.922 118.889 634.117 119.299 634.244 119.772C634.371 120.241 634.434 120.754 634.434 121.311V121.918H628.516V120.812H633.079V120.71C633.06 120.358 632.987 120.017 632.86 119.685C632.738 119.353 632.542 119.079 632.274 118.864C632.005 118.649 631.639 118.542 631.175 118.542C630.867 118.542 630.584 118.608 630.325 118.74C630.067 118.867 629.844 119.057 629.659 119.311C629.473 119.565 629.329 119.875 629.227 120.241C629.124 120.607 629.073 121.03 629.073 121.508V121.816C629.073 122.192 629.124 122.546 629.227 122.878C629.334 123.205 629.488 123.493 629.688 123.742C629.893 123.991 630.14 124.187 630.428 124.328C630.721 124.47 631.053 124.541 631.424 124.541C631.903 124.541 632.308 124.443 632.64 124.248C632.972 124.052 633.262 123.791 633.511 123.464L634.332 124.116C634.161 124.375 633.944 124.621 633.68 124.855C633.416 125.09 633.092 125.28 632.706 125.427C632.325 125.573 631.873 125.646 631.351 125.646ZM641.011 123.962V114.25H642.374V125.5H641.129L641.011 123.962ZM635.679 121.625V121.472C635.679 120.866 635.753 120.317 635.899 119.824C636.051 119.326 636.263 118.898 636.536 118.542C636.815 118.186 637.144 117.912 637.525 117.722C637.911 117.526 638.341 117.429 638.814 117.429C639.312 117.429 639.747 117.517 640.118 117.692C640.494 117.863 640.811 118.115 641.07 118.447C641.334 118.774 641.541 119.169 641.693 119.633C641.844 120.097 641.949 120.622 642.008 121.208V121.882C641.954 122.463 641.849 122.985 641.693 123.449C641.541 123.913 641.334 124.309 641.07 124.636C640.811 124.963 640.494 125.214 640.118 125.39C639.742 125.561 639.302 125.646 638.8 125.646C638.336 125.646 637.911 125.546 637.525 125.346C637.144 125.146 636.815 124.865 636.536 124.504C636.263 124.143 636.051 123.718 635.899 123.229C635.753 122.736 635.679 122.202 635.679 121.625ZM637.042 121.472V121.625C637.042 122.021 637.081 122.392 637.159 122.739C637.242 123.085 637.369 123.391 637.54 123.654C637.711 123.918 637.928 124.125 638.192 124.277C638.455 124.423 638.77 124.497 639.136 124.497C639.586 124.497 639.954 124.401 640.242 124.211C640.535 124.021 640.77 123.769 640.946 123.457C641.121 123.144 641.258 122.805 641.356 122.438V120.673C641.297 120.405 641.212 120.146 641.099 119.897C640.992 119.643 640.85 119.418 640.675 119.223C640.504 119.023 640.291 118.864 640.037 118.747C639.788 118.63 639.493 118.571 639.151 118.571C638.78 118.571 638.46 118.649 638.192 118.806C637.928 118.957 637.711 119.167 637.54 119.436C637.369 119.699 637.242 120.007 637.159 120.358C637.081 120.705 637.042 121.076 637.042 121.472Z" fill="black"/>
<path d="M595.983 89.6641V92.2744H594.621V89.6641H595.983ZM595.816 104.017V106.372H594.463V104.017H595.816ZM596.959 101.151C596.959 100.817 596.895 100.527 596.766 100.281C596.643 100.035 596.435 99.8154 596.142 99.6221C595.854 99.4287 595.468 99.2441 594.981 99.0684C594.226 98.793 593.563 98.4912 592.995 98.1631C592.427 97.8291 591.984 97.416 591.668 96.9238C591.357 96.4316 591.202 95.8105 591.202 95.0605C591.202 94.3398 591.369 93.7158 591.703 93.1885C592.043 92.6553 592.515 92.2451 593.118 91.958C593.722 91.665 594.422 91.5186 595.219 91.5186C595.84 91.5186 596.396 91.6123 596.889 91.7998C597.387 91.9814 597.812 92.248 598.163 92.5996C598.521 92.9512 598.793 93.3848 598.98 93.9004C599.174 94.4102 599.271 94.9932 599.271 95.6494H596.95C596.95 95.2861 596.909 94.9639 596.827 94.6826C596.745 94.4014 596.628 94.1641 596.476 93.9707C596.323 93.7715 596.139 93.6221 595.922 93.5225C595.711 93.4229 595.471 93.373 595.201 93.373C594.814 93.373 594.495 93.4463 594.243 93.5928C593.997 93.7393 593.815 93.9385 593.698 94.1904C593.587 94.4424 593.531 94.7324 593.531 95.0605C593.531 95.377 593.59 95.6553 593.707 95.8955C593.83 96.1299 594.035 96.3438 594.322 96.5371C594.615 96.7305 595.017 96.9268 595.526 97.126C596.288 97.4072 596.95 97.7178 597.513 98.0576C598.075 98.3916 598.512 98.8018 598.822 99.2881C599.133 99.7744 599.288 100.39 599.288 101.134C599.288 101.896 599.112 102.54 598.761 103.067C598.415 103.595 597.929 103.996 597.302 104.271C596.675 104.547 595.945 104.685 595.113 104.685C594.58 104.685 594.053 104.614 593.531 104.474C593.01 104.333 592.535 104.104 592.107 103.788C591.686 103.466 591.349 103.041 591.097 102.514C590.845 101.98 590.719 101.327 590.719 100.554H593.048C593.048 100.999 593.106 101.368 593.224 101.661C593.341 101.954 593.499 102.188 593.698 102.364C593.897 102.534 594.12 102.654 594.366 102.725C594.612 102.795 594.861 102.83 595.113 102.83C595.523 102.83 595.863 102.76 596.133 102.619C596.408 102.479 596.613 102.282 596.748 102.03C596.889 101.772 596.959 101.479 596.959 101.151ZM602.83 102.698H602.997C603.753 102.698 604.392 102.602 604.913 102.408C605.44 102.215 605.865 101.942 606.188 101.591C606.516 101.233 606.753 100.809 606.899 100.316C607.052 99.8184 607.128 99.2676 607.128 98.6641V96.3438C607.128 95.8516 607.078 95.4209 606.979 95.0518C606.879 94.6768 606.738 94.3633 606.557 94.1113C606.381 93.8594 606.173 93.6719 605.933 93.5488C605.692 93.4199 605.435 93.3555 605.159 93.3555C604.854 93.3555 604.585 93.4258 604.351 93.5664C604.116 93.707 603.917 93.9004 603.753 94.1465C603.595 94.3867 603.472 94.665 603.384 94.9814C603.302 95.2979 603.261 95.6318 603.261 95.9834C603.261 96.3232 603.299 96.6484 603.375 96.959C603.457 97.2695 603.577 97.5449 603.735 97.7852C603.899 98.0254 604.104 98.2158 604.351 98.3564C604.597 98.4912 604.884 98.5586 605.212 98.5586C605.522 98.5586 605.804 98.5 606.056 98.3828C606.313 98.2598 606.536 98.0986 606.724 97.8994C606.911 97.6943 607.055 97.4688 607.154 97.2227C607.26 96.9707 607.318 96.7158 607.33 96.458L608.147 96.8096C608.147 97.2373 608.057 97.6592 607.875 98.0752C607.699 98.4912 607.45 98.8691 607.128 99.209C606.812 99.543 606.442 99.8125 606.021 100.018C605.599 100.217 605.145 100.316 604.658 100.316C604.055 100.316 603.521 100.205 603.059 99.9824C602.596 99.7598 602.206 99.4521 601.89 99.0596C601.579 98.6611 601.345 98.2041 601.187 97.6885C601.028 97.167 600.949 96.6104 600.949 96.0186C600.949 95.4033 601.046 94.8262 601.239 94.2871C601.433 93.7422 601.711 93.2646 602.074 92.8545C602.443 92.4385 602.889 92.1133 603.41 91.8789C603.932 91.6387 604.518 91.5186 605.168 91.5186C605.842 91.5186 606.442 91.6504 606.97 91.9141C607.497 92.1777 607.945 92.5439 608.314 93.0127C608.684 93.4756 608.965 94.0234 609.158 94.6562C609.357 95.2891 609.457 95.9805 609.457 96.7305V97.5479C609.457 98.3389 609.378 99.0889 609.22 99.7979C609.062 100.507 608.818 101.154 608.49 101.74C608.162 102.326 607.743 102.833 607.233 103.261C606.729 103.688 606.126 104.02 605.423 104.254C604.726 104.482 603.929 104.597 603.032 104.597H602.83V102.698ZM613.676 102.408L613.658 104.017C613.658 104.644 613.503 105.279 613.192 105.924C612.882 106.568 612.48 107.102 611.988 107.523L610.758 106.847C610.916 106.583 611.062 106.316 611.197 106.047C611.338 105.777 611.449 105.484 611.531 105.168C611.619 104.857 611.663 104.509 611.663 104.122V102.408H613.676ZM624.267 102.672V104.5H615.601V102.936L619.758 98.4443C620.191 97.9521 620.534 97.5244 620.786 97.1611C621.038 96.7979 621.217 96.4697 621.322 96.1768C621.434 95.8779 621.489 95.5938 621.489 95.3242C621.489 94.9316 621.419 94.5889 621.278 94.2959C621.138 93.9971 620.933 93.7656 620.663 93.6016C620.399 93.4375 620.074 93.3555 619.688 93.3555C619.26 93.3555 618.894 93.4551 618.589 93.6543C618.29 93.8477 618.062 94.1172 617.903 94.4629C617.751 94.8086 617.675 95.2041 617.675 95.6494H615.346C615.346 94.8936 615.521 94.2051 615.873 93.584C616.225 92.957 616.729 92.4561 617.385 92.0811C618.041 91.7061 618.82 91.5186 619.723 91.5186C620.602 91.5186 621.346 91.665 621.955 91.958C622.564 92.2451 623.027 92.6553 623.344 93.1885C623.66 93.7217 623.818 94.3574 623.818 95.0957C623.818 95.5059 623.751 95.9102 623.616 96.3086C623.481 96.707 623.291 97.1025 623.045 97.4951C622.805 97.8818 622.518 98.2744 622.184 98.6729C621.85 99.0713 621.478 99.4785 621.067 99.8945L618.571 102.672H624.267ZM628.187 98.6113L626.332 98.1631L627.044 91.7031H634.084V93.6279H628.969L628.635 96.6162C628.816 96.5049 629.08 96.3936 629.426 96.2822C629.777 96.165 630.173 96.1064 630.612 96.1064C631.222 96.1064 631.767 96.2061 632.247 96.4053C632.728 96.5986 633.135 96.8799 633.469 97.249C633.809 97.6182 634.063 98.0693 634.233 98.6025C634.409 99.1299 634.497 99.7275 634.497 100.396C634.497 100.981 634.409 101.532 634.233 102.048C634.063 102.558 633.803 103.012 633.451 103.41C633.1 103.803 632.657 104.113 632.124 104.342C631.591 104.564 630.964 104.676 630.243 104.676C629.698 104.676 629.174 104.597 628.67 104.438C628.172 104.274 627.724 104.037 627.325 103.727C626.927 103.41 626.607 103.023 626.367 102.566C626.133 102.109 626.004 101.585 625.98 100.993H628.274C628.315 101.386 628.421 101.72 628.591 101.995C628.761 102.271 628.983 102.481 629.259 102.628C629.54 102.774 629.865 102.848 630.234 102.848C630.568 102.848 630.855 102.786 631.096 102.663C631.342 102.534 631.544 102.355 631.702 102.127C631.86 101.898 631.978 101.629 632.054 101.318C632.13 101.008 632.168 100.668 632.168 100.299C632.168 99.9414 632.124 99.6162 632.036 99.3232C631.948 99.0244 631.813 98.7666 631.632 98.5498C631.45 98.333 631.222 98.166 630.946 98.0488C630.677 97.9316 630.36 97.873 629.997 97.873C629.511 97.873 629.136 97.9463 628.872 98.0928C628.614 98.2393 628.386 98.4121 628.187 98.6113ZM644.64 97.0029V99.1562C644.64 100.141 644.54 100.981 644.341 101.679C644.142 102.376 643.854 102.947 643.479 103.393C643.104 103.832 642.656 104.157 642.135 104.368C641.613 104.573 641.033 104.676 640.395 104.676C639.885 104.676 639.41 104.611 638.971 104.482C638.531 104.348 638.136 104.143 637.784 103.867C637.438 103.586 637.14 103.229 636.888 102.795C636.642 102.361 636.451 101.843 636.316 101.239C636.188 100.636 636.123 99.9414 636.123 99.1562V97.0029C636.123 96.0186 636.223 95.1807 636.422 94.4893C636.627 93.7979 636.917 93.2324 637.292 92.793C637.667 92.3535 638.115 92.0342 638.637 91.835C639.158 91.6299 639.738 91.5273 640.377 91.5273C640.893 91.5273 641.367 91.5918 641.801 91.7207C642.24 91.8496 642.633 92.0518 642.979 92.3271C643.33 92.5967 643.629 92.9482 643.875 93.3818C644.121 93.8096 644.309 94.3252 644.438 94.9287C644.572 95.5264 644.64 96.2178 644.64 97.0029ZM642.319 99.4727V96.6777C642.319 96.1855 642.29 95.7578 642.231 95.3945C642.179 95.0254 642.1 94.7119 641.994 94.4541C641.889 94.1963 641.757 93.9883 641.599 93.8301C641.44 93.666 641.259 93.5459 641.054 93.4697C640.849 93.3936 640.623 93.3555 640.377 93.3555C640.072 93.3555 639.8 93.417 639.56 93.54C639.319 93.6572 639.117 93.8447 638.953 94.1025C638.789 94.3604 638.663 94.7031 638.575 95.1309C638.493 95.5527 638.452 96.0684 638.452 96.6777V99.4727C638.452 99.9648 638.479 100.396 638.531 100.765C638.59 101.134 638.672 101.45 638.777 101.714C638.889 101.978 639.021 102.194 639.173 102.364C639.331 102.528 639.513 102.651 639.718 102.733C639.923 102.81 640.148 102.848 640.395 102.848C640.705 102.848 640.978 102.786 641.212 102.663C641.452 102.54 641.654 102.347 641.818 102.083C641.982 101.813 642.105 101.465 642.188 101.037C642.275 100.604 642.319 100.082 642.319 99.4727Z" fill="#2F368F"/>
</g>
<defs>
<filter id="filter0_d_181_1580" x="0" y="0" width="708" height="179" filterUnits="userSpaceOnUse" color-interpolation-filters="sRGB">
<feFlood flood-opacity="0" result="BackgroundImageFix"/>
<feColorMatrix in="SourceAlpha" type="matrix" values="0 0 0 0 0 0 0 0 0 0 0 0 0 0 0 0 0 0 127 0" result="hardAlpha"/>
<feOffset dy="9"/>
<feGaussianBlur stdDeviation="14.25"/>
<feComposite in2="hardAlpha" operator="out"/>
<feColorMatrix type="matrix" values="0 0 0 0 0 0 0 0 0 0 0 0 0 0 0 0 0 0 0.09 0"/>
<feBlend mode="normal" in2="BackgroundImageFix" result="effect1_dropShadow_181_1580"/>
<feBlend mode="normal" in="SourceGraphic" in2="effect1_dropShadow_181_1580" result="shape"/>
</filter>
<linearGradient id="paint0_linear_181_1580" x1="46.5" y1="66.5" x2="450.516" y2="66.5" gradientUnits="userSpaceOnUse">
<stop stop-color="#FFDF92"/>
<stop offset="1" stop-color="#FFB500"/>
</linearGradient>
</defs>
</svg>
