<svg width="501" height="106" viewBox="0 0 501 106" fill="none" xmlns="http://www.w3.org/2000/svg">
<g filter="url(#filter0_d_181_1593)">
<rect x="28.5" y="19.5" width="443.782" height="48.8081" rx="24.404" fill="#FDB913"/>
<path d="M195.966 45.177H193.552V43.9091H195.966C196.387 43.9091 196.727 43.8412 196.986 43.7052C197.245 43.5693 197.434 43.3824 197.553 43.1446C197.676 42.9024 197.738 42.6263 197.738 42.3163C197.738 42.0232 197.676 41.7492 197.553 41.4944C197.434 41.2352 197.245 41.0271 196.986 40.87C196.727 40.7128 196.387 40.6342 195.966 40.6342H194.042V48.6367H192.443V39.3599H195.966C196.684 39.3599 197.294 39.4874 197.795 39.7422C198.3 39.9928 198.685 40.3411 198.948 40.7871C199.212 41.2289 199.343 41.7343 199.343 42.3035C199.343 42.9024 199.212 43.4164 198.948 43.8454C198.685 44.2744 198.3 44.6036 197.795 44.833C197.294 45.0623 196.684 45.177 195.966 45.177ZM202.166 43.0554V48.6367H200.63V41.7428H202.096L202.166 43.0554ZM204.275 41.6982L204.262 43.1254C204.169 43.1084 204.067 43.0957 203.956 43.0872C203.85 43.0787 203.744 43.0745 203.638 43.0745C203.374 43.0745 203.143 43.1127 202.943 43.1892C202.743 43.2614 202.576 43.3676 202.44 43.5077C202.308 43.6436 202.206 43.8093 202.134 44.0047C202.062 44.2001 202.019 44.4188 202.006 44.661L201.656 44.6864C201.656 44.2532 201.699 43.8518 201.783 43.4822C201.868 43.1127 201.996 42.7878 202.166 42.5074C202.34 42.2271 202.557 42.0083 202.816 41.8512C203.079 41.694 203.383 41.6154 203.727 41.6154C203.82 41.6154 203.92 41.6239 204.026 41.6409C204.137 41.6579 204.219 41.677 204.275 41.6982ZM204.778 45.2662V45.1197C204.778 44.6227 204.85 44.1619 204.995 43.7371C205.139 43.3081 205.347 42.9364 205.619 42.6221C205.895 42.3035 206.231 42.0572 206.626 41.883C207.025 41.7046 207.475 41.6154 207.977 41.6154C208.482 41.6154 208.932 41.7046 209.327 41.883C209.727 42.0572 210.064 42.3035 210.34 42.6221C210.616 42.9364 210.827 43.3081 210.971 43.7371C211.115 44.1619 211.188 44.6227 211.188 45.1197V45.2662C211.188 45.7632 211.115 46.2241 210.971 46.6488C210.827 47.0736 210.616 47.4453 210.34 47.7638C210.064 48.0782 209.729 48.3245 209.334 48.5029C208.939 48.6771 208.49 48.7641 207.989 48.7641C207.484 48.7641 207.031 48.6771 206.632 48.5029C206.237 48.3245 205.902 48.0782 205.625 47.7638C205.349 47.4453 205.139 47.0736 204.995 46.6488C204.85 46.2241 204.778 45.7632 204.778 45.2662ZM206.314 45.1197V45.2662C206.314 45.5763 206.345 45.8694 206.409 46.1455C206.473 46.4216 206.573 46.6637 206.709 46.8718C206.845 47.08 207.019 47.2435 207.231 47.3624C207.443 47.4814 207.696 47.5408 207.989 47.5408C208.274 47.5408 208.52 47.4814 208.728 47.3624C208.941 47.2435 209.115 47.08 209.251 46.8718C209.387 46.6637 209.487 46.4216 209.55 46.1455C209.618 45.8694 209.652 45.5763 209.652 45.2662V45.1197C209.652 44.8139 209.618 44.525 209.55 44.2532C209.487 43.9771 209.385 43.7328 209.244 43.5205C209.108 43.3081 208.934 43.1424 208.722 43.0235C208.514 42.9003 208.265 42.8387 207.977 42.8387C207.688 42.8387 207.437 42.9003 207.225 43.0235C207.017 43.1424 206.845 43.3081 206.709 43.5205C206.573 43.7328 206.473 43.9771 206.409 44.2532C206.345 44.525 206.314 44.8139 206.314 45.1197ZM215.291 47.5408C215.542 47.5408 215.767 47.492 215.966 47.3943C216.17 47.2923 216.334 47.1522 216.457 46.9738C216.584 46.7954 216.654 46.5894 216.667 46.3557H218.113C218.105 46.8017 217.973 47.2074 217.718 47.5727C217.464 47.938 217.126 48.2289 216.705 48.4456C216.285 48.658 215.82 48.7641 215.31 48.7641C214.783 48.7641 214.325 48.6749 213.934 48.4965C213.543 48.3139 213.218 48.0633 212.959 47.7447C212.7 47.4261 212.504 47.0587 212.373 46.6425C212.245 46.2262 212.182 45.7802 212.182 45.3045V45.0815C212.182 44.6057 212.245 44.1597 212.373 43.7435C212.504 43.323 212.7 42.9534 212.959 42.6348C213.218 42.3163 213.543 42.0678 213.934 41.8894C214.325 41.7067 214.781 41.6154 215.304 41.6154C215.856 41.6154 216.34 41.7258 216.756 41.9467C217.173 42.1634 217.5 42.4671 217.738 42.8578C217.98 43.2444 218.105 43.6946 218.113 44.2086H216.667C216.654 43.9537 216.591 43.7244 216.476 43.5205C216.366 43.3123 216.208 43.1467 216.004 43.0235C215.805 42.9003 215.565 42.8387 215.285 42.8387C214.974 42.8387 214.717 42.9024 214.514 43.0299C214.31 43.153 214.15 43.323 214.036 43.5396C213.921 43.752 213.838 43.992 213.787 44.2596C213.741 44.5229 213.717 44.7969 213.717 45.0815V45.3045C213.717 45.5891 213.741 45.8651 213.787 46.1327C213.834 46.4003 213.915 46.6403 214.029 46.8527C214.148 47.0609 214.31 47.2286 214.514 47.3561C214.717 47.4792 214.977 47.5408 215.291 47.5408ZM222.331 48.7641C221.822 48.7641 221.361 48.6813 220.949 48.5157C220.541 48.3458 220.193 48.11 219.904 47.8084C219.619 47.5069 219.4 47.1522 219.248 46.7444C219.095 46.3366 219.018 45.897 219.018 45.4255V45.1707C219.018 44.6312 219.097 44.1427 219.254 43.7052C219.411 43.2677 219.63 42.8939 219.91 42.5839C220.191 42.2695 220.522 42.0296 220.904 41.8639C221.286 41.6982 221.701 41.6154 222.147 41.6154C222.639 41.6154 223.07 41.6982 223.44 41.8639C223.809 42.0296 224.115 42.2632 224.357 42.5648C224.604 42.8621 224.786 43.2168 224.905 43.6288C225.029 44.0408 225.09 44.4953 225.09 44.9923V45.6485H219.764V44.5463H223.574V44.4252C223.565 44.1491 223.51 43.89 223.408 43.6479C223.31 43.4058 223.16 43.2104 222.956 43.0617C222.752 42.9131 222.48 42.8387 222.14 42.8387C221.885 42.8387 221.658 42.8939 221.458 43.0044C221.263 43.1106 221.1 43.2656 220.968 43.4695C220.836 43.6734 220.734 43.9197 220.662 44.2086C220.594 44.4932 220.56 44.8139 220.56 45.1707V45.4255C220.56 45.7271 220.6 46.0074 220.681 46.2665C220.766 46.5214 220.889 46.7444 221.051 46.9355C221.212 47.1267 221.407 47.2775 221.637 47.3879C221.866 47.4941 222.127 47.5472 222.421 47.5472C222.79 47.5472 223.119 47.4729 223.408 47.3242C223.697 47.1755 223.948 46.9653 224.16 46.6934L224.969 47.4771C224.82 47.6937 224.627 47.9019 224.389 48.1015C224.151 48.2969 223.86 48.4562 223.516 48.5794C223.177 48.7026 222.782 48.7641 222.331 48.7641ZM229.327 48.7641C228.817 48.7641 228.357 48.6813 227.945 48.5157C227.537 48.3458 227.188 48.11 226.9 47.8084C226.615 47.5069 226.396 47.1522 226.243 46.7444C226.09 46.3366 226.014 45.897 226.014 45.4255V45.1707C226.014 44.6312 226.093 44.1427 226.25 43.7052C226.407 43.2677 226.626 42.8939 226.906 42.5839C227.186 42.2695 227.518 42.0296 227.9 41.8639C228.282 41.6982 228.696 41.6154 229.142 41.6154C229.635 41.6154 230.066 41.6982 230.436 41.8639C230.805 42.0296 231.111 42.2632 231.353 42.5648C231.6 42.8621 231.782 43.2168 231.901 43.6288C232.024 44.0408 232.086 44.4953 232.086 44.9923V45.6485H226.759V44.5463H230.57V44.4252C230.561 44.1491 230.506 43.89 230.404 43.6479C230.306 43.4058 230.155 43.2104 229.952 43.0617C229.748 42.9131 229.476 42.8387 229.136 42.8387C228.881 42.8387 228.654 42.8939 228.454 43.0044C228.259 43.1106 228.095 43.2656 227.964 43.4695C227.832 43.6734 227.73 43.9197 227.658 44.2086C227.59 44.4932 227.556 44.8139 227.556 45.1707V45.4255C227.556 45.7271 227.596 46.0074 227.677 46.2665C227.762 46.5214 227.885 46.7444 228.046 46.9355C228.208 47.1267 228.403 47.2775 228.633 47.3879C228.862 47.4941 229.123 47.5472 229.416 47.5472C229.786 47.5472 230.115 47.4729 230.404 47.3242C230.693 47.1755 230.943 46.9653 231.156 46.6934L231.965 47.4771C231.816 47.6937 231.623 47.9019 231.385 48.1015C231.147 48.2969 230.856 48.4562 230.512 48.5794C230.172 48.7026 229.777 48.7641 229.327 48.7641ZM237.489 47.2095V38.8502H239.031V48.6367H237.635L237.489 47.2095ZM233.003 45.2662V45.1324C233.003 44.61 233.065 44.1342 233.188 43.7052C233.311 43.272 233.49 42.9003 233.723 42.5902C233.957 42.2759 234.242 42.0359 234.577 41.8703C234.913 41.7004 235.291 41.6154 235.711 41.6154C236.128 41.6154 236.493 41.6961 236.807 41.8575C237.122 42.0189 237.389 42.2504 237.61 42.552C237.831 42.8493 238.007 43.2061 238.139 43.6224C238.271 44.0344 238.364 44.4932 238.419 44.9986V45.4255C238.364 45.9182 238.271 46.3685 238.139 46.7763C238.007 47.184 237.831 47.5366 237.61 47.8339C237.389 48.1313 237.119 48.3606 236.801 48.522C236.487 48.6834 236.119 48.7641 235.699 48.7641C235.282 48.7641 234.906 48.6771 234.571 48.5029C234.24 48.3288 233.957 48.0845 233.723 47.7702C233.49 47.4559 233.311 47.0863 233.188 46.6616C233.065 46.2326 233.003 45.7675 233.003 45.2662ZM234.539 45.1324V45.2662C234.539 45.5806 234.567 45.8736 234.622 46.1455C234.681 46.4173 234.773 46.6573 234.896 46.8655C235.019 47.0693 235.178 47.2308 235.374 47.3497C235.573 47.4644 235.811 47.5217 236.087 47.5217C236.436 47.5217 236.722 47.4453 236.947 47.2923C237.172 47.1394 237.349 46.9334 237.476 46.6743C237.608 46.411 237.697 46.1179 237.744 45.7951V44.6418C237.718 44.3912 237.665 44.1576 237.585 43.941C237.508 43.7244 237.404 43.5353 237.272 43.3739C237.141 43.2083 236.977 43.0808 236.782 42.9916C236.591 42.8982 236.363 42.8515 236.1 42.8515C235.82 42.8515 235.582 42.9109 235.386 43.0299C235.191 43.1488 235.03 43.3123 234.902 43.5205C234.779 43.7286 234.688 43.9707 234.628 44.2468C234.569 44.5229 234.539 44.8181 234.539 45.1324ZM247.046 41.7428V42.8642H243.16V41.7428H247.046ZM244.281 40.0544H245.816V46.7317C245.816 46.944 245.846 47.1076 245.906 47.2223C245.969 47.3327 246.056 47.407 246.167 47.4453C246.277 47.4835 246.407 47.5026 246.555 47.5026C246.662 47.5026 246.764 47.4962 246.861 47.4835C246.959 47.4707 247.038 47.458 247.097 47.4453L247.103 48.6176C246.976 48.6558 246.827 48.6898 246.657 48.7195C246.492 48.7493 246.301 48.7641 246.084 48.7641C245.731 48.7641 245.419 48.7026 245.147 48.5794C244.876 48.4519 244.663 48.2459 244.51 47.9613C244.357 47.6768 244.281 47.2987 244.281 46.8272V40.0544ZM247.785 45.2662V45.1197C247.785 44.6227 247.857 44.1619 248.002 43.7371C248.146 43.3081 248.354 42.9364 248.626 42.6221C248.902 42.3035 249.238 42.0572 249.633 41.883C250.032 41.7046 250.482 41.6154 250.984 41.6154C251.489 41.6154 251.939 41.7046 252.334 41.883C252.734 42.0572 253.071 42.3035 253.347 42.6221C253.624 42.9364 253.834 43.3081 253.978 43.7371C254.123 44.1619 254.195 44.6227 254.195 45.1197V45.2662C254.195 45.7632 254.123 46.2241 253.978 46.6488C253.834 47.0736 253.624 47.4453 253.347 47.7638C253.071 48.0782 252.736 48.3245 252.341 48.5029C251.946 48.6771 251.498 48.7641 250.996 48.7641C250.491 48.7641 250.039 48.6771 249.639 48.5029C249.244 48.3245 248.909 48.0782 248.633 47.7638C248.356 47.4453 248.146 47.0736 248.002 46.6488C247.857 46.2241 247.785 45.7632 247.785 45.2662ZM249.321 45.1197V45.2662C249.321 45.5763 249.353 45.8694 249.416 46.1455C249.48 46.4216 249.58 46.6637 249.716 46.8718C249.852 47.08 250.026 47.2435 250.238 47.3624C250.451 47.4814 250.703 47.5408 250.996 47.5408C251.281 47.5408 251.527 47.4814 251.735 47.3624C251.948 47.2435 252.122 47.08 252.258 46.8718C252.394 46.6637 252.494 46.4216 252.557 46.1455C252.625 45.8694 252.659 45.5763 252.659 45.2662V45.1197C252.659 44.8139 252.625 44.525 252.557 44.2532C252.494 43.9771 252.392 43.7328 252.252 43.5205C252.116 43.3081 251.941 43.1424 251.729 43.0235C251.521 42.9003 251.272 42.8387 250.984 42.8387C250.695 42.8387 250.444 42.9003 250.232 43.0235C250.024 43.1424 249.852 43.3081 249.716 43.5205C249.58 43.7328 249.48 43.9771 249.416 44.2532C249.353 44.525 249.321 44.8139 249.321 45.1197ZM260.273 43.0681V51.2872H258.738V41.7428H260.152L260.273 43.0681ZM264.765 45.1261V45.2599C264.765 45.7611 264.706 46.2262 264.587 46.6552C264.472 47.08 264.3 47.4516 264.071 47.7702C263.845 48.0845 263.567 48.3288 263.236 48.5029C262.905 48.6771 262.522 48.7641 262.089 48.7641C261.66 48.7641 261.284 48.6856 260.961 48.5284C260.643 48.367 260.373 48.1397 260.152 47.8467C259.931 47.5536 259.753 47.2095 259.617 46.8145C259.485 46.4152 259.392 45.9777 259.337 45.502V44.9859C259.392 44.4804 259.485 44.0217 259.617 43.6097C259.753 43.1976 259.931 42.843 260.152 42.5456C260.373 42.2483 260.643 42.0189 260.961 41.8575C261.28 41.6961 261.652 41.6154 262.076 41.6154C262.51 41.6154 262.894 41.7004 263.229 41.8703C263.565 42.0359 263.848 42.2738 264.077 42.5839C264.306 42.8897 264.478 43.2592 264.593 43.6925C264.708 44.1215 264.765 44.5994 264.765 45.1261ZM263.229 45.2599V45.1261C263.229 44.8075 263.2 44.5123 263.14 44.2404C263.081 43.9643 262.987 43.7222 262.86 43.5141C262.733 43.306 262.569 43.1446 262.369 43.0299C262.174 42.9109 261.938 42.8515 261.662 42.8515C261.39 42.8515 261.157 42.8982 260.961 42.9916C260.766 43.0808 260.602 43.2061 260.471 43.3676C260.339 43.529 260.237 43.718 260.165 43.9346C260.093 44.147 260.042 44.3785 260.012 44.6291V45.8651C260.063 46.171 260.15 46.4513 260.273 46.7062C260.396 46.961 260.57 47.1649 260.796 47.3178C261.025 47.4665 261.318 47.5408 261.675 47.5408C261.951 47.5408 262.187 47.4814 262.382 47.3624C262.577 47.2435 262.737 47.08 262.86 46.8718C262.987 46.6595 263.081 46.4152 263.14 46.1391C263.2 45.863 263.229 45.5699 263.229 45.2599ZM269.958 47.2541V43.9665C269.958 43.7201 269.913 43.5077 269.824 43.3293C269.735 43.1509 269.599 43.0129 269.416 42.9152C269.238 42.8175 269.013 42.7686 268.741 42.7686C268.49 42.7686 268.274 42.8111 268.091 42.8961C267.908 42.981 267.766 43.0957 267.664 43.2401C267.562 43.3845 267.511 43.5481 267.511 43.7307H265.982C265.982 43.4589 266.048 43.1955 266.179 42.9407C266.311 42.6858 266.502 42.4586 266.753 42.2589C267.003 42.0593 267.303 41.9021 267.651 41.7874C268 41.6728 268.39 41.6154 268.824 41.6154C269.342 41.6154 269.801 41.7025 270.2 41.8766C270.603 42.0508 270.92 42.3141 271.149 42.6667C271.383 43.015 271.5 43.4525 271.5 43.9792V47.0439C271.5 47.3582 271.521 47.6407 271.563 47.8913C271.61 48.1376 271.676 48.3521 271.761 48.5348V48.6367H270.187C270.115 48.4711 270.058 48.2608 270.015 48.0059C269.977 47.7468 269.958 47.4962 269.958 47.2541ZM270.181 44.4443L270.193 45.3937H269.091C268.807 45.3937 268.556 45.4213 268.339 45.4765C268.123 45.5275 267.942 45.6039 267.798 45.7059C267.653 45.8078 267.545 45.931 267.473 46.0754C267.401 46.2198 267.365 46.3834 267.365 46.566C267.365 46.7487 267.407 46.9164 267.492 47.0693C267.577 47.218 267.7 47.3348 267.862 47.4198C268.027 47.5047 268.227 47.5472 268.46 47.5472C268.775 47.5472 269.049 47.4835 269.282 47.3561C269.52 47.2244 269.707 47.0651 269.843 46.8782C269.979 46.6871 270.051 46.5065 270.06 46.3366L270.557 47.0184C270.506 47.1925 270.419 47.3794 270.295 47.5791C270.172 47.7787 270.011 47.9698 269.811 48.1525C269.616 48.3309 269.38 48.4774 269.104 48.5921C268.832 48.7068 268.518 48.7641 268.161 48.7641C267.711 48.7641 267.309 48.6749 266.957 48.4965C266.604 48.3139 266.328 48.0697 266.128 47.7638C265.929 47.4538 265.829 47.1033 265.829 46.7125C265.829 46.3473 265.897 46.0244 266.033 45.7441C266.173 45.4595 266.377 45.2216 266.645 45.0305C266.916 44.8394 267.248 44.6949 267.639 44.5972C268.029 44.4953 268.475 44.4443 268.977 44.4443H270.181ZM275.004 47.8849L276.877 41.7428H278.521L275.756 49.688C275.692 49.8579 275.609 50.0427 275.507 50.2423C275.405 50.442 275.271 50.631 275.106 50.8094C274.944 50.992 274.743 51.1386 274.501 51.249C274.258 51.3637 273.965 51.421 273.621 51.421C273.485 51.421 273.354 51.4083 273.226 51.3828C273.103 51.3616 272.986 51.3382 272.876 51.3127L272.869 50.1404C272.912 50.1446 272.963 50.1489 273.022 50.1531C273.086 50.1574 273.137 50.1595 273.175 50.1595C273.43 50.1595 273.643 50.1276 273.812 50.0639C273.982 50.0045 274.12 49.9068 274.227 49.7708C274.337 49.6349 274.43 49.4523 274.507 49.2229L275.004 47.8849ZM273.946 41.7428L275.584 46.9037L275.858 48.522L274.794 48.796L272.29 41.7428H273.946ZM280.936 43.1446V48.6367H279.4V41.7428H280.846L280.936 43.1446ZM280.687 44.9349L280.165 44.9285C280.165 44.4528 280.224 44.0132 280.343 43.6097C280.462 43.2061 280.636 42.8557 280.866 42.5584C281.095 42.2568 281.38 42.0253 281.719 41.8639C282.063 41.6982 282.461 41.6154 282.911 41.6154C283.225 41.6154 283.512 41.6621 283.771 41.7556C284.034 41.8448 284.262 41.9871 284.453 42.1825C284.648 42.3779 284.797 42.6285 284.899 42.9343C285.005 43.2401 285.058 43.6097 285.058 44.0429V48.6367H283.522V44.1767C283.522 43.8412 283.472 43.5778 283.37 43.3867C283.272 43.1955 283.13 43.0596 282.943 42.9789C282.76 42.8939 282.541 42.8515 282.286 42.8515C281.998 42.8515 281.751 42.9067 281.547 43.0171C281.348 43.1276 281.184 43.2784 281.057 43.4695C280.929 43.6606 280.836 43.8815 280.776 44.1321C280.717 44.3827 280.687 44.6503 280.687 44.9349ZM284.962 44.5272L284.242 44.6864C284.242 44.2702 284.3 43.8773 284.414 43.5077C284.533 43.1339 284.705 42.8069 284.931 42.5265C285.16 42.2419 285.442 42.0189 285.778 41.8575C286.114 41.6961 286.498 41.6154 286.931 41.6154C287.284 41.6154 287.598 41.6643 287.874 41.762C288.155 41.8554 288.392 42.0041 288.588 42.208C288.783 42.4118 288.932 42.6773 289.034 43.0044C289.136 43.3272 289.187 43.718 289.187 44.1767V48.6367H287.645V44.1704C287.645 43.822 287.594 43.5523 287.492 43.3612C287.394 43.17 287.254 43.0384 287.071 42.9662C286.889 42.8897 286.67 42.8515 286.415 42.8515C286.177 42.8515 285.967 42.8961 285.784 42.9853C285.606 43.0702 285.455 43.1913 285.332 43.3484C285.209 43.5014 285.115 43.6776 285.052 43.8773C284.992 44.0769 284.962 44.2935 284.962 44.5272ZM293.806 48.7641C293.296 48.7641 292.835 48.6813 292.423 48.5157C292.016 48.3458 291.667 48.11 291.378 47.8084C291.094 47.5069 290.875 47.1522 290.722 46.7444C290.569 46.3366 290.493 45.897 290.493 45.4255V45.1707C290.493 44.6312 290.571 44.1427 290.729 43.7052C290.886 43.2677 291.104 42.8939 291.385 42.5839C291.665 42.2695 291.996 42.0296 292.379 41.8639C292.761 41.6982 293.175 41.6154 293.621 41.6154C294.114 41.6154 294.545 41.6982 294.915 41.8639C295.284 42.0296 295.59 42.2632 295.832 42.5648C296.078 42.8621 296.261 43.2168 296.38 43.6288C296.503 44.0408 296.565 44.4953 296.565 44.9923V45.6485H291.238V44.5463H295.048V44.4252C295.04 44.1491 294.985 43.89 294.883 43.6479C294.785 43.4058 294.634 43.2104 294.43 43.0617C294.226 42.9131 293.955 42.8387 293.615 42.8387C293.36 42.8387 293.133 42.8939 292.933 43.0044C292.738 43.1106 292.574 43.2656 292.442 43.4695C292.311 43.6734 292.209 43.9197 292.137 44.2086C292.069 44.4932 292.035 44.8139 292.035 45.1707V45.4255C292.035 45.7271 292.075 46.0074 292.156 46.2665C292.241 46.5214 292.364 46.7444 292.525 46.9355C292.687 47.1267 292.882 47.2775 293.111 47.3879C293.341 47.4941 293.602 47.5472 293.895 47.5472C294.265 47.5472 294.594 47.4729 294.883 47.3242C295.172 47.1755 295.422 46.9653 295.635 46.6934L296.444 47.4771C296.295 47.6937 296.102 47.9019 295.864 48.1015C295.626 48.2969 295.335 48.4562 294.991 48.5794C294.651 48.7026 294.256 48.7641 293.806 48.7641ZM299.285 43.2146V48.6367H297.75V41.7428H299.196L299.285 43.2146ZM299.011 44.9349L298.514 44.9285C298.519 44.4401 298.587 43.992 298.718 43.5842C298.854 43.1764 299.041 42.826 299.279 42.5329C299.521 42.2398 299.81 42.0147 300.146 41.8575C300.481 41.6961 300.855 41.6154 301.267 41.6154C301.598 41.6154 301.898 41.6621 302.165 41.7556C302.437 41.8448 302.669 41.9913 302.86 42.1952C303.055 42.3991 303.204 42.6646 303.306 42.9916C303.408 43.3145 303.459 43.7116 303.459 44.1831V48.6367H301.917V44.1767C301.917 43.8454 301.868 43.5842 301.77 43.393C301.677 43.1976 301.539 43.0596 301.356 42.9789C301.178 42.8939 300.955 42.8515 300.687 42.8515C300.424 42.8515 300.188 42.9067 299.98 43.0171C299.772 43.1276 299.595 43.2784 299.451 43.4695C299.311 43.6606 299.203 43.8815 299.126 44.1321C299.05 44.3827 299.011 44.6503 299.011 44.9349ZM308.186 41.7428V42.8642H304.3V41.7428H308.186ZM305.421 40.0544H306.957V46.7317C306.957 46.944 306.986 47.1076 307.046 47.2223C307.109 47.3327 307.197 47.407 307.307 47.4453C307.417 47.4835 307.547 47.5026 307.696 47.5026C307.802 47.5026 307.904 47.4962 308.001 47.4835C308.099 47.4707 308.178 47.458 308.237 47.4453L308.244 48.6176C308.116 48.6558 307.968 48.6898 307.798 48.7195C307.632 48.7493 307.441 48.7641 307.224 48.7641C306.872 48.7641 306.559 48.7026 306.288 48.5794C306.016 48.4519 305.803 48.2459 305.65 47.9613C305.498 47.6768 305.421 47.2987 305.421 46.8272V40.0544Z" fill="black"/>
</g>
<defs>
<filter id="filter0_d_181_1593" x="0" y="0" width="500.782" height="105.809" filterUnits="userSpaceOnUse" color-interpolation-filters="sRGB">
<feFlood flood-opacity="0" result="BackgroundImageFix"/>
<feColorMatrix in="SourceAlpha" type="matrix" values="0 0 0 0 0 0 0 0 0 0 0 0 0 0 0 0 0 0 127 0" result="hardAlpha"/>
<feOffset dy="9"/>
<feGaussianBlur stdDeviation="14.25"/>
<feComposite in2="hardAlpha" operator="out"/>
<feColorMatrix type="matrix" values="0 0 0 0 0 0 0 0 0 0 0 0 0 0 0 0 0 0 0.09 0"/>
<feBlend mode="normal" in2="BackgroundImageFix" result="effect1_dropShadow_181_1593"/>
<feBlend mode="normal" in="SourceGraphic" in2="effect1_dropShadow_181_1593" result="shape"/>
</filter>
</defs>
</svg>
