<svg width="308" height="99" viewBox="0 0 308 99" fill="none" xmlns="http://www.w3.org/2000/svg">
<g filter="url(#filter0_d_181_1635)">
<rect x="28.5" y="19.5" width="251" height="42" rx="21" fill="#F8F9FA"/>
<rect x="29.3155" y="20.3155" width="249.369" height="40.3689" rx="20.1845" stroke="#B3B2B1" stroke-width="1.63108"/>
<path d="M57.9715 35.2628V45.6992H56.6096V35.2628H57.9715ZM61.326 35.2628V36.3953H53.2622V35.2628H61.326ZM65.1752 45.8426C64.6352 45.8426 64.1454 45.7518 63.7058 45.5702C63.2709 45.3838 62.8958 45.1234 62.5804 44.7889C62.2698 44.4544 62.0309 44.0578 61.8636 43.599C61.6964 43.1403 61.6127 42.6385 61.6127 42.0938V41.7927C61.6127 41.162 61.7059 40.6005 61.8923 40.1083C62.0787 39.6113 62.3319 39.1908 62.6521 38.8468C62.9723 38.5027 63.3354 38.2423 63.7416 38.0655C64.1478 37.8887 64.5683 37.8002 65.0031 37.8002C65.5575 37.8002 66.0353 37.8958 66.4367 38.087C66.8429 38.2781 67.175 38.5457 67.433 38.8898C67.6911 39.229 67.8822 39.6304 68.0065 40.094C68.1307 40.5527 68.1928 41.0545 68.1928 41.5992V42.1941H62.4012V41.1118H66.8668V41.0114C66.8477 40.6674 66.776 40.3329 66.6517 40.0079C66.5323 39.683 66.3411 39.4154 66.0783 39.2051C65.8155 38.9949 65.4571 38.8898 65.0031 38.8898C64.7021 38.8898 64.4249 38.9543 64.1717 39.0833C63.9184 39.2075 63.701 39.3939 63.5194 39.6424C63.3378 39.8909 63.1968 40.1943 63.0965 40.5527C62.9961 40.9111 62.946 41.3244 62.946 41.7927V42.0938C62.946 42.4617 62.9961 42.8082 63.0965 43.1331C63.2016 43.4533 63.3521 43.7352 63.5481 43.9789C63.7488 44.2226 63.9901 44.4138 64.272 44.5524C64.5587 44.6909 64.8837 44.7602 65.2468 44.7602C65.7151 44.7602 66.1118 44.6647 66.4367 44.4735C66.7617 44.2824 67.046 44.0267 67.2897 43.7066L68.0925 44.3445C67.9252 44.5978 67.7126 44.8391 67.4545 45.0684C67.1965 45.2978 66.8787 45.4842 66.5012 45.6275C66.1285 45.7709 65.6865 45.8426 65.1752 45.8426ZM70.6371 37.9436L72.3359 40.7677L74.0561 37.9436H75.6116L73.0741 41.7712L75.6904 45.6992H74.1565L72.3645 42.7891L70.5726 45.6992H69.0315L71.6406 41.7712L69.1103 37.9436H70.6371ZM80.2707 37.9436V38.9614H76.0775V37.9436H80.2707ZM77.4967 36.0585H78.8228V43.7782C78.8228 44.0411 78.8634 44.2394 78.9446 44.3732C79.0258 44.507 79.131 44.5954 79.26 44.6384C79.389 44.6814 79.5276 44.7029 79.6757 44.7029C79.7856 44.7029 79.9003 44.6933 80.0198 44.6742C80.144 44.6503 80.2372 44.6312 80.2993 44.6169L80.3065 45.6992C80.2014 45.7327 80.0628 45.7637 79.8908 45.7924C79.7235 45.8259 79.5204 45.8426 79.2815 45.8426C78.9566 45.8426 78.6579 45.7781 78.3855 45.649C78.1131 45.52 77.8957 45.305 77.7332 45.0039C77.5756 44.6981 77.4967 44.2872 77.4967 43.7711V36.0585Z" fill="#898989"/>
</g>
<defs>
<filter id="filter0_d_181_1635" x="0" y="0" width="308" height="99" filterUnits="userSpaceOnUse" color-interpolation-filters="sRGB">
<feFlood flood-opacity="0" result="BackgroundImageFix"/>
<feColorMatrix in="SourceAlpha" type="matrix" values="0 0 0 0 0 0 0 0 0 0 0 0 0 0 0 0 0 0 127 0" result="hardAlpha"/>
<feOffset dy="9"/>
<feGaussianBlur stdDeviation="14.25"/>
<feComposite in2="hardAlpha" operator="out"/>
<feColorMatrix type="matrix" values="0 0 0 0 0 0 0 0 0 0 0 0 0 0 0 0 0 0 0.09 0"/>
<feBlend mode="normal" in2="BackgroundImageFix" result="effect1_dropShadow_181_1635"/>
<feBlend mode="normal" in="SourceGraphic" in2="effect1_dropShadow_181_1635" result="shape"/>
</filter>
</defs>
</svg>
