<svg width="347" height="97" viewBox="0 0 347 97" fill="none" xmlns="http://www.w3.org/2000/svg">
<g filter="url(#filter0_d_181_1626)">
<rect x="29" y="24" width="41" height="31" rx="5.5" stroke="#CFD6DC"/>
<path fill-rule="evenodd" clip-rule="evenodd" d="M48.2753 34.0581C48.5194 34.3021 48.5194 34.6979 48.2753 34.9419L44.3423 38.875H56.1667C56.5119 38.875 56.7917 39.1548 56.7917 39.5C56.7917 39.8452 56.5119 40.125 56.1667 40.125H44.3423L48.2753 44.0581C48.5194 44.3021 48.5194 44.6979 48.2753 44.9419C48.0312 45.186 47.6355 45.186 47.3914 44.9419L42.3914 39.9419C42.1474 39.6979 42.1474 39.3021 42.3914 39.0581L47.3914 34.0581C47.6355 33.814 48.0312 33.814 48.2753 34.0581Z" fill="#4E5D78"/>
<rect x="77" y="24" width="31" height="31" rx="15.5" stroke="#CFD6DC"/>
<path d="M90.532 35.04V33.878H93.164V44H91.876V35.04H90.532Z" fill="#4E5D78"/>
<rect x="115" y="24" width="31" height="31" rx="15.5" stroke="#CFD6DC"/>
<path d="M126.714 42.978C127.899 42.026 128.828 41.2467 129.5 40.64C130.172 40.024 130.737 39.3847 131.194 38.722C131.661 38.05 131.894 37.392 131.894 36.748C131.894 36.1413 131.745 35.6653 131.446 35.32C131.157 34.9653 130.685 34.788 130.032 34.788C129.397 34.788 128.903 34.9887 128.548 35.39C128.203 35.782 128.016 36.3093 127.988 36.972H126.756C126.793 35.9267 127.111 35.1193 127.708 34.55C128.305 33.9807 129.075 33.696 130.018 33.696C130.979 33.696 131.74 33.962 132.3 34.494C132.869 35.026 133.154 35.7587 133.154 36.692C133.154 37.4667 132.921 38.2227 132.454 38.96C131.997 39.688 131.474 40.332 130.886 40.892C130.298 41.4427 129.547 42.0867 128.632 42.824H133.448V43.888H126.714V42.978Z" fill="#4E5D78"/>
<rect x="153.5" y="19.5" width="40" height="40" rx="20" fill="#00338D"/>
<path d="M169.84 36.426C169.905 35.5673 170.237 34.8953 170.834 34.41C171.431 33.9247 172.206 33.682 173.158 33.682C173.793 33.682 174.339 33.7987 174.796 34.032C175.263 34.256 175.613 34.564 175.846 34.956C176.089 35.348 176.21 35.7913 176.21 36.286C176.21 36.8647 176.042 37.364 175.706 37.784C175.379 38.204 174.95 38.4747 174.418 38.596V38.666C175.025 38.8153 175.505 39.1093 175.86 39.548C176.215 39.9867 176.392 40.5607 176.392 41.27C176.392 41.802 176.271 42.2827 176.028 42.712C175.785 43.132 175.421 43.4633 174.936 43.706C174.451 43.9487 173.867 44.07 173.186 44.07C172.197 44.07 171.385 43.8133 170.75 43.3C170.115 42.7773 169.761 42.04 169.686 41.088H170.918C170.983 41.648 171.212 42.1053 171.604 42.46C171.996 42.8147 172.519 42.992 173.172 42.992C173.825 42.992 174.32 42.824 174.656 42.488C175.001 42.1427 175.174 41.6993 175.174 41.158C175.174 40.458 174.941 39.954 174.474 39.646C174.007 39.338 173.303 39.184 172.36 39.184H172.038V38.12H172.374C173.233 38.1107 173.881 37.9707 174.32 37.7C174.759 37.42 174.978 36.9907 174.978 36.412C174.978 35.9173 174.815 35.5207 174.488 35.222C174.171 34.9233 173.713 34.774 173.116 34.774C172.537 34.774 172.071 34.9233 171.716 35.222C171.361 35.5207 171.151 35.922 171.086 36.426H169.84Z" fill="white"/>
<rect x="201" y="24" width="31" height="31" rx="15.5" stroke="#CFD6DC"/>
<path d="M212.56 41.746V40.78L217.474 33.976H219V40.64H220.4V41.746H219V44H217.74V41.746H212.56ZM217.796 35.306L214.03 40.64H217.796V35.306Z" fill="#4E5D78"/>
<rect x="239" y="24" width="31" height="31" rx="15.5" stroke="#CFD6DC"/>
<path d="M257.322 34.984H252.408V38.176C252.623 37.8773 252.94 37.6347 253.36 37.448C253.78 37.252 254.233 37.154 254.718 37.154C255.493 37.154 256.123 37.3173 256.608 37.644C257.093 37.9613 257.439 38.3767 257.644 38.89C257.859 39.394 257.966 39.9307 257.966 40.5C257.966 41.172 257.84 41.774 257.588 42.306C257.336 42.838 256.949 43.258 256.426 43.566C255.913 43.874 255.273 44.028 254.508 44.028C253.528 44.028 252.735 43.776 252.128 43.272C251.521 42.768 251.153 42.096 251.022 41.256H252.268C252.389 41.788 252.646 42.2033 253.038 42.502C253.43 42.8007 253.925 42.95 254.522 42.95C255.259 42.95 255.815 42.7307 256.188 42.292C256.561 41.844 256.748 41.256 256.748 40.528C256.748 39.8 256.561 39.24 256.188 38.848C255.815 38.4467 255.264 38.246 254.536 38.246C254.041 38.246 253.607 38.3673 253.234 38.61C252.87 38.8433 252.604 39.1653 252.436 39.576H251.232V33.864H257.322V34.984Z" fill="#4E5D78"/>
<rect x="277" y="24" width="41" height="31" rx="5.5" stroke="#CFD6DC"/>
<path fill-rule="evenodd" clip-rule="evenodd" d="M298.725 34.0581C298.969 33.814 299.365 33.814 299.609 34.0581L304.609 39.0581C304.853 39.3021 304.853 39.6979 304.609 39.9419L299.609 44.9419C299.365 45.186 298.969 45.186 298.725 44.9419C298.481 44.6979 298.481 44.3021 298.725 44.0581L302.658 40.125H290.833C290.488 40.125 290.208 39.8452 290.208 39.5C290.208 39.1548 290.488 38.875 290.833 38.875H302.658L298.725 34.9419C298.481 34.6979 298.481 34.3021 298.725 34.0581Z" fill="#4E5D78"/>
</g>
<defs>
<filter id="filter0_d_181_1626" x="0" y="0" width="347" height="97" filterUnits="userSpaceOnUse" color-interpolation-filters="sRGB">
<feFlood flood-opacity="0" result="BackgroundImageFix"/>
<feColorMatrix in="SourceAlpha" type="matrix" values="0 0 0 0 0 0 0 0 0 0 0 0 0 0 0 0 0 0 127 0" result="hardAlpha"/>
<feOffset dy="9"/>
<feGaussianBlur stdDeviation="14.25"/>
<feComposite in2="hardAlpha" operator="out"/>
<feColorMatrix type="matrix" values="0 0 0 0 0 0 0 0 0 0 0 0 0 0 0 0 0 0 0.09 0"/>
<feBlend mode="normal" in2="BackgroundImageFix" result="effect1_dropShadow_181_1626"/>
<feBlend mode="normal" in="SourceGraphic" in2="effect1_dropShadow_181_1626" result="shape"/>
</filter>
</defs>
</svg>
