<svg width="56" height="56" viewBox="0 0 56 56" fill="none" xmlns="http://www.w3.org/2000/svg">
<circle cx="28" cy="28" r="28" fill="#E6E7EB" style="mix-blend-mode:luminosity"/>
<circle cx="28" cy="28" r="28" fill="#E6E7EB" fill-opacity="0.68"/>
<circle cx="28" cy="28" r="24.5" fill="#E6E7EB" style="mix-blend-mode:luminosity"/>
<circle cx="28" cy="28" r="24.5" fill="#EEEEEE"/>
<circle cx="28" cy="28" r="24.5" stroke="#2C2C2E" stroke-width="3"/>
<circle cx="28" cy="28" r="24.5" stroke="black" stroke-width="3"/>
<path d="M25.8834 19.9628L23.7833 35.4456L31.5249 35.104" stroke="black" stroke-width="3" stroke-linecap="round"/>
<mask id="path-4-inside-1_310_1585" fill="white">
<ellipse cx="18" cy="23" rx="3" ry="2"/>
</mask>
<ellipse cx="18" cy="23" rx="3" ry="2" fill="black"/>
<path d="M21 23L18 23C18 22.6456 18.1126 22.358 18.2311 22.1713C18.3414 21.9974 18.4438 21.927 18.4572 21.9181C18.4717 21.9084 18.3188 22 18 22V25V28C19.3381 28 20.6852 27.6438 21.7854 26.9104C22.8647 26.1909 24 24.8674 24 23L21 23ZM18 25V22C17.6812 22 17.5284 21.9084 17.5428 21.9181C17.5562 21.927 17.6586 21.9974 17.7689 22.1713C17.8874 22.358 18 22.6456 18 23L15 23L12 23C12 24.8674 13.1353 26.1909 14.2146 26.9104C15.3148 27.6438 16.6619 28 18 28V25ZM15 23L18 23C18 23.3544 17.8874 23.642 17.7689 23.8287C17.6586 24.0026 17.5562 24.073 17.5428 24.0819C17.5284 24.0916 17.6812 24 18 24V21V18C16.6619 18 15.3148 18.3562 14.2146 19.0896C13.1353 19.8091 12 21.1326 12 23L15 23ZM18 21V24C18.3188 24 18.4717 24.0916 18.4572 24.0819C18.4438 24.073 18.3414 24.0026 18.2311 23.8287C18.1126 23.642 18 23.3544 18 23L21 23L24 23C24 21.1326 22.8647 19.8091 21.7854 19.0896C20.6852 18.3562 19.3381 18 18 18V21Z" fill="black" mask="url(#path-4-inside-1_310_1585)"/>
<mask id="path-6-inside-2_310_1585" fill="white">
<ellipse cx="36" cy="23" rx="3" ry="2"/>
</mask>
<ellipse cx="36" cy="23" rx="3" ry="2" fill="black"/>
<path d="M39 23L36 23C36 22.6456 36.1126 22.358 36.2311 22.1713C36.3414 21.9974 36.4438 21.927 36.4572 21.9181C36.4717 21.9084 36.3188 22 36 22V25V28C37.3381 28 38.6852 27.6438 39.7854 26.9104C40.8647 26.1909 42 24.8674 42 23L39 23ZM36 25V22C35.6812 22 35.5284 21.9084 35.5428 21.9181C35.5562 21.927 35.6586 21.9974 35.7689 22.1713C35.8874 22.358 36 22.6456 36 23L33 23L30 23C30 24.8674 31.1353 26.1909 32.2146 26.9104C33.3148 27.6438 34.6619 28 36 28V25ZM33 23L36 23C36 23.3544 35.8874 23.642 35.7689 23.8287C35.6586 24.0026 35.5562 24.073 35.5428 24.0819C35.5284 24.0916 35.6812 24 36 24V21V18C34.6619 18 33.3148 18.3562 32.2146 19.0896C31.1353 19.8091 30 21.1326 30 23L33 23ZM36 21V24C36.3188 24 36.4717 24.0916 36.4572 24.0819C36.4438 24.073 36.3414 24.0026 36.2311 23.8287C36.1126 23.642 36 23.3544 36 23L39 23L42 23C42 21.1326 40.8647 19.8091 39.7854 19.0896C38.6852 18.3562 37.3381 18 36 18V21Z" fill="black" mask="url(#path-6-inside-2_310_1585)"/>
</svg>
