<svg width="56" height="56" viewBox="0 0 56 56" fill="none" xmlns="http://www.w3.org/2000/svg">
<circle cx="28" cy="28" r="28" fill="#E6E7EB" style="mix-blend-mode:luminosity"/>
<circle cx="28" cy="28" r="28" fill="#E6E7EB" fill-opacity="0.68"/>
<circle cx="28" cy="28" r="24.5" fill="#E6E7EB" style="mix-blend-mode:luminosity"/>
<circle cx="28" cy="28" r="24.5" fill="#EEEEEE"/>
<circle cx="28" cy="28" r="24.5" stroke="#2C2C2E" stroke-width="3"/>
<circle cx="28" cy="28" r="24.5" stroke="black" stroke-width="3"/>
<path d="M25.8834 19.9628L23.7833 35.4456L31.5249 35.104" stroke="black" stroke-width="3" stroke-linecap="round"/>
<mask id="path-4-inside-1_265_1720" fill="white">
<ellipse cx="18" cy="21.5" rx="3" ry="0.5"/>
</mask>
<ellipse cx="18" cy="21.5" rx="3" ry="0.5" fill="black"/>
<path d="M21 21.5L18 21.5C18 20.2243 18.7789 19.491 19.0445 19.2747C19.3475 19.0279 19.6114 18.9244 19.6644 18.9035C19.8003 18.85 19.8198 18.8624 19.6281 18.8944C19.293 18.9502 18.7158 19 18 19V22V25C18.9411 25 19.8639 24.9378 20.6145 24.8127C20.9658 24.7542 21.4246 24.6589 21.8641 24.4858C22.0689 24.405 22.4507 24.2387 22.8336 23.9269C23.1792 23.6454 24 22.8447 24 21.5L21 21.5ZM18 22V19C17.2843 19 16.7071 18.9502 16.3719 18.8944C16.1802 18.8624 16.1997 18.85 16.3356 18.9035C16.3886 18.9244 16.6526 19.0279 16.9555 19.2747C17.2211 19.491 18 20.2243 18 21.5L15 21.5L12 21.5C12 22.8447 12.8209 23.6454 13.1664 23.9269C13.5493 24.2387 13.9311 24.405 14.1359 24.4858C14.5754 24.6589 15.0343 24.7542 15.3855 24.8127C16.1361 24.9378 17.0589 25 18 25V22ZM15 21.5L18 21.5C18 22.7757 17.2211 23.509 16.9555 23.7253C16.6526 23.9721 16.3886 24.0756 16.3356 24.0965C16.1997 24.15 16.1802 24.1376 16.3719 24.1056C16.7071 24.0498 17.2843 24 18 24V21V18C17.0589 18 16.1361 18.0622 15.3855 18.1873C15.0343 18.2458 14.5754 18.3411 14.1359 18.5143C13.9311 18.595 13.5493 18.7613 13.1664 19.0731C12.8209 19.3546 12 20.1553 12 21.5L15 21.5ZM18 21V24C18.7158 24 19.293 24.0498 19.6281 24.1056C19.8198 24.1376 19.8003 24.15 19.6644 24.0965C19.6114 24.0756 19.3475 23.9721 19.0445 23.7253C18.7789 23.509 18 22.7757 18 21.5L21 21.5L24 21.5C24 20.1553 23.1792 19.3546 22.8336 19.0731C22.4507 18.7613 22.0689 18.595 21.8641 18.5143C21.4246 18.3411 20.9658 18.2458 20.6145 18.1873C19.8639 18.0622 18.9411 18 18 18V21Z" fill="black" mask="url(#path-4-inside-1_265_1720)"/>
<mask id="path-6-inside-2_265_1720" fill="white">
<ellipse cx="36" cy="21.5" rx="3" ry="0.5"/>
</mask>
<ellipse cx="36" cy="21.5" rx="3" ry="0.5" fill="black"/>
<path d="M39 21.5L36 21.5C36 20.2243 36.7789 19.491 37.0445 19.2747C37.3475 19.0279 37.6114 18.9244 37.6644 18.9035C37.8003 18.85 37.8198 18.8624 37.6281 18.8944C37.293 18.9502 36.7158 19 36 19V22V25C36.9411 25 37.8639 24.9378 38.6145 24.8127C38.9658 24.7542 39.4246 24.6589 39.8641 24.4858C40.0689 24.405 40.4507 24.2387 40.8336 23.9269C41.1792 23.6454 42 22.8447 42 21.5L39 21.5ZM36 22V19C35.2843 19 34.7071 18.9502 34.3719 18.8944C34.1802 18.8624 34.1997 18.85 34.3356 18.9035C34.3886 18.9244 34.6526 19.0279 34.9555 19.2747C35.2211 19.491 36 20.2243 36 21.5L33 21.5L30 21.5C30 22.8447 30.8209 23.6454 31.1664 23.9269C31.5493 24.2387 31.9311 24.405 32.1359 24.4858C32.5754 24.6589 33.0343 24.7542 33.3855 24.8127C34.1361 24.9378 35.0589 25 36 25V22ZM33 21.5L36 21.5C36 22.7757 35.2211 23.509 34.9555 23.7253C34.6526 23.9721 34.3886 24.0756 34.3356 24.0965C34.1997 24.15 34.1802 24.1376 34.3719 24.1056C34.7071 24.0498 35.2843 24 36 24V21V18C35.0589 18 34.1361 18.0622 33.3855 18.1873C33.0343 18.2458 32.5754 18.3411 32.1359 18.5143C31.9311 18.595 31.5493 18.7613 31.1664 19.0731C30.8209 19.3546 30 20.1553 30 21.5L33 21.5ZM36 21V24C36.7158 24 37.293 24.0498 37.6281 24.1056C37.8198 24.1376 37.8003 24.15 37.6644 24.0965C37.6114 24.0756 37.3475 23.9721 37.0445 23.7253C36.7789 23.509 36 22.7757 36 21.5L39 21.5L42 21.5C42 20.1553 41.1792 19.3546 40.8336 19.0731C40.4507 18.7613 40.0689 18.595 39.8641 18.5143C39.4246 18.3411 38.9658 18.2458 38.6145 18.1873C37.8639 18.0622 36.9411 18 36 18V21Z" fill="black" mask="url(#path-6-inside-2_265_1720)"/>
</svg>
