<svg width="40" height="39" viewBox="0 0 40 39" fill="none" xmlns="http://www.w3.org/2000/svg">
<path d="M1.92573 22.9067C2.64837 23.8411 3.3452 22.6904 3.60328 21.9982C3.21619 21.9982 2.31294 21.9722 1.79677 21.8685C1.15156 21.7388 1.0224 20.5706 1.0224 19.7919C1.0224 19.169 2.05482 19.0997 2.57103 19.143C2.82912 18.8402 3.16463 18.2864 2.44199 18.4941C1.53869 18.7537 0.893472 17.9749 0.635296 17.8452C-0.655109 17.0664 0.377185 14.341 0.635296 14.0814C0.841785 13.8737 0.979402 14.1679 1.0224 14.341C1.0224 14.5573 1.17725 14.938 1.79666 14.7303C2.93224 14.315 2.35584 13.692 1.9257 13.4325C1.09983 13.4325 0.721316 12.2211 0.635296 11.6155C0.532061 9.74658 1.62463 9.10631 2.18381 9.01979C2.4419 9.01979 2.95807 9.0717 2.95807 9.27936C2.95807 9.48702 3.30218 9.62545 3.47424 9.66871C4.09365 9.66871 3.73233 8.97653 3.47424 8.63044C2.23543 7.90364 2.4419 6.51062 2.69998 5.90496C3.86137 4.73689 4.2485 4.86668 4.2485 5.5156C4.2485 6.16453 5.66797 7.2028 7.34553 6.42409C9.02309 5.64539 7.73266 4.99646 8.37788 3.43904C8.89405 2.19311 10.1415 2.1412 10.7007 2.27098C11.4233 2.27098 10.9157 2.7036 10.5716 2.9199C10.0554 3.33522 10.4426 3.87166 10.7007 4.08797C11.1136 4.50328 11.647 4.26101 11.862 4.08797C12.4814 3.465 12.0341 2.87664 11.733 2.66034C11.3201 2.1412 11.3889 1.92489 11.4749 1.88163C11.7846 1.7778 12.2062 1.92489 12.3782 2.01141C13.9267 2.11524 15.5183 1.10292 16.1205 0.583778C17.0496 0.168467 18.0561 0.843348 18.4432 1.2327C18.9594 1.9595 19.4326 1.79512 19.6046 1.62208C21.7725 -0.0391646 23.0027 -0.108383 23.3469 0.0646632C23.9921 0.973157 22.7016 2.01144 22.7016 2.271C22.7016 2.47866 23.82 2.44405 24.3792 2.40079C25.7987 2.271 25.5406 0.583783 25.5406 0.324214C25.5406 0.064644 28.1215 0.453998 27.8634 1.36249C27.6053 2.27099 28.3795 1.88163 28.5086 1.7518C29.0248 1.23266 30.1001 1.53549 30.5733 1.7518C31.1755 2.18441 32.2766 3.2573 31.8637 4.08792C31.4508 4.91855 32.0358 5.4723 32.3799 5.64534C33.6187 6.26827 34.1865 5.38579 34.3155 4.86667C34.0574 3.56883 35.3479 4.73689 35.4769 4.86667C36.6383 5.12624 36.3802 7.2028 35.864 7.59216C35.3479 7.98151 35.3479 8.63043 36.3802 8.63043C37.2061 8.63043 38.0147 9.32262 38.3158 9.66871C39.3482 10.6032 38.5739 11.7885 38.0578 12.2644C37.9287 12.5672 37.7997 13.1729 38.3158 13.1729C38.9611 13.1729 39.9934 14.4708 39.9934 14.7303C40.1225 17.326 38.3158 17.5856 38.0578 17.5856C36.7673 16.5473 36.2512 18.6238 37.6706 18.6238C39.0901 18.6238 39.6063 18.7536 39.6063 20.0515C39.6063 21.3493 38.0578 21.7386 37.6706 21.6088C37.2835 21.479 36.7673 22.5173 37.6706 22.5173C38.5739 22.5173 38.832 23.1662 38.832 23.4258C38.832 24.1526 38.0578 24.6804 37.6706 24.8535C37.5416 31.9916 32.896 30.6938 32.896 30.8236C29.4119 39 21.4112 39 21.0241 39C11.9911 39 9.53926 31.732 9.28118 31.732C2.95807 31.4725 3.86137 25.113 3.60328 25.113C2.07946 25.113 1.50587 23.5556 1.40955 22.7769C1.58161 22.7769 1.92573 22.8028 1.92573 22.9067Z" fill="black"/>
<path d="M13.5397 10.8368C14.0558 9.17556 15.3893 9.01982 15.9915 9.1496C16.7141 10.3956 18.1852 10.6205 18.8304 10.5773C19.8628 9.66878 23.0888 8.37093 25.1535 8.89007C26.5576 9.2431 26.8179 10.3713 26.7587 11.1269C26.7448 11.3046 26.8857 11.4703 27.0629 11.4654C28.0938 11.437 29.5955 11.6388 29.412 12.6538C29.2055 13.7959 29.67 14.4276 29.9281 14.6006L31.5919 15.9154C31.6776 15.9831 31.7109 16.0978 31.6805 16.203C31.2608 17.6538 31.7908 18.504 32.1219 18.7537C32.2079 19.0998 32.3283 20.7784 32.1219 24.7238C31.9154 28.6693 31.1755 30.4343 30.8314 30.8237C27.4763 35.7555 23.605 36.0151 23.3469 36.0151C19.2176 37.884 14.4 34.6307 12.5073 32.7705C10.2362 32.0437 9.23823 23.1231 9.02316 18.7537C9.28125 18.4509 9.79742 17.5337 9.79742 16.2878C9.79742 14.7304 10.0555 13.4325 11.3459 13.173C12.6364 12.9134 12.8944 12.9134 13.5397 10.8368Z" fill="#F2AE64"/>
<path d="M8.89405 29.7853C8.89405 29.6987 8.71346 28.1501 7.99082 22.6472C7.16492 22.0242 6.61435 22.3876 6.4423 22.6472C5.61643 23.1663 5.49599 24.8535 5.539 25.6322C5.64223 28.4356 7.81869 29.569 8.89405 29.7853Z" fill="#F2AE64"/>
<path d="M33.0252 29.2662L33.6704 21.7387C35.6318 21.0119 36.1222 23.8585 36.1222 25.3727C36.019 28.176 34.0145 29.1364 33.0252 29.2662Z" fill="#F2AE64"/>
<path d="M16.1205 19.9217C14.572 19.1949 11.8621 18.7537 10.7007 18.6239C10.2878 18.5718 9.75442 18.6022 9.53935 18.6238L9.92648 17.8451C10.4427 16.9367 11.2599 17.0665 11.7331 17.1962L13.5397 17.7154C14.6753 18.2345 17.2819 18.6606 18.4433 18.8088V19.2728C18.3143 19.7919 17.6691 20.6485 16.1205 19.9217Z" fill="black"/>
<path d="M26.057 17.0664C24.0956 17.897 22.2287 18.3643 21.5405 18.494C21.4374 18.5144 21.3255 18.5025 21.2824 18.494C21.1534 18.7536 21.2826 19.4026 21.7986 19.6621C22.3146 19.9217 24.7666 19.4026 26.3151 18.7537C27.5539 18.2345 29.9283 18.0182 30.9606 17.9749C30.238 16.3137 29.1971 16.0714 28.7669 16.1579C28.6809 16.1147 28.0185 16.2358 26.057 17.0664Z" fill="black"/>
<path d="M16.2496 20.3111C14.2881 19.7919 11.7331 20.7004 10.7007 21.2196L11.475 21.9983C11.9912 21.6089 13.0235 21.3493 13.2816 21.3493C13.1526 24.2046 15.2172 23.945 15.2172 23.945C16.869 23.945 17.0238 22.0415 16.8948 21.0898C17.0238 21.0898 17.626 21.2196 17.9271 21.3493C17.54 20.7004 16.3786 20.3111 16.2496 20.3111Z" fill="black"/>
<path d="M23.2179 20.311C23.2179 20.311 22.8738 20.8302 22.8308 21.0898C23.0373 20.7783 23.9492 20.6571 24.3793 20.7004C24.3793 23.4259 25.5837 23.6422 26.3149 23.6854C28.0699 23.6854 28.3366 21.7819 28.2506 20.8302C28.7668 20.8302 29.412 21.0897 29.6701 21.2195L30.4443 20.311C29.8249 19.7919 27.3473 19.4026 26.3149 19.5323C25.6697 19.5324 24.8955 19.6621 24.2503 19.7919C23.491 19.9447 23.2179 20.311 23.2179 20.311Z" fill="black"/>
<path d="M18.7013 25.6323C19.2175 24.9055 19.2605 20.3112 19.2175 18.1048C19.2175 17.8453 18.9594 17.8453 18.9594 18.1048V18.3644C18.9594 18.624 18.7013 21.2196 18.5723 22.5175C18.3658 24.0749 18.3142 25.0698 18.1852 25.2429C17.2561 26.8003 17.4108 27.1897 17.4108 27.1897C17.54 28.2279 19.0884 28.7471 19.6046 28.8769C20.1208 28.8769 19.9057 28.5308 19.7336 28.3578C19.4326 28.0982 18.7014 27.5791 18.7014 27.5791C18.0562 27.1897 18.0561 26.5408 18.7013 25.6323Z" fill="black"/>
<path d="M21.3171 33.9847C21.2272 34.0527 21.1038 34.0543 21.0122 33.9886L19.6774 33.0314C19.4742 32.8857 19.5745 32.5636 19.824 32.5605L22.4695 32.5273C22.719 32.5241 22.8273 32.8436 22.6278 32.9943L21.3171 33.9847Z" fill="black"/>
<path d="M19.5671 30.2246C18.3573 30.3448 16.6318 31.2459 15.8495 31.8923C15.7567 31.969 15.6204 31.9838 15.5364 31.8975C14.9165 31.2604 15.9562 30.2659 16.5985 29.8217L16.9857 30.0813C16.9857 29.8217 17.1989 29.6062 17.6309 29.4324C18.1902 29.2074 18.9759 29.1124 19.5674 29.0629C19.7064 29.0513 19.8247 29.1623 19.8247 29.3026L19.8246 29.9516C19.8246 30.0949 19.7089 30.2105 19.5671 30.2246Z" fill="black"/>
<path d="M21.8897 28.9132C20.5314 28.7311 20.3643 29.2679 20.4311 29.7529C20.4473 29.8708 20.5531 29.9515 20.6715 29.9506C21.4202 29.945 22.3688 29.9181 23.18 30.0813C23.7463 30.1952 25.0084 30.6423 25.7449 30.984C25.89 31.0513 26.0553 30.9749 26.0376 30.8151C26.0036 30.5087 25.8549 30.1406 25.7609 29.9515C25.3479 29.3285 24.6425 29.3458 24.3414 29.4324V29.3026C24.3414 29.0949 22.7069 28.9565 21.8897 28.9132Z" fill="black"/>
<path d="M23.6239 31.0448C20.6301 30.1104 18.161 31.2611 17.3008 31.9533C16.9911 32.2648 17.17 32.3427 17.8171 32.2129C18.1463 32.1468 19.1057 31.9533 19.1057 31.9533C19.8799 31.8235 21.1721 31.6505 22.0754 31.6937C22.547 31.6937 23.7002 31.802 24.3553 31.9197C24.4595 31.9384 24.5808 31.8887 24.5577 31.7847C24.4953 31.5036 23.9445 31.1881 23.6239 31.0448Z" fill="black"/>
<path d="M8.47933 6.57458C8.39844 6.20282 9.29829 6.13746 9.75833 6.15125L9.97093 6.73471L9.27045 7.05997C8.80341 7.2768 8.58045 7.03928 8.47933 6.57458Z" fill="#D9D9D9"/>
<path d="M30.6433 5.51257C30.6887 5.13475 29.7867 5.15573 29.3301 5.21345L29.1736 5.81459L29.9016 6.0714C30.387 6.24259 30.5865 5.98483 30.6433 5.51257Z" fill="#D9D9D9"/>
<path d="M18.3144 6.1042C18.3686 7.24975 16.4058 8.27456 13.9302 8.39318C11.4547 8.5118 9.40387 7.67931 9.34961 6.53376C9.29534 5.38821 11.2582 4.36339 13.7337 4.24478C16.2093 4.12616 18.2601 4.95865 18.3144 6.1042Z" fill="#D9D9D9"/>
<path d="M17.6193 6.02201C17.6645 6.97664 16.0031 7.83188 13.9084 7.93225C11.8137 8.03262 10.079 7.34011 10.0337 6.38548C9.98853 5.43086 11.65 4.57561 13.7447 4.47524C15.8393 4.37487 17.5741 5.06738 17.6193 6.02201Z" fill="#020000"/>
<path d="M29.8077 5.55348C29.7534 4.40793 27.7026 3.57544 25.227 3.69406C22.7515 3.81268 20.7886 4.83749 20.8429 5.98304C20.8972 7.12859 22.948 7.96109 25.4235 7.84247C27.8991 7.72385 29.8619 6.69904 29.8077 5.55348Z" fill="#D9D9D9"/>
<path d="M29.1126 5.47129C29.1578 6.42592 27.4964 7.28116 25.4017 7.38153C23.307 7.4819 21.5722 6.78939 21.527 5.83477C21.4818 4.88014 23.1432 4.0249 25.2379 3.92453C27.3326 3.82416 29.0674 4.51667 29.1126 5.47129Z" fill="#020000"/>
<path d="M18.5856 5.74291C18.5969 5.65822 18.6621 5.59086 18.7461 5.57698L19.0416 5.52823C19.4065 5.46802 19.7773 5.45212 20.1459 5.48087L20.3466 5.49652C20.4428 5.50401 20.5229 5.57337 20.5443 5.66767L20.5476 5.68237C20.59 5.8693 20.6002 6.06213 20.5777 6.25251C20.5642 6.36683 20.4614 6.44895 20.3472 6.43659L20.3283 6.43455C19.8685 6.38477 19.4038 6.40524 18.9501 6.49524L18.8564 6.51383C18.7573 6.53349 18.6596 6.47336 18.6318 6.37599C18.5733 6.17062 18.5574 5.95467 18.5856 5.74291Z" fill="#D9D9D9"/>
</svg>
