<svg width="53" height="53" viewBox="0 0 53 53" fill="none" xmlns="http://www.w3.org/2000/svg">
<circle cx="26.5" cy="26.5" r="25" fill="white" stroke="black" stroke-width="3"/>
<path d="M9.7813 30.1446C10.4497 31.0072 11.0943 29.945 11.333 29.306C10.975 29.306 10.1395 29.2821 9.66201 29.1863C9.06519 29.0666 8.94572 27.9883 8.94572 27.2695C8.94572 26.6944 9.90071 26.6305 10.3782 26.6705C10.6169 26.3909 10.9273 25.8798 10.2588 26.0715C9.42329 26.3111 8.82646 25.5923 8.58765 25.4725C7.39402 24.7536 8.3489 22.2378 8.58765 21.9982C8.77865 21.8065 8.90595 22.0781 8.94572 22.2378C8.94572 22.4375 9.08896 22.7889 9.66191 22.5972C10.7123 22.2139 10.1792 21.6388 9.78127 21.3992C9.01734 21.3992 8.66722 20.2811 8.58765 19.722C8.49216 17.9968 9.50278 17.4058 10.02 17.326C10.2588 17.326 10.7362 17.3739 10.7362 17.5656C10.7362 17.7572 11.0545 17.885 11.2137 17.925C11.7866 17.925 11.4524 17.286 11.2137 16.9666C10.0678 16.2957 10.2588 15.0098 10.4975 14.4507C11.5718 13.3725 11.9299 13.4923 11.9299 14.0913C11.9299 14.6903 13.2429 15.6487 14.7946 14.9299C16.3464 14.2111 15.1527 13.6121 15.7495 12.1745C16.227 11.0244 17.3809 10.9765 17.8981 11.0963C18.5665 11.0963 18.097 11.4956 17.7787 11.6953C17.3013 12.0787 17.6594 12.5738 17.8981 12.7735C18.2801 13.1569 18.7734 12.9332 18.9724 12.7735C19.5453 12.1985 19.1315 11.6554 18.853 11.4557C18.4711 10.9765 18.5347 10.7768 18.6143 10.7369C18.9008 10.641 19.2907 10.7768 19.4498 10.8567C20.8822 10.9525 22.3544 10.0181 22.9114 9.53887C23.7708 9.15551 24.7019 9.77847 25.06 10.1379C25.5374 10.8088 25.9751 10.657 26.1343 10.4973C28.1396 8.96385 29.2775 8.89995 29.5959 9.05969C30.1927 9.8983 28.999 10.8567 28.999 11.0963C28.999 11.288 30.0335 11.256 30.5508 11.2161C31.8638 11.0963 31.6251 9.53888 31.6251 9.29927C31.6251 9.05967 34.0123 9.41908 33.7736 10.2577C33.5349 11.0963 34.2511 10.7369 34.3704 10.617C34.8479 10.1378 35.8426 10.4174 36.2803 10.617C36.8373 11.0164 37.8559 12.0067 37.4739 12.7735C37.092 13.5402 37.6331 14.0513 37.9514 14.2111C39.0973 14.7861 39.6225 13.9715 39.7419 13.4923C39.5031 12.2943 40.6968 13.3725 40.8161 13.4923C41.8904 13.7319 41.6517 15.6487 41.1742 16.0081C40.6968 16.3675 40.6968 16.9666 41.6517 16.9666C42.4156 16.9666 43.1636 17.6055 43.4422 17.925C44.3971 18.7875 43.6809 19.8817 43.2034 20.321C43.0841 20.6005 42.9647 21.1596 43.4422 21.1596C44.039 21.1596 44.9939 22.3576 44.9939 22.5972C45.1133 24.9932 43.4422 25.2328 43.2034 25.2328C42.0098 24.2744 41.5323 26.1912 42.8453 26.1912C44.1584 26.1912 44.6358 26.311 44.6358 27.509C44.6358 28.7071 43.2034 29.0664 42.8453 28.9466C42.4872 28.8268 42.0098 29.7852 42.8453 29.7852C43.6809 29.7852 43.9196 30.3842 43.9196 30.6238C43.9196 31.2947 43.2034 31.7819 42.8453 31.9416C42.726 38.5307 38.4288 37.3327 38.4288 37.4525C35.206 45 27.8054 45 27.4473 45C19.0918 45 16.8238 38.2911 16.5851 38.2911C10.7362 38.0515 11.5718 32.1812 11.333 32.1812C9.9235 32.1812 9.39293 30.7436 9.30384 30.0248C9.46299 30.0248 9.7813 30.0488 9.7813 30.1446Z" fill="black"/>
<path d="M20.5242 19.0032C21.0017 17.4697 22.2351 17.326 22.7921 17.4458C23.4606 18.5959 24.8213 18.8036 25.4181 18.7636C26.3731 17.925 29.3572 16.727 31.267 17.2062C32.5658 17.5321 32.8065 18.5735 32.7518 19.271C32.7389 19.4351 32.8693 19.588 33.0332 19.5835C33.9868 19.5572 35.3758 19.7435 35.2061 20.6805C35.0151 21.7347 35.4448 22.3177 35.6835 22.4775L37.2225 23.6911C37.3018 23.7536 37.3326 23.8595 37.3044 23.9567C36.9162 25.2958 37.4065 26.0806 37.7127 26.3111C37.7923 26.6306 37.9037 28.18 37.7127 31.822C37.5217 35.4639 36.8374 37.0932 36.5191 37.4527C33.4156 42.0051 29.8346 42.2447 29.5959 42.2447C25.7762 43.9698 21.32 40.9668 19.5693 39.2497C17.4685 38.5788 16.5454 30.3444 16.3464 26.3111C16.5852 26.0316 17.0626 25.185 17.0626 24.0349C17.0626 22.5973 17.3013 21.3993 18.495 21.1597C19.6886 20.9201 19.9274 20.92 20.5242 19.0032Z" fill="#F2AE64"/>
<path d="M16.227 36.4941C16.227 36.4142 16.0599 34.9847 15.3915 29.9051C14.6276 29.3301 14.1183 29.6655 13.9591 29.9051C13.1952 30.3843 13.0838 31.9417 13.1236 32.6605C13.2191 35.2482 15.2323 36.2944 16.227 36.4941Z" fill="#F2AE64"/>
<path d="M38.5483 36.015L39.1451 29.0665C40.9595 28.3956 41.413 31.0233 41.413 32.4209C41.3176 35.0086 39.4634 35.8952 38.5483 36.015Z" fill="#F2AE64"/>
<path d="M22.9115 27.3893C21.4791 26.7184 18.9725 26.3111 17.8982 26.1913C17.5162 26.1432 17.0228 26.1712 16.8239 26.1912L17.182 25.4724C17.6595 24.6338 18.4154 24.7536 18.8531 24.8734L20.5242 25.3527C21.5746 25.8319 23.9858 26.2252 25.0601 26.362V26.7903C24.9407 27.2695 24.3439 28.0602 22.9115 27.3893Z" fill="black"/>
<path d="M32.1027 24.7536C30.2884 25.5203 28.5616 25.9516 27.925 26.0714C27.8296 26.0902 27.7261 26.0793 27.6862 26.0714C27.5669 26.311 27.6864 26.9101 28.1637 27.1497C28.641 27.3893 30.9091 26.9101 32.3415 26.3111C33.4874 25.8319 35.6837 25.6322 36.6386 25.5922C35.9701 24.0588 35.0073 23.8351 34.6094 23.915C34.5298 23.8751 33.9171 23.9869 32.1027 24.7536Z" fill="black"/>
<path d="M23.0309 27.7487C21.2165 27.2695 18.8531 28.1081 17.8982 28.5873L18.6144 29.3061C19.0918 28.9467 20.0468 28.7071 20.2855 28.7071C20.1661 31.3427 22.076 31.1031 22.076 31.1031C23.6038 31.1031 23.7471 29.346 23.6277 28.4675C23.7471 28.4675 24.3041 28.5873 24.5826 28.7071C24.2245 28.1081 23.1502 27.7487 23.0309 27.7487Z" fill="black"/>
<path d="M29.4766 27.7487C29.4766 27.7487 29.1583 28.2279 29.1185 28.4675C29.3095 28.1799 30.153 28.0681 30.5509 28.108C30.5509 30.6239 31.6649 30.8236 32.3413 30.8635C33.9647 30.8635 34.2114 29.1064 34.1318 28.2279C34.6093 28.2279 35.2061 28.4675 35.4448 28.5873L36.161 27.7487C35.588 27.2695 33.2962 26.9101 32.3413 27.0298C31.7445 27.0299 31.0283 27.1496 30.4315 27.2695C29.7292 27.4105 29.4766 27.7487 29.4766 27.7487Z" fill="black"/>
<path d="M25.2987 32.6606C25.7762 31.9897 25.816 27.7488 25.7762 25.7121C25.7762 25.4726 25.5374 25.4726 25.5375 25.7121V25.9517C25.5374 26.1913 25.2987 28.5873 25.1794 29.7853C24.9884 31.223 24.9407 32.1414 24.8213 32.3011C23.9619 33.7387 24.105 34.0982 24.105 34.0982C24.2245 35.0566 25.6568 35.5358 26.1342 35.6556C26.6117 35.6556 26.4128 35.3361 26.2536 35.1764C25.9751 34.9368 25.2988 34.4576 25.2988 34.4576C24.702 34.0982 24.7019 33.4992 25.2987 32.6606Z" fill="black"/>
<path d="M27.7183 40.3705C27.6351 40.4333 27.521 40.4347 27.4363 40.3741L26.2016 39.4905C26.0136 39.356 26.1064 39.0587 26.3372 39.0558L28.7843 39.0252C29.0151 39.0223 29.1152 39.3171 28.9307 39.4563L27.7183 40.3705Z" fill="black"/>
<path d="M26.0996 36.8996C24.9805 37.0106 23.3844 37.8424 22.6608 38.4391C22.575 38.5099 22.4489 38.5235 22.3712 38.4439C21.7978 37.8558 22.7594 36.9378 23.3537 36.5278L23.7117 36.7674C23.7117 36.5278 23.909 36.3288 24.3086 36.1684C24.826 35.9606 25.5527 35.873 26.0999 35.8273C26.2285 35.8166 26.3378 35.9191 26.3379 36.0486L26.3378 36.6476C26.3378 36.7799 26.2308 36.8866 26.0996 36.8996Z" fill="black"/>
<path d="M28.248 35.6891C26.9915 35.521 26.837 36.0165 26.8987 36.4642C26.9137 36.5731 27.0116 36.6476 27.1211 36.6467C27.8137 36.6415 28.6912 36.6167 29.4415 36.7673C29.9653 36.8725 31.1327 37.2852 31.814 37.6006C31.9482 37.6628 32.1012 37.5922 32.0848 37.4447C32.0534 37.1619 31.9157 36.8221 31.8288 36.6475C31.4468 36.0725 30.7943 36.0885 30.5158 36.1683V36.0485C30.5158 35.8569 29.0039 35.7291 28.248 35.6891Z" fill="black"/>
<path d="M29.8521 37.6568C27.0828 36.7942 24.799 37.8564 24.0032 38.4954C23.7167 38.7829 23.8823 38.8548 24.4808 38.735C24.7853 38.674 25.6727 38.4954 25.6727 38.4954C26.3889 38.3756 27.5841 38.2158 28.4197 38.2558C28.856 38.2558 29.9227 38.3557 30.5286 38.4643C30.6251 38.4816 30.7373 38.4357 30.7159 38.3398C30.6582 38.0803 30.1487 37.7891 29.8521 37.6568Z" fill="black"/>
<path d="M15.8434 15.0688C15.7686 14.7257 16.6009 14.6653 17.0265 14.6781L17.2231 15.2167L16.5752 15.5169C16.1432 15.717 15.9369 15.4978 15.8434 15.0688Z" fill="#D9D9D9"/>
<path d="M36.345 14.0885C36.387 13.7398 35.5527 13.7591 35.1303 13.8124L34.9856 14.3673L35.659 14.6044C36.108 14.7624 36.2926 14.5245 36.345 14.0885Z" fill="#D9D9D9"/>
<path d="M24.9408 14.6346C24.991 15.6921 23.1754 16.6381 20.8855 16.7476C18.5956 16.857 16.6986 16.0886 16.6484 15.0312C16.5982 13.9737 18.4138 13.0277 20.7037 12.9183C22.9936 12.8088 24.8906 13.5772 24.9408 14.6346Z" fill="#D9D9D9"/>
<path d="M24.2979 14.5588C24.3397 15.44 22.8029 16.2294 20.8653 16.3221C18.9277 16.4147 17.323 15.7755 17.2812 14.8943C17.2394 14.0131 18.7762 13.2236 20.7138 13.131C22.6514 13.0383 24.256 13.6776 24.2979 14.5588Z" fill="#020000"/>
<path d="M35.5721 14.1263C35.5219 13.0689 33.6249 12.3004 31.335 12.4099C29.0451 12.5194 27.2295 13.4654 27.2797 14.5228C27.3299 15.5802 29.2269 16.3487 31.5168 16.2392C33.8066 16.1297 35.6223 15.1837 35.5721 14.1263Z" fill="#D9D9D9"/>
<path d="M34.9292 14.0504C34.971 14.9316 33.4342 15.7211 31.4966 15.8137C29.559 15.9064 27.9543 15.2671 27.9125 14.3859C27.8707 13.5047 29.4075 12.7153 31.3451 12.6226C33.2827 12.53 34.8873 13.1692 34.9292 14.0504Z" fill="#020000"/>
<path d="M25.1917 14.3012C25.2021 14.223 25.2624 14.1608 25.3402 14.148L25.6135 14.103C25.951 14.0474 26.294 14.0327 26.635 14.0593L26.8206 14.0737C26.9096 14.0806 26.9837 14.1447 27.0035 14.2317L27.0065 14.2453C27.0458 14.4178 27.0552 14.5958 27.0344 14.7715C27.0219 14.8771 26.9268 14.9529 26.8212 14.9415L26.8037 14.9396C26.3784 14.8936 25.9485 14.9125 25.5288 14.9956L25.4421 15.0128C25.3505 15.0309 25.2601 14.9754 25.2344 14.8855C25.1803 14.696 25.1656 14.4966 25.1917 14.3012Z" fill="#D9D9D9"/>
</svg>
