<svg width="207" height="171" viewBox="0 0 207 171" fill="none" xmlns="http://www.w3.org/2000/svg">
<circle cx="167" cy="85" r="28" fill="#E6E7EB" style="mix-blend-mode:luminosity"/>
<circle cx="167" cy="85" r="28" fill="#E6E7EB" fill-opacity="0.68"/>
<circle cx="167" cy="85" r="24.5" fill="#E6E7EB" style="mix-blend-mode:luminosity"/>
<circle cx="167" cy="85" r="24.5" fill="#EEEEEE"/>
<circle cx="167" cy="85" r="24.5" stroke="#2C2C2E" stroke-width="3"/>
<circle cx="167" cy="85" r="24.5" stroke="black" stroke-width="3"/>
<path d="M164.883 76.9628L162.783 92.4456L170.525 92.104" stroke="black" stroke-width="3" stroke-linecap="round"/>
<mask id="path-4-inside-1_265_1684" fill="white">
<ellipse cx="152.731" cy="75.7305" rx="2.96154" ry="3.5"/>
</mask>
<ellipse cx="152.731" cy="75.7305" rx="2.96154" ry="3.5" fill="black"/>
<path d="M155.693 75.7305L152.693 75.7305C152.693 76.0194 152.592 76.1998 152.535 76.2675C152.509 76.2985 152.506 76.2905 152.542 76.272C152.584 76.2512 152.652 76.2305 152.731 76.2305V79.2305V82.2305C156.474 82.2305 158.693 78.831 158.693 75.7305L155.693 75.7305ZM152.731 79.2305V76.2305C152.81 76.2305 152.878 76.2512 152.92 76.272C152.957 76.2905 152.953 76.2985 152.927 76.2675C152.87 76.1998 152.77 76.0194 152.77 75.7305L149.77 75.7305L146.77 75.7305C146.77 78.831 148.988 82.2305 152.731 82.2305V79.2305ZM149.77 75.7305L152.77 75.7305C152.77 75.4415 152.87 75.2612 152.927 75.1934C152.953 75.1624 152.957 75.1705 152.92 75.1889C152.878 75.2098 152.81 75.2305 152.731 75.2305V72.2305V69.2305C148.988 69.2305 146.77 72.6299 146.77 75.7305L149.77 75.7305ZM152.731 72.2305V75.2305C152.652 75.2305 152.584 75.2098 152.542 75.1889C152.506 75.1705 152.509 75.1624 152.535 75.1934C152.592 75.2612 152.693 75.4415 152.693 75.7305L155.693 75.7305L158.693 75.7305C158.693 72.6299 156.474 69.2305 152.731 69.2305V72.2305Z" fill="black" mask="url(#path-4-inside-1_265_1684)"/>
<mask id="path-6-inside-2_265_1684" fill="white">
<ellipse cx="171.04" cy="75.1914" rx="2.96154" ry="3.5"/>
</mask>
<ellipse cx="171.04" cy="75.1914" rx="2.96154" ry="3.5" fill="black"/>
<path d="M174.001 75.1914L171.001 75.1914C171.001 75.4804 170.901 75.6607 170.844 75.7285C170.817 75.7595 170.814 75.7514 170.851 75.7329C170.893 75.7121 170.961 75.6914 171.04 75.6914V78.6914V81.6914C174.782 81.6914 177.001 78.2919 177.001 75.1914L174.001 75.1914ZM171.04 78.6914V75.6914C171.119 75.6914 171.187 75.7121 171.228 75.7329C171.265 75.7514 171.262 75.7595 171.236 75.7285C171.178 75.6607 171.078 75.4804 171.078 75.1914L168.078 75.1914L165.078 75.1914C165.078 78.2919 167.297 81.6914 171.04 81.6914V78.6914ZM168.078 75.1914L171.078 75.1914C171.078 74.9025 171.178 74.7221 171.236 74.6544C171.262 74.6233 171.265 74.6314 171.228 74.6499C171.187 74.6707 171.119 74.6914 171.04 74.6914V71.6914V68.6914C167.297 68.6914 165.078 72.0909 165.078 75.1914L168.078 75.1914ZM171.04 71.6914V74.6914C170.961 74.6914 170.893 74.6707 170.851 74.6499C170.814 74.6314 170.817 74.6233 170.844 74.6544C170.901 74.7221 171.001 74.9025 171.001 75.1914L174.001 75.1914L177.001 75.1914C177.001 72.0909 174.782 68.6914 171.04 68.6914V71.6914Z" fill="black" mask="url(#path-6-inside-2_265_1684)"/>
</svg>
