<svg width="207" height="171" viewBox="0 0 207 171" fill="none" xmlns="http://www.w3.org/2000/svg">
<g clip-path="url(#clip0_265_1624)">
<circle cx="213" cy="85" r="28" transform="rotate(-90 213 85)" fill="#E6E7EB" style="mix-blend-mode:luminosity"/>
<circle cx="213" cy="85" r="28" transform="rotate(-90 213 85)" fill="#E6E7EB" fill-opacity="0.68"/>
<circle cx="213" cy="85" r="24.5" transform="rotate(-90 213 85)" fill="#E6E7EB" style="mix-blend-mode:luminosity"/>
<circle cx="213" cy="85" r="24.5" transform="rotate(-90 213 85)" fill="#EEEEEE"/>
<circle cx="213" cy="85" r="24.5" transform="rotate(-90 213 85)" stroke="#2C2C2E" stroke-width="3"/>
<circle cx="213" cy="85" r="24.5" transform="rotate(-90 213 85)" stroke="black" stroke-width="3"/>
<path d="M209 83.5726L224.084 79.4981L224.741 87.2192" stroke="black" stroke-width="3" stroke-linecap="round"/>
<mask id="path-4-inside-1_265_1624" fill="white">
<ellipse cx="205.73" cy="92.2689" rx="2.96154" ry="3.5" transform="rotate(-90 205.73 92.2689)"/>
</mask>
<ellipse cx="205.73" cy="92.2689" rx="2.96154" ry="3.5" transform="rotate(-90 205.73 92.2689)" fill="black"/>
<path d="M205.73 89.3074V92.3074C206.019 92.3074 206.2 92.4076 206.268 92.465C206.299 92.4912 206.29 92.4944 206.272 92.4575C206.251 92.4158 206.23 92.348 206.23 92.2689L209.23 92.2689L212.23 92.2689C212.23 88.5262 208.831 86.3074 205.73 86.3074V89.3074ZM209.23 92.2689L206.23 92.2689C206.23 92.1898 206.251 92.122 206.272 92.0803C206.29 92.0434 206.299 92.0466 206.268 92.0729C206.2 92.1302 206.019 92.2305 205.73 92.2305V95.2305V98.2305C208.831 98.2305 212.23 96.0116 212.23 92.2689L209.23 92.2689ZM205.73 95.2305V92.2305C205.442 92.2305 205.261 92.1302 205.193 92.0729C205.162 92.0466 205.17 92.0434 205.189 92.0803C205.21 92.122 205.23 92.1898 205.23 92.2689L202.23 92.2689L199.23 92.2689C199.23 96.0116 202.63 98.2305 205.73 98.2305V95.2305ZM202.23 92.2689L205.23 92.2689C205.23 92.348 205.21 92.4158 205.189 92.4575C205.17 92.4944 205.162 92.4912 205.193 92.465C205.261 92.4076 205.442 92.3074 205.73 92.3074V89.3074V86.3074C202.63 86.3074 199.23 88.5262 199.23 92.2689L202.23 92.2689Z" fill="black" mask="url(#path-4-inside-1_265_1624)"/>
<mask id="path-6-inside-2_265_1624" fill="white">
<ellipse cx="205.191" cy="73.9603" rx="2.96154" ry="3.5" transform="rotate(-90 205.191 73.9603)"/>
</mask>
<ellipse cx="205.191" cy="73.9603" rx="2.96154" ry="3.5" transform="rotate(-90 205.191 73.9603)" fill="black"/>
<path d="M205.191 70.9988V73.9988C205.48 73.9988 205.661 74.099 205.728 74.1564C205.759 74.1826 205.751 74.1858 205.733 74.1489C205.712 74.1072 205.691 74.0394 205.691 73.9603L208.691 73.9603L211.691 73.9603C211.691 70.2176 208.292 67.9988 205.191 67.9988V70.9988ZM208.691 73.9603L205.691 73.9603C205.691 73.8812 205.712 73.8134 205.733 73.7717C205.751 73.7348 205.759 73.738 205.728 73.7643C205.661 73.8216 205.48 73.9219 205.191 73.9219V76.9219V79.9219C208.292 79.9219 211.691 77.703 211.691 73.9603L208.691 73.9603ZM205.191 76.9219V73.9219C204.902 73.9219 204.722 73.8216 204.654 73.7643C204.623 73.738 204.631 73.7348 204.65 73.7717C204.671 73.8134 204.691 73.8812 204.691 73.9603L201.691 73.9603L198.691 73.9603C198.691 77.703 202.091 79.9219 205.191 79.9219V76.9219ZM201.691 73.9603L204.691 73.9603C204.691 74.0394 204.671 74.1072 204.65 74.1489C204.631 74.1858 204.623 74.1826 204.654 74.1564C204.722 74.099 204.902 73.9988 205.191 73.9988V70.9988V67.9988C202.091 67.9988 198.691 70.2176 198.691 73.9603L201.691 73.9603Z" fill="black" mask="url(#path-6-inside-2_265_1624)"/>
</g>
<defs>
<clipPath id="clip0_265_1624">
<rect width="207" height="171" fill="white"/>
</clipPath>
</defs>
</svg>
