<svg width="207" height="171" viewBox="0 0 207 171" fill="none" xmlns="http://www.w3.org/2000/svg">
<g clip-path="url(#clip0_265_1565)">
<path d="M211.438 115.406C215.623 115.406 219.343 116.227 221.964 117.491C224.684 118.803 225.781 120.343 225.781 121.594C225.781 122.844 224.684 124.385 221.964 125.696C219.343 126.96 215.623 127.781 211.438 127.781C207.252 127.781 203.532 126.96 200.911 125.696C198.191 124.385 197.094 122.844 197.094 121.594C197.094 120.343 198.191 118.803 200.911 117.491C203.532 116.227 207.252 115.406 211.438 115.406Z" fill="#D9D9D9" stroke="black" stroke-width="2.8125"/>
<path d="M209.75 126.656C213.935 126.656 217.655 127.477 220.276 128.741C222.997 130.053 224.094 131.593 224.094 132.844C224.094 134.094 222.997 135.635 220.276 136.946C217.655 138.21 213.935 139.031 209.75 139.031C205.565 139.031 201.845 138.21 199.224 136.946C196.503 135.635 195.406 134.094 195.406 132.844C195.406 131.593 196.503 130.053 199.224 128.741C201.845 127.477 205.565 126.656 209.75 126.656Z" fill="#D9D9D9" stroke="black" stroke-width="2.8125"/>
<path d="M212 138.469C216.185 138.469 219.905 139.29 222.526 140.554C225.247 141.865 226.344 143.406 226.344 144.656C226.344 145.907 225.247 147.447 222.526 148.759C219.905 150.023 216.185 150.844 212 150.844C207.815 150.844 204.095 150.023 201.474 148.759C198.753 147.447 197.656 145.907 197.656 144.656C197.656 143.406 198.753 141.865 201.474 140.554C204.095 139.29 207.815 138.469 212 138.469Z" fill="#D9D9D9" stroke="black" stroke-width="2.8125"/>
<path d="M213.438 19.4062C217.623 19.4062 221.343 20.2274 223.964 21.4912C226.684 22.8029 227.781 24.3434 227.781 25.5938C227.781 26.8441 226.684 28.3846 223.964 29.6963C221.343 30.9601 217.623 31.7812 213.438 31.7812C209.252 31.7812 205.532 30.9601 202.911 29.6963C200.191 28.3846 199.094 26.8441 199.094 25.5938C199.094 24.3434 200.191 22.8029 202.911 21.4912C205.532 20.2274 209.252 19.4062 213.438 19.4062Z" fill="#D9D9D9" stroke="black" stroke-width="2.8125"/>
<path d="M211.75 30.6562C215.935 30.6562 219.655 31.4774 222.276 32.7412C224.997 34.0529 226.094 35.5934 226.094 36.8438C226.094 38.0941 224.997 39.6346 222.276 40.9463C219.655 42.2101 215.935 43.0312 211.75 43.0312C207.565 43.0312 203.845 42.2101 201.224 40.9463C198.503 39.6346 197.406 38.0941 197.406 36.8438C197.406 35.5934 198.503 34.0529 201.224 32.7412C203.845 31.4774 207.565 30.6562 211.75 30.6562Z" fill="#D9D9D9" stroke="black" stroke-width="2.8125"/>
<path d="M214 42.4688C218.185 42.4688 221.905 43.2899 224.526 44.5537C227.247 45.8654 228.344 47.4059 228.344 48.6562C228.344 49.9066 227.247 51.4471 224.526 52.7588C221.905 54.0226 218.185 54.8438 214 54.8438C209.815 54.8438 206.095 54.0226 203.474 52.7588C200.753 51.4471 199.656 49.9066 199.656 48.6562C199.656 47.4059 200.753 45.8654 203.474 44.5537C206.095 43.2899 209.815 42.4688 214 42.4688Z" fill="#D9D9D9" stroke="black" stroke-width="2.8125"/>
<circle cx="203" cy="85" r="28" transform="rotate(-90 203 85)" fill="#E6E7EB" style="mix-blend-mode:luminosity"/>
<circle cx="203" cy="85" r="28" transform="rotate(-90 203 85)" fill="#E6E7EB" fill-opacity="0.68"/>
<circle cx="203" cy="85" r="24.5" transform="rotate(-90 203 85)" fill="#E6E7EB" style="mix-blend-mode:luminosity"/>
<circle cx="203" cy="85" r="24.5" transform="rotate(-90 203 85)" fill="#EEEEEE"/>
<circle cx="203" cy="85" r="24.5" transform="rotate(-90 203 85)" stroke="#2C2C2E" stroke-width="3"/>
<circle cx="203" cy="85" r="24.5" transform="rotate(-90 203 85)" stroke="black" stroke-width="3"/>
<path d="M197 83.5726L212.084 79.4981L212.741 87.2192" stroke="black" stroke-width="3" stroke-linecap="round"/>
<mask id="path-10-inside-1_265_1565" fill="white">
<ellipse cx="195.73" cy="92.2689" rx="2.96154" ry="3.5" transform="rotate(-90 195.73 92.2689)"/>
</mask>
<ellipse cx="195.73" cy="92.2689" rx="2.96154" ry="3.5" transform="rotate(-90 195.73 92.2689)" fill="black"/>
<path d="M195.73 89.3074V92.3074C196.019 92.3074 196.2 92.4076 196.268 92.465C196.299 92.4912 196.29 92.4944 196.272 92.4575C196.251 92.4158 196.23 92.348 196.23 92.2689L199.23 92.2689L202.23 92.2689C202.23 88.5262 198.831 86.3074 195.73 86.3074V89.3074ZM199.23 92.2689L196.23 92.2689C196.23 92.1898 196.251 92.122 196.272 92.0803C196.29 92.0434 196.299 92.0466 196.268 92.0729C196.2 92.1302 196.019 92.2305 195.73 92.2305V95.2305V98.2305C198.831 98.2305 202.23 96.0116 202.23 92.2689L199.23 92.2689ZM195.73 95.2305V92.2305C195.442 92.2305 195.261 92.1302 195.193 92.0729C195.162 92.0466 195.17 92.0434 195.189 92.0803C195.21 92.122 195.23 92.1898 195.23 92.2689L192.23 92.2689L189.23 92.2689C189.23 96.0116 192.63 98.2305 195.73 98.2305V95.2305ZM192.23 92.2689L195.23 92.2689C195.23 92.348 195.21 92.4158 195.189 92.4575C195.17 92.4944 195.162 92.4912 195.193 92.465C195.261 92.4076 195.442 92.3074 195.73 92.3074V89.3074V86.3074C192.63 86.3074 189.23 88.5262 189.23 92.2689L192.23 92.2689Z" fill="black" mask="url(#path-10-inside-1_265_1565)"/>
<mask id="path-12-inside-2_265_1565" fill="white">
<ellipse cx="195.191" cy="73.9603" rx="2.96154" ry="3.5" transform="rotate(-90 195.191 73.9603)"/>
</mask>
<ellipse cx="195.191" cy="73.9603" rx="2.96154" ry="3.5" transform="rotate(-90 195.191 73.9603)" fill="black"/>
<path d="M195.191 70.9988V73.9988C195.48 73.9988 195.661 74.099 195.728 74.1564C195.759 74.1826 195.751 74.1858 195.733 74.1489C195.712 74.1072 195.691 74.0394 195.691 73.9603L198.691 73.9603L201.691 73.9603C201.691 70.2176 198.292 67.9988 195.191 67.9988V70.9988ZM198.691 73.9603L195.691 73.9603C195.691 73.8812 195.712 73.8134 195.733 73.7717C195.751 73.7348 195.759 73.738 195.728 73.7643C195.661 73.8216 195.48 73.9219 195.191 73.9219V76.9219V79.9219C198.292 79.9219 201.691 77.703 201.691 73.9603L198.691 73.9603ZM195.191 76.9219V73.9219C194.902 73.9219 194.722 73.8216 194.654 73.7643C194.623 73.738 194.631 73.7348 194.65 73.7717C194.671 73.8134 194.691 73.8812 194.691 73.9603L191.691 73.9603L188.691 73.9603C188.691 77.703 192.091 79.9219 195.191 79.9219V76.9219ZM191.691 73.9603L194.691 73.9603C194.691 74.0394 194.671 74.1072 194.65 74.1489C194.631 74.1858 194.623 74.1826 194.654 74.1564C194.722 74.099 194.902 73.9988 195.191 73.9988V70.9988V67.9988C192.091 67.9988 188.691 70.2176 188.691 73.9603L191.691 73.9603Z" fill="black" mask="url(#path-12-inside-2_265_1565)"/>
</g>
<defs>
<clipPath id="clip0_265_1565">
<rect width="207" height="171" fill="white"/>
</clipPath>
</defs>
</svg>
