<svg width="207" height="171" viewBox="0 0 207 171" fill="none" xmlns="http://www.w3.org/2000/svg">
<circle cx="167" cy="85" r="28" fill="#E6E7EB" style="mix-blend-mode:luminosity"/>
<circle cx="167" cy="85" r="28" fill="#E6E7EB" fill-opacity="0.68"/>
<circle cx="167" cy="85" r="24.5" fill="#E6E7EB" style="mix-blend-mode:luminosity"/>
<circle cx="167" cy="85" r="24.5" fill="#EEEEEE"/>
<circle cx="167" cy="85" r="24.5" stroke="#2C2C2E" stroke-width="3"/>
<circle cx="167" cy="85" r="24.5" stroke="black" stroke-width="3"/>
<path d="M164.883 76.9628L162.783 92.4456L170.525 92.104" stroke="black" stroke-width="3" stroke-linecap="round"/>
<mask id="path-4-inside-1_265_1705" fill="white">
<ellipse cx="156.731" cy="75.7305" rx="2.96154" ry="3.5"/>
</mask>
<ellipse cx="156.731" cy="75.7305" rx="2.96154" ry="3.5" fill="black"/>
<path d="M159.693 75.7305L156.693 75.7305C156.693 76.0194 156.592 76.1998 156.535 76.2675C156.509 76.2985 156.506 76.2905 156.542 76.272C156.584 76.2512 156.652 76.2305 156.731 76.2305V79.2305V82.2305C160.474 82.2305 162.693 78.831 162.693 75.7305L159.693 75.7305ZM156.731 79.2305V76.2305C156.81 76.2305 156.878 76.2512 156.92 76.272C156.957 76.2905 156.953 76.2985 156.927 76.2675C156.87 76.1998 156.77 76.0194 156.77 75.7305L153.77 75.7305L150.77 75.7305C150.77 78.831 152.988 82.2305 156.731 82.2305V79.2305ZM153.77 75.7305L156.77 75.7305C156.77 75.4415 156.87 75.2612 156.927 75.1934C156.953 75.1624 156.957 75.1705 156.92 75.1889C156.878 75.2098 156.81 75.2305 156.731 75.2305V72.2305V69.2305C152.988 69.2305 150.77 72.6299 150.77 75.7305L153.77 75.7305ZM156.731 72.2305V75.2305C156.652 75.2305 156.584 75.2098 156.542 75.1889C156.506 75.1705 156.509 75.1624 156.535 75.1934C156.592 75.2612 156.693 75.4415 156.693 75.7305L159.693 75.7305L162.693 75.7305C162.693 72.6299 160.474 69.2305 156.731 69.2305V72.2305Z" fill="black" mask="url(#path-4-inside-1_265_1705)"/>
<mask id="path-6-inside-2_265_1705" fill="white">
<ellipse cx="175.04" cy="75.1914" rx="2.96154" ry="3.5"/>
</mask>
<ellipse cx="175.04" cy="75.1914" rx="2.96154" ry="3.5" fill="black"/>
<path d="M178.001 75.1914L175.001 75.1914C175.001 75.4804 174.901 75.6607 174.844 75.7285C174.817 75.7595 174.814 75.7514 174.851 75.7329C174.893 75.7121 174.961 75.6914 175.04 75.6914V78.6914V81.6914C178.782 81.6914 181.001 78.2919 181.001 75.1914L178.001 75.1914ZM175.04 78.6914V75.6914C175.119 75.6914 175.187 75.7121 175.228 75.7329C175.265 75.7514 175.262 75.7595 175.236 75.7285C175.178 75.6607 175.078 75.4804 175.078 75.1914L172.078 75.1914L169.078 75.1914C169.078 78.2919 171.297 81.6914 175.04 81.6914V78.6914ZM172.078 75.1914L175.078 75.1914C175.078 74.9025 175.178 74.7221 175.236 74.6544C175.262 74.6233 175.265 74.6314 175.228 74.6499C175.187 74.6707 175.119 74.6914 175.04 74.6914V71.6914V68.6914C171.297 68.6914 169.078 72.0909 169.078 75.1914L172.078 75.1914ZM175.04 71.6914V74.6914C174.961 74.6914 174.893 74.6707 174.851 74.6499C174.814 74.6314 174.817 74.6233 174.844 74.6544C174.901 74.7221 175.001 74.9025 175.001 75.1914L178.001 75.1914L181.001 75.1914C181.001 72.0909 178.782 68.6914 175.04 68.6914V71.6914Z" fill="black" mask="url(#path-6-inside-2_265_1705)"/>
</svg>
