<svg width="207" height="171" viewBox="0 0 207 171" fill="none" xmlns="http://www.w3.org/2000/svg">
<circle cx="167" cy="85" r="28" fill="#E6E7EB" style="mix-blend-mode:luminosity"/>
<circle cx="167" cy="85" r="28" fill="#E6E7EB" fill-opacity="0.68"/>
<circle cx="167" cy="85" r="24.5" fill="#E6E7EB" style="mix-blend-mode:luminosity"/>
<circle cx="167" cy="85" r="24.5" fill="#EEEEEE"/>
<circle cx="167" cy="85" r="24.5" stroke="#2C2C2E" stroke-width="3"/>
<circle cx="167" cy="85" r="24.5" stroke="black" stroke-width="3"/>
<path d="M164.883 76.9628L162.783 92.4456L170.525 92.104" stroke="black" stroke-width="3" stroke-linecap="round"/>
<mask id="path-4-inside-1_265_1691" fill="white">
<ellipse cx="155.731" cy="72.7305" rx="2.96154" ry="3.5"/>
</mask>
<ellipse cx="155.731" cy="72.7305" rx="2.96154" ry="3.5" fill="black"/>
<path d="M158.693 72.7305L155.693 72.7305C155.693 73.0194 155.592 73.1998 155.535 73.2675C155.509 73.2985 155.506 73.2905 155.542 73.272C155.584 73.2512 155.652 73.2305 155.731 73.2305V76.2305V79.2305C159.474 79.2305 161.693 75.831 161.693 72.7305L158.693 72.7305ZM155.731 76.2305V73.2305C155.81 73.2305 155.878 73.2512 155.92 73.272C155.957 73.2905 155.953 73.2985 155.927 73.2675C155.87 73.1998 155.77 73.0194 155.77 72.7305L152.77 72.7305L149.77 72.7305C149.77 75.831 151.988 79.2305 155.731 79.2305V76.2305ZM152.77 72.7305L155.77 72.7305C155.77 72.4415 155.87 72.2612 155.927 72.1934C155.953 72.1624 155.957 72.1705 155.92 72.1889C155.878 72.2098 155.81 72.2305 155.731 72.2305V69.2305V66.2305C151.988 66.2305 149.77 69.6299 149.77 72.7305L152.77 72.7305ZM155.731 69.2305V72.2305C155.652 72.2305 155.584 72.2098 155.542 72.1889C155.506 72.1705 155.509 72.1624 155.535 72.1934C155.592 72.2612 155.693 72.4415 155.693 72.7305L158.693 72.7305L161.693 72.7305C161.693 69.6299 159.474 66.2305 155.731 66.2305V69.2305Z" fill="black" mask="url(#path-4-inside-1_265_1691)"/>
<mask id="path-6-inside-2_265_1691" fill="white">
<ellipse cx="174.04" cy="72.1914" rx="2.96154" ry="3.5"/>
</mask>
<ellipse cx="174.04" cy="72.1914" rx="2.96154" ry="3.5" fill="black"/>
<path d="M177.001 72.1914L174.001 72.1914C174.001 72.4804 173.901 72.6607 173.844 72.7285C173.817 72.7595 173.814 72.7514 173.851 72.7329C173.893 72.7121 173.961 72.6914 174.04 72.6914V75.6914V78.6914C177.782 78.6914 180.001 75.2919 180.001 72.1914L177.001 72.1914ZM174.04 75.6914V72.6914C174.119 72.6914 174.187 72.7121 174.228 72.7329C174.265 72.7514 174.262 72.7595 174.236 72.7285C174.178 72.6607 174.078 72.4804 174.078 72.1914L171.078 72.1914L168.078 72.1914C168.078 75.2919 170.297 78.6914 174.04 78.6914V75.6914ZM171.078 72.1914L174.078 72.1914C174.078 71.9025 174.178 71.7221 174.236 71.6544C174.262 71.6233 174.265 71.6314 174.228 71.6499C174.187 71.6707 174.119 71.6914 174.04 71.6914V68.6914V65.6914C170.297 65.6914 168.078 69.0909 168.078 72.1914L171.078 72.1914ZM174.04 68.6914V71.6914C173.961 71.6914 173.893 71.6707 173.851 71.6499C173.814 71.6314 173.817 71.6233 173.844 71.6544C173.901 71.7221 174.001 71.9025 174.001 72.1914L177.001 72.1914L180.001 72.1914C180.001 69.0909 177.782 65.6914 174.04 65.6914V68.6914Z" fill="black" mask="url(#path-6-inside-2_265_1691)"/>
</svg>
