<svg width="207" height="171" viewBox="0 0 207 171" fill="none" xmlns="http://www.w3.org/2000/svg">
<circle cx="167" cy="85" r="28" fill="#E6E7EB" style="mix-blend-mode:luminosity"/>
<circle cx="167" cy="85" r="28" fill="#E6E7EB" fill-opacity="0.68"/>
<circle cx="167" cy="85" r="24.5" fill="#E6E7EB" style="mix-blend-mode:luminosity"/>
<circle cx="167" cy="85" r="24.5" fill="#EEEEEE"/>
<circle cx="167" cy="85" r="24.5" stroke="#2C2C2E" stroke-width="3"/>
<circle cx="167" cy="85" r="24.5" stroke="black" stroke-width="3"/>
<path d="M165.278 76.9961L162.497 92.3713L170.246 92.3713" stroke="black" stroke-width="3" stroke-linecap="round"/>
<mask id="path-4-inside-1_265_1580" fill="white">
<ellipse cx="156.731" cy="79.7305" rx="2.96154" ry="3.5"/>
</mask>
<ellipse cx="156.731" cy="79.7305" rx="2.96154" ry="3.5" fill="black"/>
<path d="M159.693 79.7305L156.693 79.7305C156.693 80.0194 156.592 80.1998 156.535 80.2675C156.509 80.2985 156.506 80.2905 156.542 80.272C156.584 80.2512 156.652 80.2305 156.731 80.2305V83.2305V86.2305C160.474 86.2305 162.693 82.831 162.693 79.7305L159.693 79.7305ZM156.731 83.2305V80.2305C156.81 80.2305 156.878 80.2512 156.92 80.272C156.957 80.2905 156.953 80.2985 156.927 80.2675C156.87 80.1998 156.77 80.0194 156.77 79.7305L153.77 79.7305L150.77 79.7305C150.77 82.831 152.988 86.2305 156.731 86.2305V83.2305ZM153.77 79.7305L156.77 79.7305C156.77 79.4415 156.87 79.2612 156.927 79.1934C156.953 79.1624 156.957 79.1705 156.92 79.1889C156.878 79.2098 156.81 79.2305 156.731 79.2305V76.2305V73.2305C152.988 73.2305 150.77 76.6299 150.77 79.7305L153.77 79.7305ZM156.731 76.2305V79.2305C156.652 79.2305 156.584 79.2098 156.542 79.1889C156.506 79.1705 156.509 79.1624 156.535 79.1934C156.592 79.2612 156.693 79.4415 156.693 79.7305L159.693 79.7305L162.693 79.7305C162.693 76.6299 160.474 73.2305 156.731 73.2305V76.2305Z" fill="black" mask="url(#path-4-inside-1_265_1580)"/>
<mask id="path-6-inside-2_265_1580" fill="white">
<ellipse cx="175.04" cy="79.1914" rx="2.96154" ry="3.5"/>
</mask>
<ellipse cx="175.04" cy="79.1914" rx="2.96154" ry="3.5" fill="black"/>
<path d="M178.001 79.1914L175.001 79.1914C175.001 79.4804 174.901 79.6607 174.844 79.7285C174.817 79.7595 174.814 79.7514 174.851 79.7329C174.893 79.7121 174.961 79.6914 175.04 79.6914V82.6914V85.6914C178.782 85.6914 181.001 82.2919 181.001 79.1914L178.001 79.1914ZM175.04 82.6914V79.6914C175.119 79.6914 175.187 79.7121 175.228 79.7329C175.265 79.7514 175.262 79.7595 175.236 79.7285C175.178 79.6607 175.078 79.4804 175.078 79.1914L172.078 79.1914L169.078 79.1914C169.078 82.2919 171.297 85.6914 175.04 85.6914V82.6914ZM172.078 79.1914L175.078 79.1914C175.078 78.9025 175.178 78.7221 175.236 78.6544C175.262 78.6233 175.265 78.6314 175.228 78.6499C175.187 78.6707 175.119 78.6914 175.04 78.6914V75.6914V72.6914C171.297 72.6914 169.078 76.0909 169.078 79.1914L172.078 79.1914ZM175.04 75.6914V78.6914C174.961 78.6914 174.893 78.6707 174.851 78.6499C174.814 78.6314 174.817 78.6233 174.844 78.6544C174.901 78.7221 175.001 78.9025 175.001 79.1914L178.001 79.1914L181.001 79.1914C181.001 76.0909 178.782 72.6914 175.04 72.6914V75.6914Z" fill="black" mask="url(#path-6-inside-2_265_1580)"/>
</svg>
