<svg width="207" height="171" viewBox="0 0 207 171" fill="none" xmlns="http://www.w3.org/2000/svg">
<circle cx="167" cy="85" r="28" fill="#E6E7EB" style="mix-blend-mode:luminosity"/>
<circle cx="167" cy="85" r="28" fill="#E6E7EB" fill-opacity="0.68"/>
<circle cx="167" cy="85" r="24.5" fill="#E6E7EB" style="mix-blend-mode:luminosity"/>
<circle cx="167" cy="85" r="24.5" fill="#EEEEEE"/>
<circle cx="167" cy="85" r="24.5" stroke="#2C2C2E" stroke-width="3"/>
<circle cx="167" cy="85" r="24.5" stroke="black" stroke-width="3"/>
<path d="M164.883 76.9628L162.783 92.4456L170.525 92.104" stroke="black" stroke-width="3" stroke-linecap="round"/>
<mask id="path-4-inside-1_265_1719" fill="white">
<ellipse cx="157" cy="78.5" rx="3" ry="0.5"/>
</mask>
<ellipse cx="157" cy="78.5" rx="3" ry="0.5" fill="black"/>
<path d="M160 78.5L157 78.5C157 77.2243 157.779 76.491 158.045 76.2747C158.347 76.0279 158.611 75.9244 158.664 75.9035C158.8 75.85 158.82 75.8624 158.628 75.8944C158.293 75.9502 157.716 76 157 76V79V82C157.941 82 158.864 81.9378 159.615 81.8127C159.966 81.7542 160.425 81.6589 160.864 81.4857C161.069 81.405 161.451 81.2387 161.834 80.9269C162.179 80.6454 163 79.8447 163 78.5L160 78.5ZM157 79V76C156.284 76 155.707 75.9502 155.372 75.8944C155.18 75.8624 155.2 75.85 155.336 75.9035C155.389 75.9244 155.653 76.0279 155.955 76.2747C156.221 76.491 157 77.2243 157 78.5L154 78.5L151 78.5C151 79.8447 151.821 80.6454 152.166 80.9269C152.549 81.2387 152.931 81.405 153.136 81.4857C153.575 81.6589 154.034 81.7542 154.385 81.8127C155.136 81.9378 156.059 82 157 82V79ZM154 78.5L157 78.5C157 79.7757 156.221 80.509 155.955 80.7253C155.653 80.9721 155.389 81.0756 155.336 81.0965C155.2 81.15 155.18 81.1376 155.372 81.1056C155.707 81.0498 156.284 81 157 81V78V75C156.059 75 155.136 75.0622 154.385 75.1873C154.034 75.2458 153.575 75.3411 153.136 75.5143C152.931 75.595 152.549 75.7613 152.166 76.0731C151.821 76.3546 151 77.1553 151 78.5L154 78.5ZM157 78V81C157.716 81 158.293 81.0498 158.628 81.1056C158.82 81.1376 158.8 81.15 158.664 81.0965C158.611 81.0756 158.347 80.9721 158.045 80.7253C157.779 80.509 157 79.7757 157 78.5L160 78.5L163 78.5C163 77.1553 162.179 76.3546 161.834 76.0731C161.451 75.7613 161.069 75.595 160.864 75.5143C160.425 75.3411 159.966 75.2458 159.615 75.1873C158.864 75.0622 157.941 75 157 75V78Z" fill="black" mask="url(#path-4-inside-1_265_1719)"/>
<mask id="path-6-inside-2_265_1719" fill="white">
<ellipse cx="175" cy="78.5" rx="3" ry="0.5"/>
</mask>
<ellipse cx="175" cy="78.5" rx="3" ry="0.5" fill="black"/>
<path d="M178 78.5L175 78.5C175 77.2243 175.779 76.491 176.045 76.2747C176.347 76.0279 176.611 75.9244 176.664 75.9035C176.8 75.85 176.82 75.8624 176.628 75.8944C176.293 75.9502 175.716 76 175 76V79V82C175.941 82 176.864 81.9378 177.615 81.8127C177.966 81.7542 178.425 81.6589 178.864 81.4857C179.069 81.405 179.451 81.2387 179.834 80.9269C180.179 80.6454 181 79.8447 181 78.5L178 78.5ZM175 79V76C174.284 76 173.707 75.9502 173.372 75.8944C173.18 75.8624 173.2 75.85 173.336 75.9035C173.389 75.9244 173.653 76.0279 173.955 76.2747C174.221 76.491 175 77.2243 175 78.5L172 78.5L169 78.5C169 79.8447 169.821 80.6454 170.166 80.9269C170.549 81.2387 170.931 81.405 171.136 81.4857C171.575 81.6589 172.034 81.7542 172.385 81.8127C173.136 81.9378 174.059 82 175 82V79ZM172 78.5L175 78.5C175 79.7757 174.221 80.509 173.955 80.7253C173.653 80.9721 173.389 81.0756 173.336 81.0965C173.2 81.15 173.18 81.1376 173.372 81.1056C173.707 81.0498 174.284 81 175 81V78V75C174.059 75 173.136 75.0622 172.385 75.1873C172.034 75.2458 171.575 75.3411 171.136 75.5143C170.931 75.595 170.549 75.7613 170.166 76.0731C169.821 76.3546 169 77.1553 169 78.5L172 78.5ZM175 78V81C175.716 81 176.293 81.0498 176.628 81.1056C176.82 81.1376 176.8 81.15 176.664 81.0965C176.611 81.0756 176.347 80.9721 176.045 80.7253C175.779 80.509 175 79.7757 175 78.5L178 78.5L181 78.5C181 77.1553 180.179 76.3546 179.834 76.0731C179.451 75.7613 179.069 75.595 178.864 75.5143C178.425 75.3411 177.966 75.2458 177.615 75.1873C176.864 75.0622 175.941 75 175 75V78Z" fill="black" mask="url(#path-6-inside-2_265_1719)"/>
</svg>
