<svg width="207" height="171" viewBox="0 0 207 171" fill="none" xmlns="http://www.w3.org/2000/svg">
<circle cx="167" cy="85" r="28" fill="#E6E7EB" style="mix-blend-mode:luminosity"/>
<circle cx="167" cy="85" r="28" fill="#E6E7EB" fill-opacity="0.68"/>
<circle cx="167" cy="85" r="24.5" fill="#E6E7EB" style="mix-blend-mode:luminosity"/>
<circle cx="167" cy="85" r="24.5" fill="#EEEEEE"/>
<circle cx="167" cy="85" r="24.5" stroke="#2C2C2E" stroke-width="3"/>
<circle cx="167" cy="85" r="24.5" stroke="black" stroke-width="3"/>
<path d="M164.883 76.9628L162.783 92.4456L170.525 92.104" stroke="black" stroke-width="3" stroke-linecap="round"/>
<mask id="path-4-inside-1_265_1712" fill="white">
<ellipse cx="156.731" cy="78.7305" rx="2.96154" ry="3.5"/>
</mask>
<ellipse cx="156.731" cy="78.7305" rx="2.96154" ry="3.5" fill="black"/>
<path d="M159.693 78.7305L156.693 78.7305C156.693 79.0194 156.592 79.1998 156.535 79.2675C156.509 79.2985 156.506 79.2905 156.542 79.272C156.584 79.2512 156.652 79.2305 156.731 79.2305V82.2305V85.2305C160.474 85.2305 162.693 81.831 162.693 78.7305L159.693 78.7305ZM156.731 82.2305V79.2305C156.81 79.2305 156.878 79.2512 156.92 79.272C156.957 79.2905 156.953 79.2985 156.927 79.2675C156.87 79.1998 156.77 79.0194 156.77 78.7305L153.77 78.7305L150.77 78.7305C150.77 81.831 152.988 85.2305 156.731 85.2305V82.2305ZM153.77 78.7305L156.77 78.7305C156.77 78.4415 156.87 78.2612 156.927 78.1934C156.953 78.1624 156.957 78.1705 156.92 78.1889C156.878 78.2098 156.81 78.2305 156.731 78.2305V75.2305V72.2305C152.988 72.2305 150.77 75.6299 150.77 78.7305L153.77 78.7305ZM156.731 75.2305V78.2305C156.652 78.2305 156.584 78.2098 156.542 78.1889C156.506 78.1705 156.509 78.1624 156.535 78.1934C156.592 78.2612 156.693 78.4415 156.693 78.7305L159.693 78.7305L162.693 78.7305C162.693 75.6299 160.474 72.2305 156.731 72.2305V75.2305Z" fill="black" mask="url(#path-4-inside-1_265_1712)"/>
<mask id="path-6-inside-2_265_1712" fill="white">
<ellipse cx="175.04" cy="78.1914" rx="2.96154" ry="3.5"/>
</mask>
<ellipse cx="175.04" cy="78.1914" rx="2.96154" ry="3.5" fill="black"/>
<path d="M178.001 78.1914L175.001 78.1914C175.001 78.4804 174.901 78.6607 174.844 78.7285C174.817 78.7595 174.814 78.7514 174.851 78.7329C174.893 78.7121 174.961 78.6914 175.04 78.6914V81.6914V84.6914C178.782 84.6914 181.001 81.2919 181.001 78.1914L178.001 78.1914ZM175.04 81.6914V78.6914C175.119 78.6914 175.187 78.7121 175.228 78.7329C175.265 78.7514 175.262 78.7595 175.236 78.7285C175.178 78.6607 175.078 78.4804 175.078 78.1914L172.078 78.1914L169.078 78.1914C169.078 81.2919 171.297 84.6914 175.04 84.6914V81.6914ZM172.078 78.1914L175.078 78.1914C175.078 77.9025 175.178 77.7221 175.236 77.6544C175.262 77.6233 175.265 77.6314 175.228 77.6499C175.187 77.6707 175.119 77.6914 175.04 77.6914V74.6914V71.6914C171.297 71.6914 169.078 75.0909 169.078 78.1914L172.078 78.1914ZM175.04 74.6914V77.6914C174.961 77.6914 174.893 77.6707 174.851 77.6499C174.814 77.6314 174.817 77.6233 174.844 77.6544C174.901 77.7221 175.001 77.9025 175.001 78.1914L178.001 78.1914L181.001 78.1914C181.001 75.0909 178.782 71.6914 175.04 71.6914V74.6914Z" fill="black" mask="url(#path-6-inside-2_265_1712)"/>
</svg>
