<svg width="207" height="171" viewBox="0 0 207 171" fill="none" xmlns="http://www.w3.org/2000/svg">
<circle cx="167" cy="85" r="28" fill="#E6E7EB" style="mix-blend-mode:luminosity"/>
<circle cx="167" cy="85" r="28" fill="#E6E7EB" fill-opacity="0.68"/>
<circle cx="167" cy="85" r="24.5" fill="#E6E7EB" style="mix-blend-mode:luminosity"/>
<circle cx="167" cy="85" r="24.5" fill="#EEEEEE"/>
<circle cx="167" cy="85" r="24.5" stroke="#2C2C2E" stroke-width="3"/>
<circle cx="167" cy="85" r="24.5" stroke="black" stroke-width="3"/>
<path d="M162.218 77.2007L164.776 92.6145L172.073 90.0057" stroke="black" stroke-width="3" stroke-linecap="round"/>
<mask id="path-4-inside-1_265_1677" fill="white">
<ellipse cx="152.731" cy="79.7305" rx="2.96154" ry="3.5"/>
</mask>
<ellipse cx="152.731" cy="79.7305" rx="2.96154" ry="3.5" fill="black"/>
<path d="M155.693 79.7305L152.693 79.7305C152.693 80.0194 152.592 80.1998 152.535 80.2675C152.509 80.2985 152.506 80.2905 152.542 80.272C152.584 80.2512 152.652 80.2305 152.731 80.2305V83.2305V86.2305C156.474 86.2305 158.693 82.831 158.693 79.7305L155.693 79.7305ZM152.731 83.2305V80.2305C152.81 80.2305 152.878 80.2512 152.92 80.272C152.957 80.2905 152.953 80.2985 152.927 80.2675C152.87 80.1998 152.77 80.0194 152.77 79.7305L149.77 79.7305L146.77 79.7305C146.77 82.831 148.988 86.2305 152.731 86.2305V83.2305ZM149.77 79.7305L152.77 79.7305C152.77 79.4415 152.87 79.2612 152.927 79.1934C152.953 79.1624 152.957 79.1705 152.92 79.1889C152.878 79.2098 152.81 79.2305 152.731 79.2305V76.2305V73.2305C148.988 73.2305 146.77 76.6299 146.77 79.7305L149.77 79.7305ZM152.731 76.2305V79.2305C152.652 79.2305 152.584 79.2098 152.542 79.1889C152.506 79.1705 152.509 79.1624 152.535 79.1934C152.592 79.2612 152.693 79.4415 152.693 79.7305L155.693 79.7305L158.693 79.7305C158.693 76.6299 156.474 73.2305 152.731 73.2305V76.2305Z" fill="black" mask="url(#path-4-inside-1_265_1677)"/>
<mask id="path-6-inside-2_265_1677" fill="white">
<ellipse cx="171.04" cy="79.1914" rx="2.96154" ry="3.5"/>
</mask>
<ellipse cx="171.04" cy="79.1914" rx="2.96154" ry="3.5" fill="black"/>
<path d="M174.001 79.1914L171.001 79.1914C171.001 79.4804 170.901 79.6607 170.844 79.7285C170.817 79.7595 170.814 79.7514 170.851 79.7329C170.893 79.7121 170.961 79.6914 171.04 79.6914V82.6914V85.6914C174.782 85.6914 177.001 82.2919 177.001 79.1914L174.001 79.1914ZM171.04 82.6914V79.6914C171.119 79.6914 171.187 79.7121 171.228 79.7329C171.265 79.7514 171.262 79.7595 171.236 79.7285C171.178 79.6607 171.078 79.4804 171.078 79.1914L168.078 79.1914L165.078 79.1914C165.078 82.2919 167.297 85.6914 171.04 85.6914V82.6914ZM168.078 79.1914L171.078 79.1914C171.078 78.9025 171.178 78.7221 171.236 78.6544C171.262 78.6233 171.265 78.6314 171.228 78.6499C171.187 78.6707 171.119 78.6914 171.04 78.6914V75.6914V72.6914C167.297 72.6914 165.078 76.0909 165.078 79.1914L168.078 79.1914ZM171.04 75.6914V78.6914C170.961 78.6914 170.893 78.6707 170.851 78.6499C170.814 78.6314 170.817 78.6233 170.844 78.6544C170.901 78.7221 171.001 78.9025 171.001 79.1914L174.001 79.1914L177.001 79.1914C177.001 76.0909 174.782 72.6914 171.04 72.6914V75.6914Z" fill="black" mask="url(#path-6-inside-2_265_1677)"/>
</svg>
