<svg width="207" height="171" viewBox="0 0 207 171" fill="none" xmlns="http://www.w3.org/2000/svg">
<g clip-path="url(#clip0_265_1640)">
<circle cx="203" cy="85" r="28" transform="rotate(-90 203 85)" fill="#E6E7EB" style="mix-blend-mode:luminosity"/>
<circle cx="203" cy="85" r="28" transform="rotate(-90 203 85)" fill="#E6E7EB" fill-opacity="0.68"/>
<circle cx="203" cy="85" r="24.5" transform="rotate(-90 203 85)" fill="#E6E7EB" style="mix-blend-mode:luminosity"/>
<circle cx="203" cy="85" r="24.5" transform="rotate(-90 203 85)" fill="#EEEEEE"/>
<circle cx="203" cy="85" r="24.5" transform="rotate(-90 203 85)" stroke="#2C2C2E" stroke-width="3"/>
<circle cx="203" cy="85" r="24.5" transform="rotate(-90 203 85)" stroke="black" stroke-width="3"/>
<path d="M197 83.5726L212.084 79.4981L212.741 87.2192" stroke="black" stroke-width="3" stroke-linecap="round"/>
<mask id="path-4-inside-1_265_1640" fill="white">
<ellipse cx="195.73" cy="92.2689" rx="2.96154" ry="3.5" transform="rotate(-90 195.73 92.2689)"/>
</mask>
<ellipse cx="195.73" cy="92.2689" rx="2.96154" ry="3.5" transform="rotate(-90 195.73 92.2689)" fill="black"/>
<path d="M195.73 89.3074V92.3074C196.019 92.3074 196.2 92.4076 196.268 92.465C196.299 92.4912 196.29 92.4944 196.272 92.4575C196.251 92.4158 196.23 92.348 196.23 92.2689L199.23 92.2689L202.23 92.2689C202.23 88.5262 198.831 86.3074 195.73 86.3074V89.3074ZM199.23 92.2689L196.23 92.2689C196.23 92.1898 196.251 92.122 196.272 92.0803C196.29 92.0434 196.299 92.0466 196.268 92.0729C196.2 92.1302 196.019 92.2305 195.73 92.2305V95.2305V98.2305C198.831 98.2305 202.23 96.0116 202.23 92.2689L199.23 92.2689ZM195.73 95.2305V92.2305C195.442 92.2305 195.261 92.1302 195.193 92.0729C195.162 92.0466 195.17 92.0434 195.189 92.0803C195.21 92.122 195.23 92.1898 195.23 92.2689L192.23 92.2689L189.23 92.2689C189.23 96.0116 192.63 98.2305 195.73 98.2305V95.2305ZM192.23 92.2689L195.23 92.2689C195.23 92.348 195.21 92.4158 195.189 92.4575C195.17 92.4944 195.162 92.4912 195.193 92.465C195.261 92.4076 195.442 92.3074 195.73 92.3074V89.3074V86.3074C192.63 86.3074 189.23 88.5262 189.23 92.2689L192.23 92.2689Z" fill="black" mask="url(#path-4-inside-1_265_1640)"/>
<mask id="path-6-inside-2_265_1640" fill="white">
<ellipse cx="195.191" cy="73.9603" rx="2.96154" ry="3.5" transform="rotate(-90 195.191 73.9603)"/>
</mask>
<ellipse cx="195.191" cy="73.9603" rx="2.96154" ry="3.5" transform="rotate(-90 195.191 73.9603)" fill="black"/>
<path d="M195.191 70.9988V73.9988C195.48 73.9988 195.661 74.099 195.728 74.1564C195.759 74.1826 195.751 74.1858 195.733 74.1489C195.712 74.1072 195.691 74.0394 195.691 73.9603L198.691 73.9603L201.691 73.9603C201.691 70.2176 198.292 67.9988 195.191 67.9988V70.9988ZM198.691 73.9603L195.691 73.9603C195.691 73.8812 195.712 73.8134 195.733 73.7717C195.751 73.7348 195.759 73.738 195.728 73.7643C195.661 73.8216 195.48 73.9219 195.191 73.9219V76.9219V79.9219C198.292 79.9219 201.691 77.703 201.691 73.9603L198.691 73.9603ZM195.191 76.9219V73.9219C194.902 73.9219 194.722 73.8216 194.654 73.7643C194.623 73.738 194.631 73.7348 194.65 73.7717C194.671 73.8134 194.691 73.8812 194.691 73.9603L191.691 73.9603L188.691 73.9603C188.691 77.703 192.091 79.9219 195.191 79.9219V76.9219ZM191.691 73.9603L194.691 73.9603C194.691 74.0394 194.671 74.1072 194.65 74.1489C194.631 74.1858 194.623 74.1826 194.654 74.1564C194.722 74.099 194.902 73.9988 195.191 73.9988V70.9988V67.9988C192.091 67.9988 188.691 70.2176 188.691 73.9603L191.691 73.9603Z" fill="black" mask="url(#path-6-inside-2_265_1640)"/>
</g>
<defs>
<clipPath id="clip0_265_1640">
<rect width="207" height="171" fill="white"/>
</clipPath>
</defs>
</svg>
