<svg width="207" height="171" viewBox="0 0 207 171" fill="none" xmlns="http://www.w3.org/2000/svg">
<circle cx="167" cy="85" r="28" fill="#E6E7EB" style="mix-blend-mode:luminosity"/>
<circle cx="167" cy="85" r="28" fill="#E6E7EB" fill-opacity="0.68"/>
<circle cx="167" cy="85" r="24.5" fill="#E6E7EB" style="mix-blend-mode:luminosity"/>
<circle cx="167" cy="85" r="24.5" fill="#EEEEEE"/>
<circle cx="167" cy="85" r="24.5" stroke="#2C2C2E" stroke-width="3"/>
<circle cx="167" cy="85" r="24.5" stroke="black" stroke-width="3"/>
<path d="M164.883 76.9628L162.783 92.4456L170.525 92.104" stroke="black" stroke-width="3" stroke-linecap="round"/>
<mask id="path-4-inside-1_265_1698" fill="white">
<ellipse cx="159.731" cy="72.7305" rx="2.96154" ry="3.5"/>
</mask>
<ellipse cx="159.731" cy="72.7305" rx="2.96154" ry="3.5" fill="black"/>
<path d="M162.693 72.7305L159.693 72.7305C159.693 73.0194 159.592 73.1998 159.535 73.2675C159.509 73.2985 159.506 73.2905 159.542 73.272C159.584 73.2512 159.652 73.2305 159.731 73.2305V76.2305V79.2305C163.474 79.2305 165.693 75.831 165.693 72.7305L162.693 72.7305ZM159.731 76.2305V73.2305C159.81 73.2305 159.878 73.2512 159.92 73.272C159.957 73.2905 159.953 73.2985 159.927 73.2675C159.87 73.1998 159.77 73.0194 159.77 72.7305L156.77 72.7305L153.77 72.7305C153.77 75.831 155.988 79.2305 159.731 79.2305V76.2305ZM156.77 72.7305L159.77 72.7305C159.77 72.4415 159.87 72.2612 159.927 72.1934C159.953 72.1624 159.957 72.1705 159.92 72.1889C159.878 72.2098 159.81 72.2305 159.731 72.2305V69.2305V66.2305C155.988 66.2305 153.77 69.6299 153.77 72.7305L156.77 72.7305ZM159.731 69.2305V72.2305C159.652 72.2305 159.584 72.2098 159.542 72.1889C159.506 72.1705 159.509 72.1624 159.535 72.1934C159.592 72.2612 159.693 72.4415 159.693 72.7305L162.693 72.7305L165.693 72.7305C165.693 69.6299 163.474 66.2305 159.731 66.2305V69.2305Z" fill="black" mask="url(#path-4-inside-1_265_1698)"/>
<mask id="path-6-inside-2_265_1698" fill="white">
<ellipse cx="178.04" cy="72.1914" rx="2.96154" ry="3.5"/>
</mask>
<ellipse cx="178.04" cy="72.1914" rx="2.96154" ry="3.5" fill="black"/>
<path d="M181.001 72.1914L178.001 72.1914C178.001 72.4804 177.901 72.6607 177.844 72.7285C177.817 72.7595 177.814 72.7514 177.851 72.7329C177.893 72.7121 177.961 72.6914 178.04 72.6914V75.6914V78.6914C181.782 78.6914 184.001 75.2919 184.001 72.1914L181.001 72.1914ZM178.04 75.6914V72.6914C178.119 72.6914 178.187 72.7121 178.228 72.7329C178.265 72.7514 178.262 72.7595 178.236 72.7285C178.178 72.6607 178.078 72.4804 178.078 72.1914L175.078 72.1914L172.078 72.1914C172.078 75.2919 174.297 78.6914 178.04 78.6914V75.6914ZM175.078 72.1914L178.078 72.1914C178.078 71.9025 178.178 71.7221 178.236 71.6544C178.262 71.6233 178.265 71.6314 178.228 71.6499C178.187 71.6707 178.119 71.6914 178.04 71.6914V68.6914V65.6914C174.297 65.6914 172.078 69.0909 172.078 72.1914L175.078 72.1914ZM178.04 68.6914V71.6914C177.961 71.6914 177.893 71.6707 177.851 71.6499C177.814 71.6314 177.817 71.6233 177.844 71.6544C177.901 71.7221 178.001 71.9025 178.001 72.1914L181.001 72.1914L184.001 72.1914C184.001 69.0909 181.782 65.6914 178.04 65.6914V68.6914Z" fill="black" mask="url(#path-6-inside-2_265_1698)"/>
</svg>
