<svg width="16" height="16" viewBox="0 0 16 16" fill="none" xmlns="http://www.w3.org/2000/svg">
<path d="M3.05063 3.05063C3.23816 2.86314 3.49248 2.75781 3.75766 2.75781C4.02284 2.75781 4.27716 2.86314 4.46469 3.05063L8.00063 6.58657L11.5366 3.05063C11.725 2.86762 11.9779 2.7661 12.2406 2.76802C12.5032 2.76994 12.7546 2.87514 12.9404 3.06089C13.1261 3.24664 13.2313 3.49801 13.2332 3.76069C13.2352 4.02337 13.1336 4.27625 12.9506 4.46469L9.41469 8.00063L12.9506 11.5366C13.1336 11.725 13.2352 11.9779 13.2332 12.2406C13.2313 12.5032 13.1261 12.7546 12.9404 12.9404C12.7546 13.1261 12.5032 13.2313 12.2406 13.2332C11.9779 13.2352 11.725 13.1336 11.5366 12.9506L8.00063 9.41469L4.46469 12.9506C4.27625 13.1336 4.02337 13.2352 3.76069 13.2332C3.49801 13.2313 3.24664 13.1261 3.06089 12.9404C2.87514 12.7546 2.76994 12.5032 2.76802 12.2406C2.7661 11.9779 2.86762 11.725 3.05063 11.5366L6.58657 8.00063L3.05063 4.46469C2.86314 4.27716 2.75781 4.02284 2.75781 3.75766C2.75781 3.49248 2.86314 3.23816 3.05063 3.05063Z" fill="black"/>
</svg>
