<svg width="56" height="56" viewBox="0 0 56 56" fill="none" xmlns="http://www.w3.org/2000/svg">
<circle cx="28" cy="28" r="28" fill="#E6E7EB" style="mix-blend-mode:luminosity"/>
<circle cx="28" cy="28" r="28" fill="#E6E7EB" fill-opacity="0.68"/>
<circle cx="28" cy="28" r="24.5" fill="#E6E7EB" style="mix-blend-mode:luminosity"/>
<circle cx="28" cy="28" r="24.5" fill="#EEEEEE"/>
<circle cx="28" cy="28" r="24.5" stroke="#2C2C2E" stroke-width="3"/>
<circle cx="28" cy="28" r="24.5" stroke="black" stroke-width="3"/>
<path d="M26.2775 19.9961L23.497 35.3713L31.2461 35.3713" stroke="black" stroke-width="3" stroke-linecap="round"/>
<mask id="path-4-inside-1_265_1581" fill="white">
<ellipse cx="17.7311" cy="22.7305" rx="2.96154" ry="3.5"/>
</mask>
<ellipse cx="17.7311" cy="22.7305" rx="2.96154" ry="3.5" fill="black"/>
<path d="M20.6926 22.7305L17.6926 22.7305C17.6926 23.0194 17.5924 23.1998 17.535 23.2675C17.5088 23.2985 17.5056 23.2905 17.5425 23.272C17.5842 23.2512 17.652 23.2305 17.7311 23.2305V26.2305V29.2305C21.4738 29.2305 23.6926 25.831 23.6926 22.7305L20.6926 22.7305ZM17.7311 26.2305V23.2305C17.8102 23.2305 17.878 23.2512 17.9197 23.272C17.9566 23.2905 17.9534 23.2985 17.9271 23.2675C17.8698 23.1998 17.7695 23.0194 17.7695 22.7305L14.7695 22.7305L11.7695 22.7305C11.7695 25.831 13.9884 29.2305 17.7311 29.2305V26.2305ZM14.7695 22.7305L17.7695 22.7305C17.7695 22.4415 17.8698 22.2612 17.9271 22.1934C17.9534 22.1624 17.9566 22.1705 17.9197 22.1889C17.878 22.2098 17.8102 22.2305 17.7311 22.2305V19.2305V16.2305C13.9884 16.2305 11.7695 19.6299 11.7695 22.7305L14.7695 22.7305ZM17.7311 19.2305V22.2305C17.652 22.2305 17.5842 22.2098 17.5425 22.1889C17.5056 22.1705 17.5088 22.1624 17.535 22.1934C17.5924 22.2612 17.6926 22.4415 17.6926 22.7305L20.6926 22.7305L23.6926 22.7305C23.6926 19.6299 21.4738 16.2305 17.7311 16.2305V19.2305Z" fill="black" mask="url(#path-4-inside-1_265_1581)"/>
<mask id="path-6-inside-2_265_1581" fill="white">
<ellipse cx="36.0397" cy="22.1914" rx="2.96154" ry="3.5"/>
</mask>
<ellipse cx="36.0397" cy="22.1914" rx="2.96154" ry="3.5" fill="black"/>
<path d="M39.0012 22.1914L36.0012 22.1914C36.0012 22.4804 35.901 22.6607 35.8436 22.7285C35.8174 22.7595 35.8142 22.7514 35.8511 22.7329C35.8928 22.7121 35.9606 22.6914 36.0397 22.6914V25.6914V28.6914C39.7824 28.6914 42.0012 25.2919 42.0012 22.1914L39.0012 22.1914ZM36.0397 25.6914V22.6914C36.1188 22.6914 36.1866 22.7121 36.2283 22.7329C36.2652 22.7514 36.262 22.7595 36.2357 22.7285C36.1784 22.6607 36.0781 22.4804 36.0781 22.1914L33.0781 22.1914L30.0781 22.1914C30.0781 25.2919 32.297 28.6914 36.0397 28.6914V25.6914ZM33.0781 22.1914L36.0781 22.1914C36.0781 21.9025 36.1784 21.7221 36.2357 21.6544C36.262 21.6233 36.2652 21.6314 36.2283 21.6499C36.1866 21.6707 36.1188 21.6914 36.0397 21.6914V18.6914V15.6914C32.297 15.6914 30.0781 19.0909 30.0781 22.1914L33.0781 22.1914ZM36.0397 18.6914V21.6914C35.9606 21.6914 35.8928 21.6707 35.8511 21.6499C35.8142 21.6314 35.8174 21.6233 35.8436 21.6544C35.901 21.7221 36.0012 21.9025 36.0012 22.1914L39.0012 22.1914L42.0012 22.1914C42.0012 19.0909 39.7824 15.6914 36.0397 15.6914V18.6914Z" fill="black" mask="url(#path-6-inside-2_265_1581)"/>
</svg>
